<svg width="44" height="28" viewBox="0 0 44 28" fill="none" xmlns="http://www.w3.org/2000/svg">
<path d="M8.9288e-07 2.14634C8.9288e-07 1.5771 0.231786 1.03117 0.644366 0.628651C1.05695 0.226134 1.61652 0 2.2 0H41.8C42.3835 0 42.9431 0.226134 43.3556 0.628651C43.7682 1.03117 44 1.5771 44 2.14634V4.29268C44 13.0927 38.5704 20.6585 30.8 23.9703V25.7561C30.8 26.3253 30.5682 26.8713 30.1556 27.2738C29.7431 27.6763 29.1835 27.9024 28.6 27.9024H15.4C14.8165 27.9024 14.2569 27.6763 13.8444 27.2738C13.4318 26.8713 13.2 26.3253 13.2 25.7561V23.9703C9.2757 22.2994 5.93647 19.5476 3.59176 16.0522C1.24706 12.5569 -0.00121874 8.47001 8.9288e-07 4.29268V2.14634Z" fill="#E4DDCB"/>
</svg>
