<svg width="28" height="23" viewBox="0 0 28 23" fill="none" xmlns="http://www.w3.org/2000/svg">
<path d="M25.5885 8.88435L24.9328 7.20128L23.7703 4.21667C22.7722 1.65492 20.3916 0 17.7042 0H10.2958C7.609 0 5.22783 1.65492 4.22975 4.21667L3.06717 7.20128L2.4115 8.88435C1.0045 9.43359 0 10.8208 0 12.4583V15.3333C0 16.2989 0.359333 17.1703 0.933333 17.8448V21.0833C0.933333 22.1417 1.76925 23 2.8 23H4.66667C5.69742 23 6.53333 22.1417 6.53333 21.0833V19.1667H21.4667V21.0833C21.4667 22.1417 22.3026 23 23.3333 23H25.2C26.2308 23 27.0667 22.1417 27.0667 21.0833V17.8448C27.6407 17.1709 28 16.2995 28 15.3333V12.4583C28 10.8208 26.9955 9.43359 25.5885 8.88435ZM7.69592 5.64039C8.12117 4.54909 9.15075 3.83333 10.2958 3.83333H17.7042C18.8493 3.83333 19.8788 4.54909 20.3041 5.64039L21.4667 8.625H6.53333L7.69592 5.64039ZM4.66667 15.3214C3.54667 15.3214 2.8 14.5571 2.8 13.4107C2.8 12.2643 3.54667 11.5 4.66667 11.5C5.78667 11.5 7.46667 13.2196 7.46667 14.366C7.46667 15.5124 5.78667 15.3214 4.66667 15.3214ZM23.3333 15.3214C22.2133 15.3214 20.5333 15.5124 20.5333 14.366C20.5333 13.2196 22.2133 11.5 23.3333 11.5C24.4533 11.5 25.2 12.2643 25.2 13.4107C25.2 14.5571 24.4533 15.3214 23.3333 15.3214Z" fill="black"/>
</svg>
