<svg width="31" height="30" viewBox="0 0 31 30" fill="none" xmlns="http://www.w3.org/2000/svg">
<path d="M11.3021 30C10.3118 30 9.424 29.7273 8.63867 29.1818C7.85333 28.6364 7.24496 27.8864 6.81354 26.9318C6.4691 27.4091 6.03337 27.7786 5.50637 28.0405C4.97937 28.3023 4.43558 28.4327 3.875 28.4318C2.77708 28.4318 1.85699 28.0341 1.11471 27.2386C0.372431 26.4432 0.000861111 25.4773 0 24.3409C0 23.3636 0.301389 22.4832 0.904167 21.6995C1.50694 20.9159 2.27118 20.4668 3.19687 20.3523C2.89549 19.8977 2.66428 19.415 2.50325 18.9041C2.34222 18.3932 2.26128 17.8532 2.26042 17.2841C2.26042 16.8977 2.30347 16.5114 2.38958 16.125C2.47569 15.7386 2.60486 15.3636 2.77708 15C2.94931 14.6591 3.20247 14.4264 3.53658 14.3018C3.87069 14.1773 4.19878 14.2055 4.52083 14.3864C4.84289 14.5673 5.06893 14.8345 5.19896 15.1882C5.32899 15.5418 5.30746 15.8882 5.13437 16.2273C5.04826 16.4091 4.98368 16.5909 4.94062 16.7727C4.89757 16.9545 4.87604 17.1364 4.87604 17.3182C4.87604 18.4773 5.30143 19.2273 6.15221 19.5682C7.00299 19.9091 7.8585 20.1591 8.71875 20.3182C8.89097 20.3636 9.05243 20.4318 9.20312 20.5227C9.35382 20.6136 9.47222 20.7386 9.55833 20.8977C9.64444 21.0568 9.6931 21.2218 9.70429 21.3927C9.71549 21.5636 9.68836 21.7395 9.62292 21.9205C9.40764 22.5341 9.23542 23.0568 9.10625 23.4886C8.97708 23.9205 8.9125 24.3295 8.9125 24.7159C8.9125 25.3977 9.14371 25.9941 9.60612 26.505C10.0685 27.0159 10.6339 27.2718 11.3021 27.2727C11.991 27.2727 12.583 26.9945 13.0781 26.4382C13.5733 25.8818 13.9879 25.1886 14.322 24.3586C14.6561 23.5286 14.9252 22.6477 15.1293 21.7159C15.3334 20.7841 15.5 19.9432 15.6292 19.1932C15.6938 18.8068 15.8767 18.5059 16.1781 18.2905C16.4795 18.075 16.8024 18.0236 17.1469 18.1364C17.5128 18.25 17.7875 18.4773 17.971 18.8182C18.1544 19.1591 18.2026 19.5227 18.1156 19.9091C17.9219 20.9545 17.6743 22.0682 17.3729 23.25C17.0715 24.4318 16.6681 25.5227 16.1626 26.5227C15.6572 27.5227 15.0113 28.3523 14.2251 29.0114C13.4389 29.6705 12.4646 30 11.3021 30ZM19.7302 30C19.3427 30 19.0254 29.8691 18.7782 29.6073C18.5311 29.3455 18.4071 29.0218 18.4062 28.6364C18.4054 28.2509 18.5294 27.9273 18.7782 27.6655C19.0271 27.4036 19.3337 27.2727 19.6979 27.2727C20.3868 27.2727 20.9629 27.0173 21.4262 26.5064C21.8894 25.9955 22.1207 25.3873 22.1198 24.6818C22.1198 24.2955 22.05 23.8695 21.9105 23.4041C21.771 22.9386 21.5825 22.3759 21.3448 21.7159C21.3017 21.5568 21.2802 21.4036 21.2802 21.2564C21.2802 21.1091 21.3233 20.9668 21.4094 20.8295C21.4955 20.6923 21.5924 20.5845 21.7 20.5064C21.8076 20.4282 21.9476 20.3655 22.1198 20.3182C23.0024 20.1591 23.8958 19.915 24.8 19.5859C25.7042 19.2568 26.1562 18.4895 26.1562 17.2841C26.1562 16.375 25.8389 15.7159 25.2043 15.3068C24.5697 14.8977 23.8752 14.6932 23.1208 14.6932C22.3665 14.6932 21.4946 14.8295 20.5052 15.1023C19.5158 15.375 18.3856 15.7273 17.1146 16.1591C16.7486 16.2727 16.3934 16.2559 16.049 16.1086C15.7045 15.9614 15.4785 15.6941 15.3708 15.3068C15.2632 14.9195 15.317 14.5559 15.5323 14.2159C15.7476 13.8759 16.0382 13.6486 16.4042 13.5341C17.7604 13.0795 18.9875 12.7045 20.0854 12.4091C21.1833 12.1136 22.2059 11.9659 23.1531 11.9659C24.6385 11.9659 25.941 12.4318 27.0604 13.3636C28.1799 14.2955 28.7396 15.6023 28.7396 17.2841C28.7396 17.8523 28.6591 18.3923 28.498 18.9041C28.337 19.4159 28.1054 19.8986 27.8031 20.3523C28.7288 20.4659 29.4931 20.915 30.0958 21.6995C30.6986 22.4841 31 23.3645 31 24.3409C31 25.4773 30.6289 26.4432 29.8866 27.2386C29.1443 28.0341 28.2238 28.4318 27.125 28.4318C26.5653 28.4318 26.0215 28.3014 25.4936 28.0405C24.9658 27.7795 24.53 27.41 24.1865 26.9318C23.7559 27.8636 23.1531 28.6023 22.3781 29.1477C21.6031 29.6932 20.7205 29.9773 19.7302 30ZM11.9156 19.2273C10.258 17.6364 8.93403 16.1932 7.94375 14.8977C6.95347 13.6023 6.45833 12.2045 6.45833 10.7045C6.45833 9.22727 6.93711 7.98273 7.89467 6.97091C8.85222 5.95909 10.0311 5.45364 11.4313 5.45455C11.5174 5.45455 11.5927 5.46045 11.6573 5.47227C11.7219 5.48409 11.7972 5.48954 11.8833 5.48864C11.7972 5.26136 11.7326 5.03409 11.6896 4.80682C11.6465 4.57955 11.625 4.34091 11.625 4.09091C11.625 2.95455 12.0017 1.98864 12.7552 1.19318C13.5087 0.397727 14.4236 0 15.5 0C16.5764 0 17.4913 0.397727 18.2448 1.19318C18.9983 1.98864 19.375 2.95455 19.375 4.09091C19.375 4.34091 19.3535 4.57409 19.3104 4.79045C19.2674 5.00682 19.2028 5.22818 19.1167 5.45455H19.5687C20.1285 5.45455 20.6611 5.54545 21.1665 5.72727C21.672 5.90909 22.1405 6.17045 22.5719 6.51136C22.8733 6.73864 23.0455 7.03409 23.0885 7.39773C23.1316 7.76136 23.0455 8.10227 22.8302 8.42045C22.6149 8.73864 22.3351 8.92045 21.9906 8.96591C21.6462 9.01136 21.3233 8.92045 21.0219 8.69318C20.8066 8.51136 20.5806 8.38091 20.3438 8.30182C20.1069 8.22273 19.8486 8.18273 19.5687 8.18182C18.8799 8.18182 18.3253 8.38636 17.9051 8.79545C17.4849 9.20455 16.9523 9.80682 16.3073 10.6023C16.1997 10.7386 16.0812 10.8409 15.9521 10.9091C15.8229 10.9773 15.6722 11.0114 15.5 11.0114C15.3278 11.0114 15.1715 10.9773 15.0311 10.9091C14.8908 10.8409 14.7672 10.7386 14.6604 10.6023C13.9931 9.78409 13.4605 9.17636 13.0626 8.77909C12.6648 8.38182 12.121 8.18273 11.4313 8.18182C10.7415 8.18091 10.171 8.41955 9.71979 8.89773C9.26857 9.37591 9.04253 9.97818 9.04167 10.7045C9.04167 11.6591 9.46662 12.6536 10.3165 13.6882C11.1665 14.7227 12.313 15.9327 13.7562 17.3182C14.0576 17.5909 14.2355 17.9264 14.2897 18.3245C14.344 18.7227 14.2415 19.0577 13.9823 19.3295C13.7024 19.625 13.3636 19.7559 12.9657 19.7223C12.5679 19.6886 12.2179 19.5236 11.9156 19.2273Z" fill="#1E1E1E"/>
</svg>
