<svg width="29" height="27" viewBox="0 0 29 27" fill="none" xmlns="http://www.w3.org/2000/svg">
<path d="M1.00504 12.298C0.988925 12.1163 1.01156 11.9334 1.07152 11.7607C1.13147 11.5881 1.22743 11.4295 1.35331 11.2951C1.47919 11.1607 1.63223 11.0533 1.80274 10.9799C1.97324 10.9064 2.15748 10.8685 2.34376 10.8684H4.91032C5.26679 10.8684 5.60867 11.007 5.86074 11.2538C6.1128 11.5006 6.25442 11.8352 6.25442 12.1842V24.6842C6.25442 25.0332 6.1128 25.3679 5.86074 25.6146C5.60867 25.8614 5.26679 26 4.91032 26H3.45466C3.11825 26.0001 2.79404 25.8767 2.54606 25.6541C2.29808 25.4316 2.14436 25.1261 2.11526 24.798L1.00504 12.298ZM10.2867 11.773C10.2867 11.223 10.6362 10.7309 11.1436 10.4967C12.2518 9.98487 14.1396 8.95658 14.9911 7.56644C16.0885 5.77434 16.2955 2.53684 16.3291 1.79539C16.3338 1.69144 16.3311 1.5875 16.3452 1.48486C16.5274 0.199996 19.0603 1.70065 20.0314 3.2875C20.559 4.14802 20.6262 5.27894 20.5711 6.1625C20.5113 7.10723 20.2283 8.01973 19.9508 8.92631L19.3594 10.8586H26.6558C26.8635 10.8585 27.0683 10.9056 27.2543 10.9961C27.4402 11.0866 27.6022 11.2181 27.7276 11.3802C27.8529 11.5423 27.9382 11.7306 27.9767 11.9304C28.0152 12.1301 28.0059 12.3359 27.9495 12.5316L24.3406 25.0421C24.2609 25.318 24.0914 25.5609 23.8577 25.7338C23.6241 25.9067 23.3391 26.0002 23.0462 26H11.6308C11.2743 26 10.9325 25.8614 10.6804 25.6146C10.4283 25.3679 10.2867 25.0332 10.2867 24.6842V11.773Z" fill="#1E1E1E" stroke="#1E1E1E" stroke-width="2" stroke-linecap="round" stroke-linejoin="round"/>
</svg>
