<svg width="22" height="23" viewBox="0 0 22 23" fill="none" xmlns="http://www.w3.org/2000/svg">
<path d="M7.08713 0L6.2894 1.06614L7.08713 2.13218L7.88626 1.06604L7.08713 0ZM16.7023 0.356395L15.6553 1.75241L16.7023 3.14984L17.7478 1.75241L16.7023 0.356395ZM10.589 1.22451L9.54337 2.62053L10.5889 4.01654L11.6359 2.62053L10.589 1.22451ZM1.62909 1.38279L0.83137 2.44883L1.62909 3.51496L2.42832 2.44883L1.62919 1.38279H1.62909ZM19.9827 2.54854L19.3448 3.92847L17.9635 4.56636L19.3448 5.23063L19.9827 6.58414L20.6191 5.20422L22.0004 4.56636L20.6454 3.92851L19.9827 2.54864V2.54854ZM5.86708 3.16889L5.0664 4.90361L3.33167 5.7043L5.06649 6.53862L5.86713 8.23965L6.66626 6.50493L8.40108 5.70425L6.70004 4.90361L5.86713 3.1688L5.86708 3.16889ZM15.6554 3.60145L14.6083 4.99746L15.6554 6.39489L16.7008 4.99746L15.6554 3.60145ZM10.9554 6.56363L10.0873 7.72212L10.9554 8.88201L11.8235 7.72202L10.9554 6.56363ZM15.7902 8.02126L15.1333 9.44661L13.7079 10.1036L15.1333 10.7883L15.7902 12.1874L16.4487 10.762L17.874 10.1036L16.4764 9.44661L15.7902 8.02126H15.7902ZM3.10141 8.34819L2.30228 9.41292L3.10141 10.479L3.89914 9.41282L3.10141 8.34819ZM7.51823 9.61817L6.7205 10.6843L7.51823 11.7503L8.31745 10.6843L7.51832 9.61817H7.51823ZM10.9277 10.7473C10.5676 10.7524 10.2568 10.9507 9.91 11.2179C7.7498 12.8839 5.01464 15.3017 4.98146 16.6525C4.59494 16.6985 4.25112 16.8995 4.25112 17.2538C4.25112 17.782 4.97302 17.9716 5.5005 17.8286C5.49377 17.8619 5.49034 17.8958 5.49027 17.9298C5.49027 18.6841 6.96372 18.7488 7.23823 18.1394C8.86183 18.5734 10.8532 18.6464 12.6728 18.4283C12.7831 19.1298 14.2661 19.1403 14.4413 18.4766C14.9221 18.8296 15.7979 18.8503 16.3285 18.5412C16.8294 18.859 17.8492 18.7028 17.8492 18.0807C17.8492 17.9886 17.8274 17.9071 17.7876 17.8359C18.0626 17.7167 18.2598 17.5079 18.2598 17.2082C18.2598 16.5357 17.2676 16.3295 16.6306 16.5703C16.4177 15.1075 13.8292 12.5932 11.8971 11.1416C11.5173 10.8563 11.2078 10.7431 10.9278 10.7472L10.9277 10.7473ZM2.69382 16.0219C2.18938 16.023 1.68494 16.2575 1.68494 16.7214C1.68494 17.6493 3.70271 17.6318 3.70271 16.7214C3.70271 16.2532 3.19813 16.0208 2.69382 16.0219V16.0219ZM21.015 16.6335C20.567 16.6354 20.119 16.8407 20.119 17.2449C20.119 18.0769 21.911 18.0693 21.911 17.2449C21.911 16.8327 21.463 16.6315 21.015 16.6335ZM0.895939 17.3711C0.447946 17.372 0 17.5792 0 17.9913C0 18.8158 1.79192 18.8 1.79192 17.9913C1.79192 17.5755 1.34393 17.3702 0.895939 17.3711ZM20.2159 18.4738C19.7115 18.4748 19.207 18.7093 19.207 19.1733C19.207 20.1012 21.2233 20.0836 21.2233 19.1733C21.2233 18.705 20.7202 18.4727 20.2158 18.4737L20.2159 18.4738ZM7.36572 18.7832C7.08417 18.7838 6.8029 18.866 6.63257 19.0295C6.10541 18.8004 5.23068 18.9786 5.23068 19.5545C5.23068 20.2258 6.41868 20.3387 6.85992 19.9211C7.38707 20.1464 8.2618 19.9685 8.2618 19.4035C8.2618 18.9876 7.81381 18.7822 7.36582 18.7832H7.36572ZM11.4585 18.858C11.0105 18.86 10.5625 19.0652 10.5625 19.4694C10.5625 20.3013 12.3545 20.2939 12.3545 19.4694C12.3545 19.0573 11.9065 18.856 11.4585 18.858ZM2.44892 19.2979C2.00093 19.2988 1.55294 19.506 1.55294 19.9183C1.55294 20.7425 3.34491 20.7268 3.34491 19.9183C3.34491 19.5023 2.89691 19.297 2.44892 19.2979ZM16.456 19.9167C16.008 19.9186 15.56 20.1254 15.56 20.5297C15.56 20.993 16.116 21.1962 16.6085 21.1427C16.5748 21.2155 16.5572 21.2968 16.5572 21.3861C16.5572 22.2691 18.2711 22.3491 18.6101 21.6456C19.0941 21.6846 19.6249 21.4785 19.6249 21.0297C19.6249 20.3392 18.3673 20.2376 17.959 20.6984C17.7561 20.6557 17.5337 20.6534 17.3271 20.6895C17.3433 20.6401 17.352 20.5872 17.352 20.5297C17.352 20.1175 16.904 19.9148 16.456 19.9167H16.456ZM9.37472 20.081C8.86099 20.0832 8.34824 20.3198 8.34824 20.7834C8.34824 21.7373 10.4026 21.7287 10.4026 20.7834C10.4026 20.3108 9.88841 20.0787 9.37467 20.081L9.37472 20.081ZM14.0951 20.9109C13.5062 20.9122 12.9176 21.1859 12.9176 21.7277C12.9176 22.8112 15.2726 22.7906 15.2726 21.7277C15.2726 21.1811 14.684 20.9097 14.0951 20.9109H14.0951ZM6.91557 21.2263C6.40184 21.2285 5.88758 21.465 5.88758 21.9286C5.88758 22.8825 7.94205 22.8739 7.94205 21.9286C7.94205 21.456 7.42931 21.224 6.91557 21.2262V21.2263Z" fill="black"/>
</svg>
