<svg width="22" height="18" viewBox="0 0 22 18" fill="none" xmlns="http://www.w3.org/2000/svg">
<path d="M1.16444 0.0264832C0.385208 -0.157046 -0.198471 0.645147 0.0643097 1.40135C0.827356 3.59715 1.10938 6.04971 2.32919 10.1574C4.19643 15.5337 11.0896 15.896 11.6 15.9061C12.0205 16.5697 12.9331 17.4425 14.9162 17.9788C15.2647 18.073 15.6122 17.8445 15.6866 17.4912C15.7612 17.1374 15.5327 16.7929 15.1846 16.6951C13.5652 16.2401 12.9302 15.5549 12.6952 15.1592L12.6901 15.1652C12.7777 14.6781 14.2232 9.75275 11.3584 5.75151C8.06476 2.1019 3.62391 0.60575 1.16444 0.0264832ZM21.7836 3.11108C22.2122 2.23449 21.3712 0.704651 20.3955 0.716692C18.567 0.739258 16.7927 0.936695 11.9422 3.64772C13.12 5.02374 13.9699 6.64934 14.4276 8.4018C14.7285 9.55376 14.8548 10.7407 14.8053 11.9235C14.772 12.7216 15.5642 13.3581 16.2508 12.9499C18.782 11.445 19.8574 9.35021 20.2276 7.25538C20.2276 7.25538 20.804 5.11502 21.7836 3.11108ZM11.9422 3.64772L11.9402 3.6457V3.64973L11.9422 3.64772ZM1.99298 2.08447C1.99298 2.08447 7.45077 3.51988 10.5924 13.7037C7.62794 12.8088 6.36163 9.8826 5.93181 8.50155H5.93785C5.15328 6.07838 3.80134 3.8781 1.99298 2.08447Z" fill="black"/>
</svg>
