<svg width="30" height="30" viewBox="0 0 30 30" fill="none" xmlns="http://www.w3.org/2000/svg">
<path fill-rule="evenodd" clip-rule="evenodd" d="M26.0033 0.0199763C24.9598 -0.0400238 23.1901 0.00997624 20.4448 0.524643C18.7283 0.845977 17.4137 1.14798 16.4289 1.40464C15.6839 1.59864 15.1875 2.10864 15.0596 2.73264C14.9316 3.35665 15.1842 4.02198 15.7858 4.49931C16.4635 5.03865 17.3564 5.72131 18.5258 6.57465C17.7002 8.29495 16.7341 9.94411 15.6373 11.5053L15.4207 11.3367C15.1102 11.0947 14.6678 10.7527 14.142 10.352C12.9009 9.40238 11.6419 8.47621 10.366 7.57398C9.92398 7.26094 9.3831 7.11986 8.84463 7.17717C8.30615 7.23448 7.80704 7.48625 7.44078 7.88532C3.37953 12.3133 1.04872 16.6107 0.22114 18.284C-0.0407263 18.8127 -0.137344 19.5107 0.313093 20.0593C0.534313 20.3293 0.858148 20.642 1.33124 20.9727C1.67506 21.2127 1.98291 21.382 2.2521 21.5007C3.10033 21.8753 3.8886 21.364 4.3377 20.7507C5.52643 19.126 8.08379 15.694 9.68364 13.9907C10.9856 14.9313 12.7387 16.428 14.098 17.6267C14.5789 16.3637 15.4322 15.2768 16.5446 14.51C17.657 13.7433 18.976 13.3329 20.3269 13.3333C20.9829 13.3328 21.6353 13.4291 22.2632 13.6193L22.591 13.2453L22.5964 13.2387C23.2908 12.4403 23.9933 11.6492 24.704 10.8653C25.5624 11.4345 26.4314 11.9875 27.3106 12.524C27.9663 12.9213 28.6766 12.9273 29.2163 12.592C29.756 12.256 30.0626 11.6153 29.9893 10.8506C29.8906 9.83865 29.7201 8.50265 29.4295 6.78198C28.9664 4.03531 28.4034 2.35998 27.9869 1.40331C27.8193 1.00976 27.5444 0.671334 27.1936 0.426712C26.8428 0.18209 26.4303 0.041142 26.0033 0.0199763ZM24.9911 20C24.9911 21.5933 24.1936 23 22.9755 23.842C24.7726 24.5607 26.1872 25.984 26.8455 27.754C27.1973 28.6987 26.6749 29.7827 25.6701 29.86L25.6022 29.8647C24.3168 29.938 22.571 30 20.3135 30C18.056 30 16.3102 29.9387 15.0256 29.8647L14.9583 29.86C13.9528 29.7827 13.4304 28.6993 13.7822 27.754C14.4425 25.9787 15.8645 24.5513 17.6689 23.8353C17.0095 23.3779 16.4793 22.7579 16.1294 22.0355C15.7795 21.3131 15.6218 20.5125 15.6715 19.7113C15.7213 18.91 15.9768 18.1352 16.4133 17.4616C16.8498 16.788 17.4527 16.2385 18.1635 15.8661C18.8744 15.4938 19.6692 15.3112 20.4712 15.3361C21.2732 15.3609 22.0552 15.5924 22.7417 16.008C23.4282 16.4236 23.9959 17.0094 24.3899 17.7087C24.784 18.408 24.9911 19.1972 24.9911 20Z" fill="#1E1E1E"/>
</svg>
