<svg width="43" height="43" viewBox="0 0 43 43" fill="none" xmlns="http://www.w3.org/2000/svg">
<path fill-rule="evenodd" clip-rule="evenodd" d="M9.53047 4.65406C11.5276 3.7877 13.1139 3.82273 14.3689 4.39287C15.6589 4.97894 16.9393 6.29122 17.965 8.64822C18.3515 9.54644 18.6127 10.3746 18.7486 11.1326C18.9333 12.12 19.822 12.8144 20.8253 12.7571C22.0548 12.6806 23.2111 13.0214 24.259 13.9005C23.7813 14.2084 23.3396 14.5662 22.934 14.9739C21.9147 15.9932 21.2076 17.2354 20.7839 18.6432C20.5815 19.319 20.4418 20.0121 20.3667 20.7135C20.276 21.5396 20.2589 22.3721 20.3157 23.2011C19.7763 23.2011 19.238 23.2043 18.7008 23.2107C18.2994 20.2517 17.5955 16.7895 14.7033 13.4036C14.5354 13.1988 14.3283 13.0296 14.0941 12.9058C13.8599 12.782 13.6034 12.7063 13.3396 12.6829C13.0758 12.6595 12.8099 12.689 12.5576 12.7696C12.3053 12.8503 12.0717 12.9805 11.8703 13.1525C11.669 13.3246 11.504 13.5352 11.3851 13.7718C11.2661 14.0085 11.1956 14.2665 11.1776 14.5307C11.1597 14.795 11.1946 15.0601 11.2804 15.3107C11.3662 15.5613 11.5011 15.7922 11.6773 15.99C13.7095 18.3693 14.3052 20.7104 14.6842 23.2776C11.9192 23.3399 9.15526 23.4397 6.39301 23.577C5.91522 21.2773 6.50131 19.6147 7.74355 18.433C8.09502 18.0986 8.31227 17.6474 8.35451 17.1641C8.39674 16.6808 8.26103 16.1987 7.97289 15.8084C7.46222 15.1024 7.0337 14.3405 6.69561 13.5374C5.66996 11.1804 5.58714 9.35214 6.03945 8.00801C6.47583 6.7021 7.53651 5.5236 9.53047 4.65406ZM39.975 24.4561C40.0918 23.7511 40.1492 23.0175 40.147 22.2552C40.147 19.3471 39.3252 16.7958 37.5001 14.9739C35.6749 13.152 33.1236 12.3271 30.2154 12.3271C29.5784 12.3271 28.9594 12.3674 28.3584 12.4481C26.7499 10.416 24.6827 9.13555 22.2746 8.83296C22.0901 8.23012 21.8699 7.63877 21.6153 7.06202C20.3412 4.12851 18.4842 1.88935 16.0156 0.764994C13.512 -0.368917 10.7249 -0.203289 7.94741 1.00388C5.16669 2.20786 3.14088 4.13169 2.26493 6.73714C1.40173 9.30755 1.76804 12.1933 3.04213 15.1236C3.30332 15.7182 3.58575 16.282 3.88941 16.8149C2.28405 19.0318 1.89863 21.7583 2.55798 24.6631C1.72077 25.076 1.02947 25.7345 0.576422 26.5506C0.12337 27.3668 -0.0698655 28.3017 0.0225238 29.2306C0.449346 33.4573 1.44314 37.1457 4.87046 39.6206C8.15445 41.9903 13.3782 43 21.5006 43C29.623 43 34.8436 41.9935 38.1308 39.6206C41.5581 37.1489 42.5519 33.4605 42.9787 29.2338C43.0766 28.2174 42.835 27.1973 42.2915 26.3328C41.748 25.4684 40.9334 24.8084 39.975 24.4561ZM24.31 23.2139C28.2371 23.25 32.1631 23.3626 36.0858 23.5515C36.1389 23.1544 36.1655 22.7223 36.1655 22.2552C36.1655 20.0797 35.5603 18.6655 34.6843 17.7896C33.8084 16.9137 32.391 16.3085 30.2154 16.3085C29.3809 16.3127 28.6525 16.3956 28.0304 16.5569L27.9858 16.5697C27.7535 16.631 27.5248 16.7055 27.3009 16.7926C26.8762 16.9625 26.5046 17.1674 26.1861 17.4074C25.6342 17.8202 25.1941 18.3644 24.9056 18.9904C24.5107 19.809 24.2686 20.8792 24.2686 22.2552C24.2686 22.5928 24.2824 22.9145 24.31 23.2139Z" fill="#1E1E1E"/>
</svg>
