<svg width="102" height="95" viewBox="0 0 102 95" fill="none" xmlns="http://www.w3.org/2000/svg">
<path fill-rule="evenodd" clip-rule="evenodd" d="M45.3184 4.01906C45.3077 6.49451 45.2201 7.84808 45.0905 7.54345C44.9749 7.27131 44.8721 5.69728 44.8626 4.04573C44.8452 1.01018 44.6796 0.481337 43.898 0.968926C43.272 1.35941 43.6457 9.50839 44.2944 9.60132C44.7556 9.66717 44.8221 9.78927 44.6986 10.3431C44.2754 12.2455 44.0693 12.8611 43.8559 12.8611C43.7262 12.8611 43.6201 13.3062 43.6201 13.8504V14.8394H44.7056H45.7908L46.0798 13.4345C46.3949 11.903 46.6307 12.0022 46.9222 13.7883L47.094 14.8394H48.2976H49.5017V13.9096C49.5017 13.2682 49.3588 12.8902 49.0417 12.6902C48.789 12.531 48.5074 11.9755 48.4161 11.4558C48.3249 10.9366 48.1936 10.3164 48.1242 10.0785C48.0272 9.74593 48.1436 9.64591 48.6272 9.64591H49.2564V5.33221C49.2564 1.05186 49.1718 0.600525 48.4211 0.891411C48.0895 1.01977 48.0313 1.57737 48.0313 4.61667C48.0313 6.93667 47.945 8.13731 47.786 8.03812C47.6394 7.94644 47.5412 6.30447 47.5412 3.9428V0H46.4383H45.3358L45.3184 4.01906ZM52.9323 0.234626C52.9323 0.363399 52.3533 0.502591 51.6456 0.543432L50.3593 0.618446L50.2912 4.14283L50.2231 7.66722H54.1578H58.0921L58.024 4.14283L57.9558 0.618446L56.6696 0.543432C55.9619 0.502591 55.3829 0.363399 55.3829 0.234626C55.3829 0.105436 54.8317 0 54.1578 0C53.4839 0 52.9323 0.105436 52.9323 0.234626ZM55.3829 2.84426C55.3829 3.12473 55.0836 3.21516 54.1578 3.21516C53.232 3.21516 52.9323 3.12473 52.9323 2.84426C52.9323 2.56421 53.232 2.47336 54.1578 2.47336C55.0836 2.47336 55.3829 2.56421 55.3829 2.84426ZM55.3829 5.4414C55.3829 5.57726 54.8317 5.68853 54.1578 5.68853C53.4839 5.68853 52.9323 5.57726 52.9323 5.4414C52.9323 5.30513 53.4839 5.19385 54.1578 5.19385C54.8317 5.19385 55.3829 5.30513 55.3829 5.4414ZM50.2367 9.27459V10.1406H51.5845C52.3257 10.1406 52.9323 10.2519 52.9323 10.3877C52.9323 10.5236 52.3257 10.6348 51.5845 10.6348H50.2367V11.4879C50.2367 12.3401 50.2371 12.3406 51.504 12.4152C53.32 12.5223 53.346 13.0628 51.5395 13.1574C50.1281 13.2311 50.1133 13.2399 50.0373 14.0359L49.9605 14.8394H54.1421H58.3238V13.9863V13.1328L56.9145 13.0586C55.1513 12.9661 55.0654 12.5156 56.7918 12.4152L58.0785 12.3406V11.4879V10.6348H56.7307C54.9428 10.6348 54.9936 10.1856 56.7918 10.091C58.185 10.0176 58.2019 10.0076 58.2779 9.21292L58.3547 8.40902H54.2957H50.2367V9.27459ZM31.2449 10.4165C30.0317 10.962 28.4494 11.6434 27.7284 11.9309C26.1833 12.5473 26.085 12.7186 26.5842 13.925C27.0166 14.9694 27.3324 15.0344 28.6575 14.3522C29.7563 13.7867 29.7856 13.8087 30.6209 15.8287C30.9302 16.5772 31.3807 17.6344 31.6223 18.1783C31.8642 18.7226 32.2895 19.7065 32.5683 20.3645C32.8466 21.023 33.1592 21.5231 33.2624 21.4764C33.3656 21.4293 33.864 21.2301 34.3694 21.0334C34.8748 20.8371 35.2882 20.5933 35.2882 20.492C35.2882 20.2728 33.8958 16.791 32.9907 14.7468C32.1632 12.8777 32.1401 12.9753 33.589 12.2343C34.272 11.8851 34.7951 11.5217 34.7518 11.4262C34.7084 11.3312 34.5135 10.8361 34.319 10.326C33.8875 9.19708 33.9615 9.19458 31.2449 10.4165ZM68.6158 14.7456C66.0751 20.3508 66.1713 19.9003 67.3836 20.5245C68.608 21.1547 68.6641 21.1234 69.3496 19.4193C69.9652 17.8878 69.9252 17.9087 71.206 18.4488C72.6546 19.0597 74.137 18.9918 74.893 18.2796C76.5253 16.7418 77.013 14.2559 75.9472 12.9086C75.4368 12.2635 71.5409 10.1297 70.9021 10.1456C70.7902 10.1481 69.7617 12.2185 68.6158 14.7456ZM73.4371 14.1955C74.789 15.369 73.5238 16.796 71.7784 16.0667C70.9315 15.7124 70.9447 15.8029 71.5616 14.5822C72.1347 13.4491 72.4923 13.3753 73.4371 14.1955ZM19.8016 16.828C16.1526 18.773 16.8298 24.4403 20.9425 26.3731C25.2005 28.3743 28.9354 24.1369 26.8662 19.6523C25.5635 16.8285 22.2704 15.5124 19.8016 16.828ZM79.5351 17.5719C74.4892 20.1124 75.4137 27.6608 80.7561 27.5433C83.7295 27.4775 86.2409 24.7799 86.2545 21.6372C86.2698 18.152 82.6869 15.9846 79.5351 17.5719ZM23.0282 19.1639C25.5812 20.4962 25.163 24.2773 22.5025 23.9172C20.0134 23.5801 19.0051 20.2883 21.0474 19.1676C21.8703 18.7163 22.1697 18.7159 23.0282 19.1639ZM82.9062 20.1361C85.1413 22.2265 81.9903 26.0693 79.6622 24.0923C78.6778 23.2563 78.6349 22.0494 79.5466 20.8429C80.6078 19.4389 81.8755 19.1722 82.9062 20.1361ZM54.5513 21.268C51.084 23.0071 50.3106 25.6821 52.3232 28.9744C52.8839 29.8921 53.1775 30.6776 53.1775 31.2619V32.1525H51.5907H50.0038L50.2429 31.5178C50.8098 30.0125 50.4969 28.591 49.4811 28.0609C48.801 27.7058 48.7882 27.6617 48.929 26.1414C49.1148 24.1323 48.4554 23.1663 46.8813 23.1409C46.1513 23.1288 45.6863 22.9291 45.0269 22.3449C42.7686 20.3433 39.6994 21.5922 39.6994 24.5128C39.6994 25.2246 39.5334 25.9947 39.3042 26.3477C38.7621 27.1828 39.0214 28.371 40.0091 29.577C41.0963 30.9039 41.2107 33.4644 40.1879 33.5848C39.6395 33.6498 39.4607 33.4277 38.5156 31.504C36.119 26.6269 32.8606 25.5942 32.2681 29.5241C32.0843 30.741 32.01 30.8043 31.3287 30.3226C30.4108 29.6737 29.4586 29.825 28.5245 30.7672C27.1784 32.1262 27.4402 33.2385 29.5829 35.2614C30.6622 36.2807 30.6205 36.4258 28.9135 37.5955C27.6037 38.4932 25.4859 40.7782 25.4859 41.2937C25.4859 41.4 24.6262 41.5371 23.5757 41.5988C20.1443 41.7992 19.5439 42.5814 19.5047 46.9056C19.4721 50.512 19.6373 50.6512 24.985 51.5268L26.8122 51.826L28.0707 54.3423C30.1064 58.4131 32.5678 61.1552 35.9621 63.1331C38.1481 64.4066 38.2501 64.5909 37.6162 66.1211C37.4143 66.6095 37.2487 67.458 37.2487 68.0065C37.2487 69.4484 36.9105 69.2421 35.9426 67.2105C34.5614 64.3116 32.75 62.8822 30.1374 62.6288C28.5786 62.4775 28.3891 62.8739 29.4743 64.0178C30.931 65.5531 31.2131 66.3628 30.9897 68.3711C30.3331 74.2776 33.1918 76.5718 40.7408 76.1975C40.9873 76.185 41.1698 75.9812 41.1698 75.7179C41.1698 75.3149 40.8948 75.2419 38.9029 75.1148C33.6832 74.7814 31.5521 72.7798 32.1644 68.7858C32.3812 67.3722 32.3589 66.8238 32.0385 65.6865C31.6078 64.1579 31.7044 64.0441 32.7433 64.8588C33.8652 65.7386 34.2654 66.3091 34.8307 67.8373C35.7775 70.3961 39.7238 72.684 39.0775 70.2998C38.4342 67.9277 38.6873 66.3966 40.0681 64.3025C41.6794 61.8591 42.006 60.9139 41.8309 59.202C41.6773 57.6975 41.8776 57.4354 42.7434 58.008C44.4158 59.1136 44.7312 61.6778 43.5181 64.3045C42.1476 67.2717 43.3244 70.2402 45.8709 70.2402C48.3815 70.2402 49.1156 68.857 48.8761 64.5767C48.6738 60.9552 49.2383 59.8925 51.9652 58.7635C53.2514 58.2305 53.4426 58.4839 53.0194 60.1609C52.6639 61.5703 52.6676 61.5999 53.5318 64.1262C54.1615 65.9661 54.4027 67.0921 54.4027 68.1907C54.4027 69.9377 54.7648 70.4877 55.9152 70.4877C57.5991 70.4877 58.8077 68.3228 58.8147 65.2939C58.8193 63.3219 59.5551 61.5691 60.8665 60.4072C62.3047 59.1328 62.6982 59.3941 62.0826 61.2169C61.7473 62.2104 61.7237 62.7634 61.9323 64.7417C62.1296 66.61 62.1061 67.4593 61.8171 68.9079C61.3707 71.1458 61.4735 71.4771 62.614 71.4771C64.3788 71.4771 66.0776 70.0714 66.5314 68.2361C66.7172 67.4851 68.3718 65.6748 68.6092 65.9632C69.0122 66.452 68.5022 72.173 67.9923 72.8823C67.235 73.9359 64.9974 74.9631 62.9716 75.1878C61.0874 75.3966 60.8909 75.482 61.0912 76.0092C61.58 77.294 66.4331 76.1967 68.3387 74.3701C69.5622 73.1978 69.8413 72.3152 69.8413 69.6138C69.8413 67.1121 69.9516 66.7396 71.1474 65.2001C71.8514 64.2941 71.868 64.2233 71.4493 63.9141C70.0218 62.8605 66.4781 65.133 65.3422 67.8302C64.1571 70.6444 62.709 71.012 63.19 68.3765C63.3519 67.4889 63.4138 66.2241 63.3275 65.5656L63.1698 64.3687L65.1861 63.2852C68.8553 61.3144 72.2218 57.6254 74.1939 53.4147L74.9504 51.7998L77.7021 51.361C82.2921 50.6292 82.7455 50.1103 82.3644 46.0237C82.0221 42.3514 81.4952 41.8034 78.1117 41.6009C76.7631 41.52 76.2127 41.3929 76.2127 41.162C76.2127 40.9832 75.5941 40.1627 74.8385 39.3388C74.0829 38.5149 73.615 37.8406 73.7996 37.8406C75.4199 37.8406 76.0574 34.8413 74.5879 34.1308C74.0453 33.8686 73.7583 33.509 73.6076 32.9022C73.2066 31.289 71.1507 30.9631 70.6866 32.4392C70.5838 32.7663 70.3034 32.8943 69.691 32.8943C68.7149 32.8943 67.6355 33.7974 67.6355 34.6142C67.6355 35.2439 67.6719 35.246 65.9442 34.5121C64.743 34.002 61.9063 33.2118 59.6046 32.7472C59.1418 32.6538 59.0901 32.5555 59.2983 32.1625C60.0233 30.7956 59.3482 27.5708 58.1751 26.7948C57.1379 26.1089 56.7799 26.8015 57.583 27.9401C58.0364 28.5827 58.401 32.1566 58.0496 32.5113C57.4467 33.1197 56.874 32.2675 56.9995 30.9502C57.1028 29.8746 56.9888 29.0786 56.5032 27.4712C55.75 24.9804 55.7182 23.7401 56.3711 22.2878C57.1915 20.4629 56.7026 20.1891 54.5513 21.268ZM12.0333 23.3809C11.0679 24.4907 11.039 24.3944 12.758 25.8042C14.342 27.1032 14.3391 27.0728 13.0375 28.5556C12.1299 29.5895 12.2757 29.6249 10.2074 27.8671L9.09375 26.9207L8.35255 27.7433C7.31943 28.8902 7.24221 28.7644 10.8437 31.8208C12.6296 33.3364 14.4217 34.8659 14.8259 35.2193C15.762 36.0369 15.7731 36.0353 16.5854 34.9605L17.2671 34.0587L15.8268 32.7584L14.3866 31.4586L15.3098 30.3213C16.4375 28.9327 16.3116 28.9315 18.0256 30.3409L19.4324 31.4974L20.1311 30.7081C21.0321 29.6904 21.0115 29.3828 19.9899 28.5964C19.5274 28.2405 17.7556 26.7248 16.0523 25.2279C12.4405 22.0544 12.974 22.2994 12.0333 23.3809ZM44.1965 23.0529C44.3761 23.2342 44.6557 23.6326 44.8176 23.9381C45.0661 24.4065 45.2965 24.4869 46.2892 24.4515C47.9334 24.3927 48.1222 24.5653 47.9169 25.9397C47.575 28.228 47.6151 28.5293 48.3063 28.8669C49.4794 29.4403 49.6025 29.7812 49.1227 31.1281C48.5995 32.5959 48.7411 33.0531 49.8655 33.5269C50.9515 33.9849 51.0283 35.0743 50.1145 37.0555C49.1895 39.0608 48.8972 38.7903 47.6205 34.7492C45.6583 28.5372 43.6473 23.9506 42.8153 23.7889C42.11 23.6518 42.3128 24.5553 43.6519 27.5171C44.3435 29.0461 45.498 32.1337 46.2182 34.3783L47.5271 38.459L46.9829 38.8862C46.2161 39.488 46.1438 39.4621 44.9373 38.1498C43.6114 36.7079 43.4244 36.0844 43.9958 35.0134C44.5289 34.0145 44.3526 33.4506 43.4471 33.2577C42.2958 33.0126 42.0303 32.7568 41.9511 31.8162C41.897 31.1736 41.9857 30.8689 42.2574 30.7635C42.843 30.5368 42.7141 29.9842 41.9659 29.5153C40.1392 28.3705 39.7411 27.4445 40.6991 26.5698C41.1991 26.1131 41.2243 25.5484 40.7949 24.4286C40.3002 23.1383 43.1423 21.989 44.1965 23.0529ZM54.6475 24.176C54.6475 24.9816 54.9234 26.544 55.2834 27.78C56.0337 30.3526 55.9177 32.2758 55.013 32.2758C54.6112 32.2758 54.4985 32.0579 54.3734 31.0394C54.285 30.318 53.851 29.1244 53.332 28.1747C52.286 26.2606 52.1907 25.1283 52.988 24.0856C54.2953 22.3757 54.6479 22.3949 54.6475 24.176ZM89.7094 24.136C88.7717 24.9328 88.7733 25.0274 89.7511 26.2552L90.5464 27.2541L89.9101 27.7867C89.5599 28.0792 88.1544 29.2424 86.7864 30.3713C83.9422 32.7188 84.111 32.43 84.9414 33.529C85.7958 34.6596 85.6876 34.6992 88.8014 32.115C90.3015 30.8697 91.6791 29.7329 91.8624 29.5883C92.1188 29.3861 92.4116 29.5804 93.1296 30.4297L94.0637 31.534L94.7375 31.0269C96.0135 30.0675 96.0102 29.8646 94.6959 28.2847C94.0323 27.4875 93.4298 26.779 93.3572 26.7111C93.2845 26.6432 92.6895 25.8918 92.0346 25.0416C90.6695 23.2696 90.7112 23.2859 89.7094 24.136ZM64.5006 24.9028C64.3751 25.1491 64.1996 25.6592 64.1104 26.0364C63.9907 26.5406 63.6422 26.8682 62.7899 27.2766C61.4343 27.9263 61.3088 28.4501 62.4377 28.7452C63.3403 28.9815 64.0687 29.9825 64.3198 31.3311C64.5469 32.5534 65.1943 32.3317 65.5321 30.9156C65.7733 29.905 65.9161 29.7458 67.0835 29.1844C68.6166 28.4472 68.6422 28.3451 67.4518 27.7317C66.2721 27.1241 65.7695 26.5473 65.5011 25.4913C65.2513 24.509 64.8277 24.2598 64.5006 24.9028ZM35.6305 28.999C37.1087 30.3372 41.1814 39.5984 40.1094 39.1833C39.2605 38.8545 33.3276 30.3484 33.3276 29.4603C33.3276 28.3755 34.6494 28.1105 35.6305 28.999ZM34.3108 34.8676C38.0362 38.5895 38.2294 38.9016 37.0782 39.3434C36.543 39.5484 36.2887 39.428 35.0801 38.394C34.3186 37.7427 33.1703 36.7862 32.5282 36.2695C29.3595 33.7169 28.3804 32.2975 29.2108 31.4599C29.9421 30.7218 30.6036 31.164 34.3108 34.8676ZM72.4973 33.7969C72.418 34.7267 72.7698 35.1101 73.7088 35.1163C74.3228 35.1205 74.7819 35.8902 74.2724 36.0615C72.6694 36.6008 71.8089 38.3782 72.8049 39.0937C73.7736 39.7901 73.7269 40.4665 72.6789 40.9082C71.4959 41.4071 71.1738 42.111 71.5715 43.3278C71.9728 44.5547 71.5909 45.0144 70.021 45.1928C68.4787 45.3682 68.4808 45.3344 70.2497 40.8374C71.8052 36.8825 71.9431 36.0594 70.9868 36.4295C70.6854 36.5462 70.0499 38.041 67.8362 43.8383C67.4881 44.7493 67.0009 44.6952 66.0107 43.6354C64.9871 42.5398 64.947 42.0451 65.8823 42.0451C67.1124 42.0451 67.5249 41.2912 67.1524 39.7239C66.7746 38.1348 66.9084 37.8406 68.0092 37.8406C69.1452 37.8406 69.452 37.2384 69.0626 35.7698C68.6926 34.3737 69.0374 33.7753 69.9987 34.1441C70.9628 34.5142 71.2465 34.4262 71.427 33.7007C71.7614 32.355 72.6137 32.4317 72.4973 33.7969ZM57.7597 33.5236C62.8068 34.1903 68.4069 36.0165 67.3151 36.6395C66.9823 36.8292 66.4926 36.7396 65.3546 36.2811C62.2523 35.0309 58.8065 34.3379 53.9736 33.9928C52.2757 33.8715 51.7071 33.7444 51.7071 33.4865C51.7071 33.016 54.0265 33.0306 57.7597 33.5236ZM42.6398 34.7359C42.6398 35.0843 41.6129 35.6148 40.9394 35.6148C40.4257 35.6148 40.0797 34.9705 40.4645 34.7304C41.3713 34.1649 42.6398 34.1678 42.6398 34.7359ZM54.1169 35.0593C53.9022 35.5485 51.2459 37.8406 51.1237 37.6414C50.9568 37.3688 51.7051 35.3197 52.0655 35.0622C52.4012 34.8221 54.2218 34.8196 54.1169 35.0593ZM57.4537 35.699C57.8737 36.009 57.8406 36.0769 56.9496 36.735C56.4247 37.1221 55.5337 37.8798 54.9692 38.4182C53.9893 39.3534 52.4421 39.4563 52.4421 38.5866C52.4421 37.3901 56.5437 35.0272 57.4537 35.699ZM61.0193 36.4512C61.0193 36.6391 60.6056 37.1105 60.1001 37.4993C59.5947 37.8877 58.4224 38.9079 57.495 39.7664C55.7389 41.3917 54.9506 41.6513 55.0972 40.5553C55.3065 38.9937 61.0193 35.0347 61.0193 36.4512ZM42.7203 37.1759C42.9611 37.6264 43.5924 38.4753 44.1243 39.0621C45.1413 40.1852 45.266 40.5327 44.8151 40.9878C44.1994 41.6092 43.0193 40.6161 42.0683 38.6762C40.9695 36.4349 40.9613 36.6529 42.1554 36.3853C42.2256 36.3699 42.48 36.7254 42.7203 37.1759ZM64.9379 37.0921C65.3723 37.3693 65.357 37.3851 63.1516 38.9129C60.3454 40.8566 58.1066 40.5423 60.5903 38.5532C62.55 36.9842 64.0031 36.4958 64.9379 37.0921ZM32.2986 37.6431C32.7495 38.0981 32.6859 38.1911 31.3097 39.0912C28.0666 41.212 27.3081 43.2312 28.7 46.0404C31.6685 52.0327 52.708 54.7603 65.4231 50.8008C71.3341 48.9605 74.151 46.2659 73.6547 42.9269C73.5085 41.9426 74.0139 41.0562 74.7212 41.0562C75.6235 41.0562 75.7065 44.6997 74.8443 46.4459C69.0766 58.1276 27.707 56.5606 26.3088 44.6072C25.9314 41.3816 30.6114 35.9402 32.2986 37.6431ZM65.9165 39.8539C65.9223 40.4527 63.7846 41.4225 63.3189 41.0324C62.8729 40.6586 63.413 39.9876 64.6947 39.3234C65.5887 38.8604 65.9087 38.9991 65.9165 39.8539ZM34.7435 39.7097C35.5933 40.3102 35.4612 40.9053 34.5197 40.7153C31.0116 40.0072 29.0613 43.7971 32.1141 45.3903C33.198 45.9558 37.4444 45.2111 38.5519 44.2609C38.8942 43.9675 38.0832 42.4073 37.2438 41.7442L36.4448 41.1129L37.0794 40.6932C38.0812 40.0306 40.1606 40.1206 41.7277 40.8945C44.5987 42.3122 44.7791 43.7079 42.2723 45.104C40.7742 45.9383 39.2093 47.6507 39.2093 48.4554C39.2093 49.9553 45.8874 51.2022 48.0036 50.0978C50.5898 48.748 49.6739 45.5807 46.4222 44.6268C44.6268 44.1001 44.5962 42.9465 46.3255 40.9591C49.0512 37.826 55.546 39.9189 53.2275 43.1828C51.5081 45.6037 51.1864 47.0868 52.4124 46.9435C52.9603 46.8793 53.0743 46.7218 53.1866 45.8712C53.6078 42.6886 58.6999 40.3077 61.9253 41.7855C62.491 42.0447 63.6632 42.9228 64.5304 43.7371C66.7027 45.7766 67.3655 46.0833 69.6559 46.1067C71.8044 46.1288 71.8597 46.1733 70.7646 47.0072C60.6807 54.6841 29.5362 52.1598 29.3669 43.6516C29.3194 41.2595 33.0584 38.5182 34.7435 39.7097ZM7.51804 40.3294C7.11957 40.799 6.84828 40.8349 4.07057 40.7857C2.41228 40.7565 0.953434 40.7961 0.829145 40.8741C0.704031 40.952 0.577677 43.4833 0.547534 46.5251C0.514913 49.8103 0.393513 52.1348 0.246513 52.2832C0.111076 52.4199 0 53.0104 0 53.5955V54.6586H1.22555H2.45068V48.6613V42.6635H8.6383H14.8259V41.798V40.9324L12.988 40.8699C10.6707 40.7907 10.0476 40.6457 10.0476 40.1856C10.0476 39.5834 8.05484 39.6968 7.51804 40.3294ZM89.3745 40.3148C89.2701 40.7174 89.0698 40.7986 88.3047 40.7474L87.3628 40.6849L87.2881 41.8597L87.2133 43.0344H90.6711H94.1285L94.0542 41.8597L93.9794 40.6849L93.0425 40.7674C92.2629 40.8357 92.0837 40.7632 91.9726 40.3344C91.7786 39.5851 89.5678 39.5684 89.3745 40.3148ZM97.1312 40.1902C97.0321 40.4502 96.6308 40.5615 95.7909 40.5615H94.5918V41.6742V42.7873H95.8173C96.7431 42.7873 97.0425 42.8778 97.0425 43.1582C97.0425 43.4316 96.7596 43.5291 95.966 43.5291C94.6141 43.5291 94.5918 43.5866 94.5918 47.1227V49.9336L95.8784 50.0086L97.1651 50.0832L97.2357 52.2474L97.3067 54.4115H98.3997H99.4931V52.1857V49.9594H100.726H101.958L101.89 46.8064L101.821 43.6529L100.718 43.6341C99.8916 43.62 99.596 43.5116 99.5365 43.2011C99.4709 42.8582 99.6699 42.7873 100.701 42.7873H101.944V41.6742V40.5615H100.718C99.7925 40.5615 99.4931 40.4706 99.4931 40.1902C99.4931 39.9151 99.2062 39.8193 98.3828 39.8193C97.6218 39.8193 97.2279 39.936 97.1312 40.1902ZM47.6919 42.1601C47.2038 42.9119 47.1939 43.1895 47.6481 43.3653C48.1292 43.5516 49.2564 42.614 49.2564 42.0272C49.2564 41.3129 48.1828 41.4037 47.6919 42.1601ZM36.1446 42.5044C37.1967 43.1245 37.0596 43.565 35.6557 44.073C33.5395 44.8389 31.6124 44.2805 31.6124 42.9011C31.6124 41.893 34.6556 41.6267 36.1446 42.5044ZM58.0434 42.636C55.9903 43.3766 54.7454 44.4685 55.3074 45.0361C55.5188 45.2494 55.8735 45.1132 56.7394 44.4864C57.7878 43.7267 58.0442 43.6529 59.6348 43.6529C61.0548 43.6529 61.3942 43.5775 61.457 43.2487C61.6127 42.4352 59.6017 42.0743 58.0434 42.636ZM39.7151 42.7723C39.1882 43.1086 39.8295 43.7767 40.6797 43.7767C41.4093 43.7767 42.0448 43.2157 41.7888 42.7982C41.5951 42.4818 40.1974 42.4643 39.7151 42.7723ZM50.8875 42.9924C50.3329 43.6108 50.3693 44.2713 50.9581 44.2713C51.4482 44.2713 52.1973 43.4158 52.1973 42.8557C52.1973 42.386 51.352 42.4739 50.8875 42.9924ZM24.5056 43.1265C24.5056 43.3287 24.1261 43.527 23.567 43.6175C20.5915 44.0976 21.0994 47.4594 24.2372 48.0545C25.888 48.3675 26.96 49.5602 26.2419 50.2849C25.7819 50.7492 21.5321 49.8457 20.9871 49.1681C20.4193 48.4621 20.4858 44.3693 21.0767 43.6508C21.7696 42.8082 24.5056 42.3902 24.5056 43.1265ZM80.638 43.4858C81.7743 44.9019 81.4708 48.9901 80.1776 49.6886C79.6734 49.9607 75.5066 50.5658 75.334 50.392C74.7142 49.7665 75.9323 48.3596 77.3156 48.1029C79.8258 47.6374 80.3217 47.1152 80.0116 45.2644C79.8064 44.0367 79.3567 43.6696 78.0262 43.6446C76.8304 43.6216 76.4159 43.3762 76.9551 43.0103C77.6228 42.5569 80.1553 42.884 80.638 43.4858ZM4.90137 44.3947C4.90137 44.9527 4.80433 45.0131 3.90623 45.0131H2.91109L2.98707 45.9408C3.05933 46.8176 3.11342 46.8722 3.98221 46.9447L4.90137 47.0214V50.84V54.6586L5.82011 54.6591H6.73927V50.8871V47.1156L7.65802 47.0385C8.55158 46.9639 8.57718 46.9347 8.57718 45.9875C8.57718 44.9965 8.48304 44.9165 7.42183 45.0023C7.02584 45.0344 6.83672 44.8748 6.72152 44.4114C6.48863 43.4754 4.90137 43.4608 4.90137 44.3947ZM11.2285 44.333C11.1654 44.7818 10.9696 44.9044 10.2173 44.9673C8.78695 45.0861 8.90711 46.8239 10.3536 46.9447L11.2727 47.0214V50.84V54.6586H12.1304H12.988V50.84V47.0214L13.9072 46.9447C15.354 46.8239 15.4738 45.0861 14.0434 44.9673C13.2911 44.9044 13.0954 44.7818 13.0322 44.333C12.969 43.8821 12.7981 43.7767 12.1304 43.7767C11.4631 43.7767 11.2921 43.8821 11.2285 44.333ZM87.9756 44.7889C87.9756 45.3461 87.8422 45.5891 87.4854 45.6837C87.0894 45.7879 86.9953 46.0208 86.9953 46.8968V47.9812H88.0932C89.0599 47.9812 89.2098 48.0549 89.3448 48.5988C89.5996 49.6219 89.3192 49.9594 88.2146 49.9594H87.2133L87.2881 51.1342C87.3591 52.2478 87.4012 52.3111 88.0978 52.3482C88.5025 52.3699 88.9711 52.3978 89.1396 52.4103C89.3357 52.4249 89.4456 52.8325 89.4456 53.5459V54.6586H90.6711H91.8962V53.5739V52.4891L92.9992 52.322L94.1016 52.1553V51.0576V49.9594H92.9843H91.8669L91.9429 49.0322C92.0218 48.0699 92.0313 48.0641 93.5504 48.0095C94.4419 47.9778 94.8647 45.7549 93.9794 45.7549C93.7226 45.7549 93.6119 45.4941 93.6119 44.8894C93.6119 44.0284 93.6057 44.0238 92.509 44.0238C91.4119 44.0238 91.4061 44.0284 91.4061 44.8894C91.4061 45.6478 91.3305 45.7549 90.7937 45.7549C90.257 45.7549 90.181 45.6478 90.181 44.8894C90.181 44.0284 90.1752 44.0238 89.0781 44.0238C88.009 44.0238 87.9756 44.0471 87.9756 44.7889ZM24.897 44.9552C25.2839 45.2169 25.5028 46.3171 25.2501 46.7297C24.9846 47.1631 23.0913 46.6851 22.8812 46.1317C22.5252 45.1957 23.9894 44.3409 24.897 44.9552ZM56.217 46.5367C52.566 48.9568 51.7034 49.6623 51.8677 50.0945C52.0783 50.6487 52.616 50.5241 53.3592 49.749C54.7842 48.2616 55.9255 48.1033 57.1833 49.2176C58.671 50.5362 59.3499 49.7752 57.948 48.3608C56.9062 47.309 56.9029 47.3907 58.0128 46.6297C59.591 45.5474 60.4507 45.8633 59.6715 47.239C58.3981 49.4873 63.6525 50.5587 65.9818 48.5259C67.5055 47.196 64.532 44.5985 62.244 45.2607C61.6081 45.4449 61.2827 45.4149 60.857 45.1336C59.8119 44.4422 59.0125 44.6843 56.217 46.5367ZM78.7926 45.5387C78.983 46.413 78.7001 46.7122 77.6216 46.7776C77.2512 46.8001 76.8102 46.8297 76.6417 46.8435C76.351 46.8668 76.3163 45.847 76.5814 45.0748C76.8342 44.3389 78.6126 44.7118 78.7926 45.5387ZM46.3933 45.8662C48.2258 46.5259 48.853 47.8724 47.7823 48.8501C46.8165 49.7323 42.7154 49.6356 41.1822 48.6946L40.3696 48.1958L41.1818 47.3498C42.7901 45.6753 44.5058 45.1869 46.3933 45.8662ZM97.2279 46.6401C97.3096 47.2606 96.9269 47.8437 96.58 47.6274C96.2802 47.4402 96.2088 46.4317 96.4759 46.1621C96.7567 45.8787 97.1614 46.1358 97.2279 46.6401ZM100.182 46.7872C100.072 47.9212 99.4931 48.0062 99.4931 46.8889C99.4931 46.25 99.6001 46.0025 99.8763 46.0025C100.159 46.0025 100.239 46.2075 100.182 46.7872ZM35.6627 46.5851C34.5387 47.4148 36.1342 48.1229 37.6047 47.4469C38.3516 47.1031 38.3921 46.8501 37.755 46.5059C37.0997 46.1517 36.204 46.1859 35.6627 46.5851ZM64.217 46.6272C65.6502 47.3752 64.9367 48.1395 62.626 48.3325C61.1386 48.4563 60.6683 48.1079 61.1882 47.2673C61.7836 46.3042 63.0752 46.0312 64.217 46.6272ZM44.4719 47.2485C44.2246 47.6532 44.9707 48.3279 45.4572 48.1391C45.6797 48.0533 45.8251 47.7874 45.7801 47.549C45.6851 47.0468 44.73 46.8276 44.4719 47.2485ZM3.33144 49.0322C2.98129 52.9362 3.03249 54.6586 3.49785 54.6586C4.0813 54.6586 4.10236 54.554 4.27744 50.7633C4.42279 47.6232 4.40916 47.4865 3.94958 47.4865C3.53955 47.4865 3.44995 47.7103 3.33144 49.0322ZM7.32727 47.672C7.25584 48.2116 7.38467 52.2394 7.50896 53.3605C7.62664 54.4169 7.73937 54.6586 8.11636 54.6586C8.5491 54.6586 8.61352 49.1626 8.19647 47.7957C8.09572 47.4652 7.36815 47.3615 7.32727 47.672ZM9.70033 48.0429C9.2713 50.1828 9.32994 54.6586 9.78663 54.6586C10.3069 54.6586 10.3986 54.1369 10.6472 49.774C10.7698 47.6182 10.7496 47.4865 10.2945 47.4865C9.99019 47.4865 9.77052 47.6924 9.70033 48.0429ZM13.5995 50.2687C13.8052 54.149 13.9022 54.6586 14.4324 54.6586C14.8354 54.6586 14.8655 54.4365 14.7801 52.1236C14.6327 48.1491 14.5125 47.4865 13.9402 47.4865C13.4728 47.4865 13.4583 47.6049 13.5995 50.2687ZM94.9783 51.8765C94.8903 52.5224 94.7586 53.3572 94.6859 53.7314C94.5645 54.3527 94.617 54.4115 95.2933 54.4115C96.2137 54.4115 96.2195 54.4015 96.4334 52.3711L96.6093 50.7017H95.8735C95.1814 50.7017 95.1282 50.7717 94.9783 51.8765ZM100.092 52.1236C100.342 54.2744 100.411 54.4115 101.253 54.4115H102L101.835 52.9896C101.585 50.8388 101.515 50.7017 100.674 50.7017H99.9267L100.092 52.1236ZM31.8886 54.7207C32.4551 55.5709 33.4593 56.7965 34.1208 57.4441C35.3406 58.6389 35.5595 59.3982 34.7303 59.5595C33.4499 59.8083 29.0762 53.7976 30.2035 53.3388C30.7754 53.1059 30.8584 53.1742 31.8886 54.7207ZM45.4828 65.7681C45.8734 65.8928 46.4965 66.062 46.8673 66.1436C47.4375 66.2695 47.5412 66.4187 47.5412 67.1151C47.5412 69.3713 44.6301 69.3725 44.2106 67.1167C43.9393 65.6556 44.2151 65.3631 45.4828 65.7681ZM57.3848 66.9013C57.1606 68.9508 55.6278 69.5263 55.6278 67.561C55.6278 66.144 55.7426 65.989 56.722 66.0857C57.3906 66.152 57.4579 66.2345 57.3848 66.9013ZM50.3296 71.1904C49.9093 71.688 49.2705 72.6848 48.9108 73.4054C47.9644 75.2995 47.0494 75.3345 44.3555 73.5796C42.1088 72.1164 41.3783 72.9153 43.1572 74.8898C46.4486 78.5425 54.5257 78.7438 58.3382 75.2678C59.9763 73.7742 59.6406 73.4274 57.1812 74.0738C53.595 75.0165 52.0127 74.3718 51.7414 71.8572C51.5527 70.1102 51.331 70.0052 50.3296 71.1904ZM87.8434 82.1315C84.7408 82.5362 82.8293 84.9037 82.8293 88.3414C82.8293 92.9576 86.2747 95.3185 91.3941 94.2104L92.6317 93.9424V90.4905V87.0382L90.6096 87.1103L88.5879 87.182L88.5148 88.3235C88.4442 89.4195 88.4711 89.4708 89.1887 89.6158C90.4391 89.8679 90.2929 91.2644 89.017 91.2594C85.9469 91.2469 84.8266 86.7632 87.5288 85.3033C88.3137 84.8795 90.731 84.9504 91.6733 85.4246C92.1068 85.643 92.4999 85.8218 92.5466 85.8218C93.09 85.8218 92.5458 82.8783 91.9578 82.6366C90.8206 82.169 89.1392 81.9623 87.8434 82.1315ZM9.23042 82.5241C9.14082 82.6149 9.06732 85.3417 9.06732 88.5835V94.4779H10.5377H12.0077V91.3865C12.0077 87.7767 12.0218 87.765 13.6103 90.0234C15.1059 92.1496 15.0823 92.15 16.6572 90.0121C18.3262 87.7467 18.2697 87.6534 18.3527 92.8084L18.3795 94.4779H19.8293C21.6077 94.4779 21.4558 95.0997 21.3728 88.1618L21.3026 82.3361L19.7797 82.4095L18.2569 82.4828L16.8397 84.5853C15.058 87.2287 15.2851 87.2279 13.498 84.5945L11.9809 82.3591H10.6876C9.97616 82.3591 9.32044 82.4332 9.23042 82.5241ZM26.09 82.6212C26.0016 82.765 25.0659 85.4917 24.0109 88.6806L22.0925 94.4779H23.7797H25.4673L25.734 93.4777L26.0008 92.4776L27.6425 92.5505L29.2843 92.623L29.5114 93.5507L29.7385 94.4779H31.5331C32.5204 94.4779 33.3272 94.3946 33.326 94.2925C33.3251 94.1908 32.7074 92.3263 31.9534 90.1501C31.199 87.9734 30.2943 85.33 29.9425 84.2761L29.3029 82.3591H27.7763C26.9369 82.3591 26.1779 82.477 26.09 82.6212ZM34.4859 82.5095C34.4037 82.592 34.3277 85.3188 34.317 88.5689L34.2972 94.4779H38.2356H42.1744L42.1009 93.056L42.0274 91.6337L39.8831 91.5624L37.7389 91.4911V86.9249V82.3591H36.1867C35.3332 82.3591 34.5676 82.427 34.4859 82.5095ZM44.723 88.1993C43.6449 91.4094 42.7257 94.1354 42.6807 94.257C42.6357 94.3787 43.3756 94.4779 44.3249 94.4779H46.0509L46.3449 93.489C46.622 92.5551 46.769 92.4376 47.6638 92.4376C49.9365 92.4376 49.9382 92.4384 50.1141 93.489L50.2797 94.4779H52.1143C53.4604 94.4779 53.9274 94.3958 53.8692 94.1691C53.8258 93.9991 52.9219 91.2723 51.8607 88.1097L49.932 82.3591L48.3076 82.3607L46.6835 82.3624L44.723 88.1993ZM54.8928 88.4185V94.4779H56.3632H57.8336V92.2521C57.8336 89.8758 57.8906 89.7875 59.0418 90.3884C60.065 90.9223 60.9863 92.1479 61.2951 93.3861L61.5677 94.4779H63.1628H64.7579L64.5973 93.4661C64.3652 91.9995 63.6009 90.6393 62.3064 89.3874L61.1704 88.2889L62.0491 87.3646C63.1161 86.2419 63.8416 84.822 64.0766 83.3972L64.2525 82.3332L62.8456 82.4078L61.4388 82.4828L61.1448 83.4918C60.7782 84.7495 59.9887 85.8464 59.046 86.4085C57.9959 87.0345 57.8336 86.7715 57.8336 84.4469V82.3591H56.3632H54.8928V88.4185ZM65.8385 82.5241C65.7489 82.6149 65.6754 85.3417 65.6754 88.5835V94.4779H67.268H68.8611V88.4185V82.3591H67.4315C66.6453 82.3591 65.9285 82.4332 65.8385 82.5241ZM70.7502 82.5137C70.6544 82.6099 70.5763 85.3417 70.5763 88.5835V94.4779H72.1694H73.762V91.3865C73.762 87.8017 73.7773 87.7863 75.2324 89.9179C75.839 90.8064 76.8185 92.2008 77.4089 93.0168L78.4825 94.5L79.9818 94.4271L81.4816 94.3546V88.4185V82.4828L79.9496 82.4091L78.4181 82.3357L78.3954 84.3878C78.3826 85.5167 78.3735 86.9191 78.3748 87.505C78.3777 89.0019 78.1373 88.8056 75.8436 85.4388L73.8293 82.4828L72.3767 82.4107C71.5777 82.3707 70.8456 82.417 70.7502 82.5137ZM48.7362 87.4108C49.2052 89.2907 49.1359 89.5316 48.1275 89.5316C47.5209 89.5316 47.2806 89.4345 47.3611 89.2224C47.4255 89.0523 47.6196 88.2772 47.7918 87.4996C48.1515 85.878 48.3493 85.8593 48.7362 87.4108ZM28.2438 87.7896C28.6534 89.4308 28.6216 89.5316 27.6917 89.5316C26.7577 89.5316 26.725 89.4249 27.1598 87.7884C27.6475 85.9505 27.785 85.9505 28.2438 87.7896Z" fill="white"/>
</svg>
