<svg width="69" height="67" viewBox="0 0 69 67" fill="none" xmlns="http://www.w3.org/2000/svg">
<path fill-rule="evenodd" clip-rule="evenodd" d="M34.8746 2.66602C34.6331 4.30808 34.4469 5.19824 34.3896 4.98376C34.3387 4.79218 34.4194 3.73768 34.5695 2.64056C34.8454 0.624073 34.7856 0.257374 34.2206 0.507006C33.7681 0.706925 33.2446 6.15119 33.6664 6.2743C33.9663 6.36167 33.9989 6.44901 33.8645 6.80494C33.4034 8.02761 33.2084 8.41666 33.0667 8.39644C32.9806 8.38417 32.8681 8.66954 32.8165 9.0308L32.7229 9.6872L33.4434 9.78998L34.1637 9.89272L34.4886 8.98763C34.8427 8.0009 34.9898 8.08906 35.0142 9.30222L35.0287 10.0161L35.8276 10.1301L36.6268 10.2441L36.7149 9.62694C36.7756 9.20123 36.7165 8.93682 36.525 8.77402C36.3723 8.64443 36.238 8.24904 36.2266 7.89546C36.2152 7.54216 36.1868 7.11813 36.1633 6.95362C36.1303 6.72369 36.2171 6.66833 36.5381 6.71411L36.9557 6.77369L37.3642 3.91047C37.7694 1.06938 37.756 0.761794 37.2301 0.883796C36.9979 0.9376 36.9065 1.3022 36.6187 3.31953C36.3991 4.85944 36.2281 5.64819 36.132 5.5673C36.0434 5.49257 36.1336 4.39341 36.3572 2.82584L36.7305 0.20881L35.9984 0.104389L35.2666 6.99672e-06L34.8746 2.66602ZM40.2866 0.874961C40.2744 0.960434 39.877 0.998013 39.4034 0.958113L38.5425 0.886124L38.1636 3.21899L37.7847 5.55185L40.3964 5.92439L43.0078 6.29688L43.2962 3.95111L43.5847 1.60534L42.738 1.43378C42.2721 1.33966 41.9011 1.19246 41.9133 1.10699C41.9255 1.02124 41.5696 0.899062 41.1223 0.83526C40.675 0.771458 40.2988 0.789211 40.2866 0.874961ZM41.6662 2.83914C41.6396 3.0253 41.4324 3.05698 40.8179 2.96933C40.2034 2.88168 40.013 2.79327 40.0395 2.60711C40.066 2.42123 40.2736 2.38931 40.8881 2.47696C41.5026 2.56461 41.6927 2.65325 41.6662 2.83914ZM41.4203 4.56299C41.4074 4.65316 41.031 4.67483 40.5837 4.61103C40.1364 4.54722 39.7808 4.42114 39.7936 4.33096C39.8065 4.24051 40.1832 4.21888 40.6305 4.28269C41.0778 4.34649 41.4332 4.47254 41.4203 4.56299ZM37.6416 6.62004L37.5596 7.19484L38.4542 7.32245C38.9461 7.39262 39.3382 7.52391 39.3253 7.61408C39.3125 7.70426 38.8993 7.72068 38.4074 7.65051L37.5128 7.5229L37.432 8.08913C37.3513 8.65481 37.3515 8.65512 38.1854 8.82458C39.3806 9.0676 39.3467 9.42883 38.1387 9.32059C37.1949 9.23592 37.1842 9.24032 37.0584 9.76146L36.9313 10.2875L39.7069 10.6834L42.4825 11.0793L42.5632 10.5131L42.6441 9.94659L41.7157 9.76392C40.5541 9.53558 40.5398 9.22843 41.6952 9.32522L42.5563 9.39752L42.637 8.83157L42.7178 8.26535L41.8232 8.13774C40.6364 7.96846 40.7127 7.67508 41.9152 7.78255C42.8469 7.86577 42.8591 7.86073 42.9848 7.34043L43.1118 6.81411L40.4177 6.42981L37.7235 6.04552L37.6416 6.62004ZM24.9276 5.57985C24.0707 5.82708 22.9559 6.12953 22.4502 6.25213C21.3662 6.51495 21.2848 6.61934 21.5019 7.46739C21.69 8.20152 21.8935 8.27458 22.8376 7.94722C23.6205 7.67588 23.6378 7.69332 24.001 9.11315C24.1354 9.63923 24.3344 10.3836 24.4432 10.7675C24.5523 11.1517 24.7414 11.845 24.8641 12.3082C24.9865 12.7716 25.1466 13.1331 25.2196 13.1119C25.2926 13.0904 25.6422 13.0054 25.9963 12.9227C26.3504 12.8402 26.6478 12.7176 26.6574 12.6503C26.6782 12.5048 26.0836 10.0619 25.6764 8.61943C25.3041 7.30047 25.2795 7.36301 26.3114 7.00838C26.7978 6.84124 27.1794 6.64956 27.1597 6.58211C27.1399 6.51494 27.0574 6.16787 26.9766 5.81088C26.7971 5.02068 26.8464 5.02602 24.9276 5.57985ZM49.3227 11.9915C47.1056 15.4714 47.2121 15.1815 47.9577 15.7106C48.7107 16.2448 48.7509 16.2294 49.3672 15.1632C49.9209 14.2049 49.8923 14.215 50.6914 14.6947C51.595 15.2374 52.5854 15.3326 53.1546 14.9315C54.3836 14.0653 54.9427 12.4615 54.3629 11.4663C54.0852 10.9898 51.7013 9.20469 51.2758 9.15472C51.2013 9.14579 50.3225 10.4226 49.3227 11.9915ZM52.5749 12.0828C53.3611 12.9898 52.3863 13.8171 51.2968 13.1678C50.7682 12.8525 50.7684 12.9138 51.2934 12.162C51.7811 11.4641 52.0255 11.449 52.5749 12.0828ZM16.7251 8.75211C14.1189 9.69759 14.0318 13.5234 16.5786 15.1957C19.2154 16.9271 22.0957 14.4681 21.1468 11.2956C20.5495 9.29791 18.4883 8.11259 16.7251 8.75211ZM56.3028 14.9013C52.7131 16.1098 52.612 21.2076 56.1692 21.6354C58.149 21.8732 60.0714 20.3205 60.3779 18.2359C60.718 15.924 58.5451 14.1461 56.3028 14.9013ZM18.6455 10.608C20.214 11.7341 19.5784 14.2042 17.8466 13.7133C16.2264 13.2539 15.8688 10.9734 17.3304 10.423C17.9194 10.2013 18.1182 10.2294 18.6455 10.608ZM58.2976 16.9225C59.5832 18.5216 57.1279 20.7739 55.7699 19.2412C55.1956 18.5932 55.2814 17.788 56.0008 17.0735C56.8381 16.2421 57.7047 16.1851 58.2976 16.9225ZM39.3699 14.9892C36.9038 15.8152 36.1372 17.5176 37.1613 19.8934C37.4466 20.5555 37.5671 21.1048 37.5118 21.4926L37.4275 22.0837L36.3742 21.9334L35.3209 21.7832L35.5397 21.3846C36.0586 20.4391 35.9854 19.466 35.3613 19.0179C34.9436 18.7179 34.9392 18.6873 35.1766 17.6916C35.4902 16.3756 35.144 15.672 34.1016 15.5061C33.6182 15.429 33.3284 15.2524 32.9461 14.8022C31.6367 13.2598 29.4812 13.7982 29.2047 15.7367C29.1373 16.2092 28.9542 16.7047 28.7687 16.9173C28.3297 17.4203 28.3894 18.2334 28.9308 19.1275C29.5268 20.1111 29.3603 21.8215 28.67 21.8046C28.2999 21.7958 28.2022 21.6314 27.757 20.2651C26.628 16.801 24.563 15.8071 23.7977 18.3594C23.5605 19.1497 23.5052 19.1847 23.0985 18.8005C22.5507 18.2829 21.9044 18.2931 21.1952 18.8301C20.173 19.6047 20.2415 20.3678 21.4722 21.9133C22.0921 22.6921 22.0507 22.7844 20.8069 23.3993C19.8525 23.8711 18.2305 25.1872 18.1816 25.5294C18.1716 25.5999 17.588 25.6096 16.8849 25.551C14.5883 25.3592 14.1158 25.8216 13.6803 28.688C13.3172 31.0787 13.4137 31.1867 16.8803 32.2742L18.0648 32.6458L18.6619 34.4352C19.6277 37.3299 21.0019 39.383 23.0675 41.0172C24.3979 42.0695 24.4482 42.2014 23.8826 43.1571C23.7023 43.4622 23.5121 44.0097 23.4601 44.3737C23.3236 45.3308 23.1187 45.1618 22.6686 43.7217C22.0263 41.6668 20.9592 40.5465 19.2492 40.131C18.2288 39.883 18.0655 40.1281 18.6775 40.9902C19.4991 42.1471 19.6096 42.7113 19.2712 44.0231C18.2762 47.8814 19.9564 49.6748 25.0025 50.1412C25.1673 50.1562 25.3077 50.0382 25.3327 49.8634C25.3708 49.5959 25.1952 49.5215 23.8851 49.2485C20.4521 48.533 19.2271 47.0027 20.0117 44.4096C20.2894 43.4919 20.3265 43.1257 20.2215 42.3405C20.0804 41.2851 20.1553 41.2187 20.7677 41.8579C21.4291 42.548 21.6407 42.9646 21.8712 44.0325C22.2574 45.8205 24.6601 47.7127 24.4569 46.0691C24.2545 44.4337 24.5674 43.4414 25.6822 42.1821C26.983 40.7129 27.2893 40.1164 27.3352 38.9635C27.3756 37.9504 27.5334 37.7954 28.0539 38.2574C29.0592 39.1496 29.0259 40.8815 27.9719 42.5101C26.7814 44.3498 27.2814 46.4316 28.9716 46.6727C30.638 46.9104 31.2563 46.0618 31.5026 43.198C31.7112 40.7751 32.1864 40.1232 34.1033 39.632C35.0075 39.4 35.1104 39.5863 34.6707 40.6593C34.3013 41.5612 34.301 41.5812 34.6354 43.3398C34.8792 44.6207 34.9327 45.3909 34.8287 46.1201C34.6633 47.2796 34.8515 47.679 35.6151 47.788C36.7328 47.9474 37.74 46.6248 38.0314 44.6151C38.2211 43.3066 38.8755 42.2128 39.856 41.5658C40.9312 40.856 41.1677 41.0667 40.5865 42.2183C40.2699 42.846 40.2019 43.2109 40.153 44.5437C40.1071 45.8024 40.0111 46.364 39.6821 47.2981C39.1739 48.7412 39.2108 48.9709 39.9678 49.0789C41.1392 49.246 42.3998 48.4738 42.8748 47.2985C43.0692 46.8177 44.3389 45.7727 44.4691 45.9866C44.6904 46.3492 43.8102 50.0983 43.4046 50.5208C42.8022 51.1484 41.2197 51.6184 39.8538 51.5757C38.5834 51.5359 38.4449 51.574 38.5279 51.9429C38.7308 52.8419 42.0559 52.5731 43.4937 51.5411C44.4168 50.8788 44.6856 50.3194 44.9414 48.5264C45.1782 46.8659 45.2867 46.629 46.2261 45.7204C46.7792 45.1857 46.7969 45.1403 46.5482 44.8954C45.7005 44.061 43.1332 45.2338 42.1239 46.9165C41.0708 48.6723 40.0749 48.7792 40.6437 47.0754C40.8352 46.5015 40.996 45.6679 41.0011 45.2227L41.0097 44.4133L42.4506 43.885C45.0726 42.9243 47.6564 40.7945 49.3641 38.1863L50.0191 37.186L51.8871 37.1553C55.003 37.1041 55.3531 36.8027 55.487 34.0541C55.6075 31.5842 55.3096 31.1706 53.083 30.7158C52.1956 30.5344 51.8423 30.398 51.8641 30.2447C51.881 30.126 51.5482 29.5228 51.1246 28.9044C50.7011 28.286 50.4544 27.7942 50.5769 27.8116C51.6523 27.965 52.3595 26.0346 51.4513 25.4239C51.116 25.1985 50.9596 24.9326 50.917 24.5156C50.8036 23.4069 49.4698 22.9959 49.022 23.9317C48.9228 24.1391 48.7246 24.1975 48.3181 24.1395C47.6702 24.0471 46.8683 24.5443 46.7909 25.0865C46.7313 25.5045 46.7552 25.5093 45.678 24.8586C44.929 24.4063 43.1209 23.6133 41.6372 23.0869C41.3388 22.9811 41.3138 22.911 41.4892 22.6698C42.0999 21.8312 41.9571 19.6268 41.2519 19.0007C40.6284 18.4472 40.3252 18.873 40.7504 19.7048C40.9905 20.1742 40.8942 22.581 40.6274 22.7831C40.1696 23.1299 39.8701 22.51 40.0782 21.6475C40.2485 20.9434 40.2482 20.4042 40.0781 19.2914C39.814 17.5667 39.9104 16.7405 40.4812 15.8383C41.1985 14.7047 40.9 14.4767 39.3699 14.9892ZM10.9485 12.3661C10.2026 13.0113 10.1925 12.9447 11.2 14.0432C12.1284 15.0554 12.1294 15.0349 11.1251 15.8959C10.4248 16.4962 10.5182 16.5335 9.31175 15.171L8.66217 14.4373L8.09232 14.9132C7.29799 15.5766 7.25866 15.4858 9.35978 17.8554C10.4017 19.0306 11.4463 20.2154 11.6812 20.4882C12.2251 21.1196 12.2327 21.1195 12.8735 20.483L13.4114 19.949L12.5786 18.9496L11.7456 17.9505L12.4662 17.283C13.3461 16.4681 13.2626 16.4554 14.2669 17.5531L15.0912 18.4539L15.6297 17.9962C16.324 17.406 16.3395 17.1999 15.7358 16.5812C15.4626 16.3012 14.43 15.1274 13.4412 13.9725C11.3443 11.5242 11.6752 11.7373 10.9485 12.3661ZM32.3279 15.1935C32.4299 15.3309 32.5778 15.6218 32.6563 15.8399C32.7769 16.1743 32.9222 16.2495 33.5845 16.32C34.6814 16.4367 34.7903 16.569 34.524 17.4619C34.0804 18.9484 34.0784 19.1522 34.5053 19.4417C35.2296 19.9334 35.279 20.1713 34.8331 21.0199C34.3468 21.9446 34.3976 22.2614 35.099 22.6824C35.7765 23.0892 35.7243 23.8195 34.9302 25.048C34.1264 26.2915 33.958 26.0843 33.4931 23.2811C32.7789 18.9722 31.8784 15.7374 31.3414 15.5513C30.8863 15.3935 30.9353 16.0124 31.5437 18.1051C31.858 19.1854 32.332 21.3442 32.5975 22.9022L33.0799 25.7347L32.6783 25.9667C32.1123 26.2935 32.0668 26.2695 31.3902 25.2843C30.6467 24.2016 30.5815 23.7701 31.0623 23.1133C31.5107 22.5008 31.447 22.1098 30.8643 21.896C30.1233 21.6244 29.9713 21.4294 30.0078 20.7976C30.0327 20.3659 30.1205 20.1721 30.3108 20.1278C30.7209 20.0328 30.6877 19.6538 30.2355 19.2718C29.1313 18.339 28.9548 17.6867 29.6735 17.1967C30.0486 16.9409 30.1188 16.5685 29.9398 15.7846C29.7336 14.8814 31.7289 14.3875 32.3279 15.1935ZM39.1584 16.9285C39.0821 17.4632 39.1173 18.5263 39.2393 19.3809C39.4937 21.1594 39.2346 22.425 38.6341 22.3393C38.3674 22.3013 38.3132 22.146 38.3266 21.4581C38.3363 20.9709 38.1612 20.1376 37.9066 19.458C37.3936 18.0885 37.4375 17.3279 38.0654 16.7114C39.0951 15.7002 39.3273 15.7463 39.1584 16.9285ZM62.4346 20.2215C61.7367 20.6616 61.7288 20.7246 62.2616 21.6321L62.6949 22.3704L62.2221 22.6637C61.962 22.8247 60.9189 23.4636 59.904 24.0835C57.7939 25.3723 57.9334 25.1966 58.3805 26.0047C58.8405 26.836 58.7649 26.8521 61.0764 25.4316C62.19 24.7471 63.212 24.1229 63.3474 24.0443C63.5367 23.9344 63.7127 24.091 64.1089 24.7228L64.6243 25.5442L65.1196 25.2714C66.0573 24.7554 66.0743 24.6204 65.3515 23.4473C64.9866 22.8553 64.6538 22.328 64.6119 22.2761C64.5701 22.2241 64.2463 21.669 63.8921 21.0427C63.1538 19.7373 63.18 19.7521 62.4346 20.2215ZM45.6296 18.3438C45.523 18.4954 45.3582 18.8173 45.2633 19.0592C45.136 19.3826 44.8737 19.567 44.2694 19.7574C43.3081 20.0603 43.1751 20.3961 43.8965 20.6988C44.4733 20.9411 44.862 21.6745 44.9009 22.5934C44.936 23.4262 45.3867 23.3404 45.745 22.4324C46.0007 21.7845 46.1106 21.6923 46.9386 21.4302C48.026 21.0861 48.0527 21.0207 47.3206 20.5008C46.5951 19.9858 46.3161 19.5554 46.238 18.8291C46.1652 18.1535 45.9075 17.9479 45.6296 18.3438ZM26.0792 18.3292C26.9337 19.3574 28.7601 25.8902 28.0879 25.5132C27.5555 25.2145 24.4229 19.0069 24.507 18.4174C24.6097 17.6974 25.5121 17.6466 26.0792 18.3292ZM24.6476 22.0996C26.7679 24.9227 26.8667 25.1482 26.0607 25.3324C25.6861 25.4178 25.5287 25.3138 24.8243 24.5131C24.3806 24.0087 23.709 23.2651 23.3317 22.8613C21.4701 20.8671 20.9547 19.8322 21.5851 19.3548C22.1404 18.9342 22.5376 19.2903 24.6476 22.0996ZM50.0953 25.0044C49.9546 25.614 50.1518 25.9018 50.7745 25.9948C51.1817 26.0557 51.4136 26.6101 51.0591 26.6755C49.9441 26.8817 49.2047 27.98 49.798 28.5492C50.375 29.1032 50.28 29.5477 49.5426 29.7417C48.7101 29.9608 48.4297 30.3975 48.5784 31.2428C48.7287 32.0952 48.4316 32.3641 47.3727 32.3339C46.3324 32.3043 46.337 32.2821 47.9369 29.4647C49.3438 26.9869 49.5133 26.4536 48.8435 26.6087C48.6323 26.6576 48.069 27.5897 46.0508 31.228C45.7335 31.7998 45.4152 31.7177 44.8583 30.9205C44.2826 30.0964 44.3029 29.7642 44.9237 29.8528C45.7401 29.9692 46.0853 29.5079 45.9865 28.4323C45.8862 27.3418 46.0028 27.1592 46.7335 27.2634C47.4875 27.371 47.7481 27.0003 47.6287 25.9887C47.5153 25.027 47.8008 24.6624 48.404 24.9982C49.0089 25.3351 49.2055 25.3036 49.394 24.8391C49.7434 23.9776 50.3018 24.1092 50.0953 25.0044ZM40.3391 23.4276C43.626 24.348 47.1701 26.0903 46.3865 26.4005C46.1476 26.4948 45.8311 26.389 45.1191 25.977C43.1783 24.8534 40.9568 24.0672 37.7817 23.3806C36.6662 23.1393 36.3008 23.0011 36.3252 22.8299C36.3698 22.5176 37.9079 22.7469 40.3391 23.4276ZM30.1885 22.8007C30.1555 23.032 29.4236 23.2869 28.9766 23.2231C28.6357 23.1745 28.467 22.7141 28.7452 22.5912C29.4006 22.3017 30.2423 22.4237 30.1885 22.8007ZM37.7758 24.102C37.587 24.4064 35.6068 25.6763 35.5446 25.5325C35.4596 25.3358 36.1503 24.0465 36.4139 23.9097C36.6595 23.7822 37.8681 23.9529 37.7758 24.102ZM39.9301 24.8425C40.1794 25.0881 40.1511 25.13 39.4973 25.4825C39.1123 25.6897 38.4491 26.1083 38.0235 26.4122C37.2846 26.9401 36.2479 26.862 36.3302 26.2847C36.4435 25.4905 39.3896 24.3105 39.9301 24.8425ZM42.2255 25.6794C42.2077 25.8041 41.8884 26.0778 41.5162 26.2881C41.1439 26.498 40.2692 27.0642 39.5724 27.5462C38.2528 28.4587 37.7051 28.5564 37.9061 27.8428C38.1929 26.8261 42.3596 24.7392 42.2255 25.6794ZM30.0109 24.4279C30.128 24.7497 30.4667 25.373 30.7642 25.8128C31.3329 26.6545 31.3828 26.8971 31.0404 27.1564C30.5729 27.5106 29.8836 26.7397 29.4361 25.362C28.919 23.7703 28.8929 23.9142 29.7108 23.8497C29.7589 23.8461 29.894 24.1061 30.0109 24.4279ZM44.7658 26.4758C45.0279 26.7009 45.0162 26.71 43.4077 27.5152C41.3611 28.5397 39.9048 28.1191 41.7417 27.034C43.191 26.1781 44.2017 25.9915 44.7658 26.4758ZM23.0493 23.7513C23.3055 24.096 23.2545 24.1517 22.2557 24.6189C19.9024 25.7195 19.2077 26.9879 19.8656 28.9843C21.2686 33.2428 34.9754 37.0452 43.7899 35.621C47.8876 34.9591 50.0124 33.4372 49.9991 31.174C49.9953 30.5068 50.4147 29.9663 50.8842 30.0332C51.483 30.1187 51.1931 32.5449 50.4556 33.6223C45.5213 40.83 18.2105 35.8731 18.4142 27.8067C18.469 25.63 22.0906 22.4613 23.0493 23.7513ZM45.1539 28.4016C45.101 28.7996 43.5903 29.2409 43.3181 28.9379C43.0575 28.6476 43.4795 28.2534 44.3931 27.9338C45.0303 27.7111 45.2296 27.8335 45.1539 28.4016ZM24.4764 25.3545C24.9836 25.8336 24.8395 26.216 24.2326 26.0008C21.9711 25.1987 20.3179 27.5295 22.1933 28.8761C22.8592 29.354 25.7483 29.2618 26.5733 28.736C26.8283 28.5736 26.4377 27.4612 25.9433 26.9416L25.4728 26.4469L25.9337 26.2285C26.6614 25.8835 28.0331 26.1401 29 26.8022C30.7714 28.015 30.759 28.9585 28.9629 29.6478C27.8896 30.0597 26.6887 31.0482 26.6125 31.5823C26.4705 32.5778 30.7851 34.0377 32.2943 33.5051C34.1386 32.854 33.8306 30.665 31.7626 29.724C30.6207 29.2043 30.7097 28.4358 32.0457 27.2803C34.1515 25.4588 38.2643 27.4629 36.4163 29.4098C35.0459 30.8539 34.6919 31.8079 35.5193 31.8288C35.889 31.8381 35.9796 31.7443 36.1347 31.1904C36.7155 29.1178 40.3209 28.0196 42.3218 29.3058C42.6727 29.5314 43.3677 30.2252 43.8661 30.8478C45.115 32.4073 45.5258 32.6736 47.0439 32.9059C48.4678 33.124 48.5003 33.1588 47.6945 33.6087C40.2745 37.7494 19.8413 33.1253 20.5344 27.4619C20.7294 25.8697 23.4707 24.4041 24.4764 25.3545ZM6.34679 23.1882C6.03784 23.4622 5.85438 23.4603 4.01532 23.1647C2.91739 22.9883 1.94533 22.8765 1.85546 22.9164C1.76503 22.9563 1.44151 24.6245 1.13351 26.6406C0.800824 28.8181 0.500157 30.3495 0.388539 30.4341C0.2857 30.512 0.156065 30.8934 0.100668 31.2818L1.52951e-05 31.9874L0.813474 32.1035L1.62666 32.2195L2.19447 28.2387L2.76233 24.2577L6.86936 24.8435L10.9764 25.4294L11.0583 24.8548L11.1403 24.2803L9.9263 24.0648C8.39568 23.7929 7.99583 23.6376 8.03939 23.3322C8.09641 22.9325 6.76298 22.8191 6.34679 23.1882ZM60.6805 30.9285C60.573 31.1858 60.4324 31.2208 59.9294 31.1143L59.3102 30.9837L59.1493 31.7564L58.9885 32.529L61.2836 32.8564L63.5785 33.1838L63.6403 32.397L63.702 31.6101L63.0723 31.5762C62.5483 31.5477 62.4363 31.4826 62.4031 31.1875C62.3453 30.6718 60.8794 30.4514 60.6805 30.9285ZM65.8408 31.5802C65.7504 31.7434 65.4735 31.7793 64.916 31.6997L64.1201 31.5862L64.0148 32.3248L63.9094 33.0636L64.7228 33.1796C65.3373 33.2673 65.5274 33.3556 65.5009 33.5418C65.475 33.7233 65.278 33.7612 64.7513 33.6861C63.8539 33.5581 63.8337 33.5941 63.4989 35.9412L63.2328 37.807L64.0797 37.9786L64.9266 38.1499L64.7686 39.593L64.6109 41.0362L65.3364 41.1397L66.0621 41.2432L66.2728 39.7658L66.4836 38.2882L67.3017 38.4048L68.1198 38.5215L68.3729 36.4222L68.6259 34.3226L67.8957 34.2057C67.3483 34.118 67.1623 34.0181 67.1523 33.8064C67.1411 33.5726 67.28 33.5444 67.9641 33.642L68.7893 33.7597L68.8947 33.0208L69 32.2823L68.1866 32.1662C67.5721 32.0786 67.382 31.99 67.4085 31.8038C67.4346 31.6212 67.2532 31.5304 66.7067 31.4525C66.2016 31.3804 65.929 31.4206 65.8408 31.5802ZM32.8389 28.2069C32.4438 28.6597 32.4109 28.843 32.6957 29.0027C32.9974 29.1719 33.8344 28.6563 33.89 28.2668C33.9576 27.7927 33.2364 27.7513 32.8389 28.2069ZM25.1418 27.3421C25.7814 27.8533 25.6487 28.1327 24.6687 28.337C23.1916 28.645 21.9653 28.0919 22.0959 27.1763C22.1914 26.5072 24.2365 26.6186 25.1418 27.3421ZM39.6647 29.5029C38.2318 29.8 37.3021 30.4069 37.6214 30.8368C37.7415 30.9985 37.9899 30.9416 38.6239 30.6076C39.3917 30.2026 39.5689 30.1779 40.6247 30.3285C41.5672 30.4629 41.7996 30.445 41.8724 30.2327C42.0528 29.7075 40.7522 29.2775 39.6647 29.5029ZM27.4863 27.858C27.1048 28.0314 27.4671 28.5355 28.0315 28.616C28.5158 28.6851 28.9907 28.3729 28.8603 28.0715C28.7617 27.8432 27.8356 27.6993 27.4863 27.858ZM34.8812 29.0619C34.4545 29.4198 34.4161 29.8617 34.8069 29.9175C35.1323 29.9639 35.7105 29.4669 35.7635 29.0951C35.808 28.7834 35.2386 28.7617 34.8812 29.0619ZM17.3575 26.6531C17.3383 26.7873 17.0677 26.883 16.688 26.8901C14.6676 26.9271 14.6864 29.2066 16.7127 29.8987C17.7789 30.2627 18.3774 31.1559 17.8322 31.5689C17.4829 31.8335 14.7477 30.8314 14.4501 30.3301C14.14 29.8077 14.5717 27.0974 15.0319 26.6765C15.5716 26.1828 17.4272 26.1644 17.3575 26.6531ZM54.5814 32.2061C55.2016 33.2536 54.6131 35.9384 53.6885 36.2796C53.3281 36.4125 50.5051 36.4196 50.407 36.2879C50.0548 35.8141 50.9966 34.9955 51.939 34.9561C53.6492 34.8848 54.0278 34.5852 53.9972 33.3274C53.9772 32.493 53.7135 32.2068 52.8328 32.0642C52.0413 31.9358 51.7893 31.7336 52.1819 31.5418C52.668 31.304 54.318 31.7609 54.5814 32.2061ZM4.22507 25.6388C4.17224 26.0092 4.10211 26.0401 3.50599 25.9551L2.84547 25.8608L2.80807 26.4838C2.77302 27.0726 2.80375 27.114 3.37354 27.2444L3.97638 27.3823L3.61484 29.9169L3.2533 32.4515L3.86308 32.5387L4.47317 32.6258L4.83029 30.1221L5.18737 27.6188L5.80449 27.6546C6.40466 27.6897 6.42441 27.6728 6.5141 27.044C6.60792 26.3862 6.55301 26.3242 5.8405 26.2807C5.57463 26.2645 5.46421 26.1407 5.43162 25.8222C5.36566 25.1789 4.31349 25.0189 4.22507 25.6388ZM8.43058 26.1969C8.34615 26.4888 8.20464 26.5516 7.69932 26.5222C6.73867 26.4656 6.65389 27.6304 7.60254 27.8476L8.20538 27.9855L7.84384 30.5201L7.4823 33.0547L8.05155 33.1359L8.62081 33.2171L8.98235 30.6825L9.34389 28.1479L9.96124 28.184C10.933 28.2408 11.1771 27.0987 10.2389 26.8844C9.7455 26.7714 9.62719 26.6715 9.62775 26.3677C9.6285 26.0624 9.52502 25.9762 9.08184 25.913C8.63893 25.8498 8.51548 25.9036 8.43058 26.1969ZM59.3283 33.7658C59.2756 34.1356 59.1641 34.2842 58.9183 34.3132C58.6456 34.3449 58.561 34.4906 58.4781 35.0721L58.3754 35.7918L59.1042 35.8958C59.7458 35.9873 59.8383 36.0504 59.8765 36.4242C59.9487 37.1274 59.7306 37.3249 58.9975 37.2203L58.3329 37.1255L58.2712 37.9124C58.213 38.6582 58.2349 38.7042 58.6938 38.7948C58.9603 38.8475 59.2687 38.9104 59.3794 38.9347C59.5082 38.9629 59.5425 39.2438 59.4749 39.7174L59.3696 40.456L60.1831 40.572L60.9963 40.688L61.099 39.968L61.2017 39.2479L61.9495 39.2414L62.6971 39.2352L62.801 38.5066L62.905 37.7777L62.1633 37.6719L61.4217 37.5661L61.5599 36.9578C61.7034 36.3266 61.7102 36.3236 62.7237 36.4312C63.3185 36.4946 63.8096 35.0592 63.2219 34.9754C63.0515 34.9511 63.0027 34.7674 63.06 34.3661C63.1415 33.7946 63.1378 33.7909 62.4099 33.6871C61.6816 33.5832 61.6774 33.5857 61.5959 34.1572C61.524 34.6607 61.4637 34.7246 61.1074 34.6738C60.7511 34.6229 60.7109 34.5447 60.7827 34.0412C60.8642 33.4697 60.8608 33.4662 60.1326 33.3623C59.423 33.2611 59.3986 33.2734 59.3283 33.7658ZM17.4441 27.904C17.6762 28.1143 17.7173 28.8653 17.5105 29.1152C17.2932 29.3778 16.0818 28.8812 15.9947 28.494C15.8471 27.839 16.8999 27.4103 17.4441 27.904ZM38.0831 31.919C35.4306 33.1797 34.7912 33.5663 34.8594 33.8687C34.9467 34.2565 35.3154 34.2247 35.8821 33.7806C36.9687 32.9283 37.7413 32.9312 38.4706 33.79C39.3333 34.806 39.8559 34.3652 39.0593 33.2937C38.4674 32.4968 38.4575 32.5508 39.2663 32.1507C40.4162 31.5818 40.957 31.8729 40.3095 32.7122C39.2514 34.084 42.6376 35.2926 44.3761 34.1638C45.5134 33.4254 43.7857 31.4198 42.2043 31.6427C41.7648 31.7047 41.5517 31.654 41.2957 31.427C40.6675 30.8691 40.114 30.9542 38.0831 31.919ZM53.1622 33.394C53.2057 33.9923 52.9897 34.1641 52.2676 34.1055C52.0196 34.0853 51.7241 34.0632 51.611 34.0564C51.4158 34.0444 51.4893 33.3642 51.7384 32.8767C51.9758 32.4122 53.121 32.8281 53.1622 33.394ZM31.626 30.5439C32.7799 31.1553 33.0688 32.1084 32.2655 32.6559C31.5409 33.1501 28.828 32.6976 27.8994 31.9279L27.4072 31.5198L28.0265 31.0352C29.2525 30.076 30.4375 29.9143 31.626 30.5439ZM65.2943 35.8705C65.2898 36.2901 64.9805 36.6408 64.7708 36.4644C64.5895 36.3118 64.6376 35.6357 64.8405 35.482C65.0537 35.3205 65.2979 35.5295 65.2943 35.8705ZM67.2414 36.2478C67.0606 36.99 66.6685 36.9917 66.7743 36.2501C66.8348 35.826 66.9292 35.6718 67.1126 35.698C67.3003 35.7248 67.3341 35.8685 67.2414 36.2478ZM24.4356 30.0051C23.611 30.4494 24.603 31.0704 25.6429 30.761C26.1713 30.6035 26.2221 30.4394 25.8318 30.1506C25.4304 29.8535 24.8327 29.7913 24.4356 30.0051ZM43.3845 32.7365C44.265 33.3687 43.719 33.8084 42.167 33.7177C41.1681 33.6591 40.8889 33.3833 41.3135 32.8746C41.7999 32.2917 42.6831 32.2328 43.3845 32.7365ZM30.2199 31.2795C30.0174 31.5247 30.4488 32.0431 30.7895 31.9639C30.9454 31.928 31.067 31.7653 31.0597 31.6028C31.0442 31.2605 30.431 31.0245 30.2199 31.2795ZM2.74396 28.5683C2.14192 31.1265 2.01283 32.2745 2.32172 32.3186C2.70899 32.3738 2.73287 32.3064 3.20797 29.8069C3.60175 27.7364 3.60565 27.6444 3.3006 27.6009C3.02844 27.562 2.94778 27.7021 2.74396 28.5683ZM5.52498 28.0437C5.42647 28.3952 5.13064 31.0809 5.107 31.8367C5.08509 32.5491 5.13703 32.7202 5.38726 32.7559C5.67449 32.7968 6.2376 29.155 6.0902 28.2082C6.05461 27.9793 5.58151 27.8415 5.52498 28.0437ZM7.06499 28.5146C6.57761 29.8944 6.19277 32.8708 6.4959 32.914C6.84124 32.9633 6.95148 32.6256 7.52954 29.7533C7.81505 28.334 7.81409 28.2447 7.51205 28.2016C7.31006 28.1728 7.14476 28.2886 7.06499 28.5146ZM9.44235 30.3612C9.21146 32.9562 9.22762 33.3037 9.57953 33.3539C9.84703 33.392 9.88807 33.2474 10.0503 31.7041C10.3288 29.0521 10.3117 28.6009 9.93187 28.5468C9.62162 28.5025 9.60082 28.5797 9.44235 30.3612ZM63.3054 39.1331C63.1858 39.5535 63.0194 40.0951 62.9357 40.3366C62.7963 40.7376 62.8255 40.7815 63.2745 40.8456C63.8854 40.9327 63.8902 40.9266 64.2244 39.5992L64.4992 38.5078L64.0108 38.4381C63.5514 38.3726 63.5095 38.414 63.3054 39.1331ZM66.6761 39.7813C66.6386 41.2326 66.6716 41.3302 67.2305 41.4099L67.726 41.4805L67.751 40.5211C67.7886 39.0698 67.7555 38.9722 67.1969 38.8926L66.7011 38.8219L66.6761 39.7813ZM21.1602 35.0478C21.4558 35.6657 22.0063 36.5743 22.384 37.0668C23.0805 37.9753 23.1539 38.5001 22.5883 38.5286C21.7148 38.5725 19.3809 34.1688 20.1726 33.971C20.5742 33.8705 20.6228 33.9237 21.1602 35.0478ZM29.1374 43.6676C29.3849 43.7873 29.7825 43.9586 30.0208 44.0479C30.3874 44.1854 30.4421 44.2943 30.3762 44.7565C30.1626 46.2541 28.2302 45.9793 28.1653 44.4423C28.1236 43.4468 28.3344 43.2787 29.1374 43.6676ZM36.9301 45.5466C36.5872 46.8857 35.5154 47.1226 35.7015 45.8181C35.8356 44.8776 35.9265 44.7856 36.5674 44.9425C37.0049 45.0498 37.0418 45.1109 36.9301 45.5466ZM31.8412 47.7255C31.515 48.016 30.9967 48.6172 30.6897 49.0614C29.8822 50.229 29.2716 50.1656 27.6496 48.7457C26.2969 47.5618 25.7364 48.0229 26.7302 49.5019C28.569 52.2381 33.9112 53.1364 36.7708 51.1901C37.9995 50.3538 37.8095 50.0919 36.1159 50.2881C33.6463 50.5742 32.6571 49.9965 32.7151 48.3017C32.7552 47.1243 32.618 47.0336 31.8412 47.7255ZM55.7051 58.5394C53.6074 58.5143 52.1145 59.9047 51.7891 62.1865C51.352 65.2506 53.4154 67.1438 56.9183 66.893L57.7651 66.8323L58.0919 64.5411L58.4187 62.2496L57.0698 62.106L55.7211 61.9622L55.5645 62.7129C55.4139 63.4337 55.4268 63.4703 55.8895 63.6345C56.6955 63.9202 56.4662 64.8333 55.6198 64.7092C53.5833 64.4102 53.2642 61.3281 55.196 60.6149C55.7571 60.4079 57.3548 60.6838 57.9354 61.0878C58.2025 61.2738 58.4465 61.4297 58.4775 61.4341C58.8381 61.4856 58.7556 59.4803 58.3882 59.2642C57.6777 58.8462 56.5812 58.5498 55.7051 58.5394ZM3.48847 51.3571C3.4204 51.4089 3.11345 53.2118 2.80652 55.3636L2.24845 59.276L3.22444 59.4152L4.20015 59.5544L4.49283 57.5025C4.8346 55.1065 4.84503 55.1 5.68559 56.7494C6.47698 58.3023 6.46132 58.3003 7.70906 57.0304C9.03136 55.6848 9.00265 55.6174 8.56967 59.047L8.42942 60.1577L9.3917 60.2949C10.5721 60.4633 10.4124 60.8616 11.0142 56.2487L11.5192 52.3753L10.5014 52.2798L9.48369 52.1843L8.344 53.4456C6.91109 55.0315 7.06191 55.0525 6.12503 53.1353L5.32972 51.5079L4.47131 51.3855C3.99908 51.3181 3.55682 51.3053 3.48847 51.3571ZM14.6698 53.0177C14.5976 53.1048 13.7183 54.8261 12.7161 56.8429L10.8939 60.5092L12.0138 60.6689L13.1339 60.8287L13.4057 60.1901L13.6774 59.5515L14.7603 59.7553L15.8431 59.9589L15.906 60.5961L15.969 61.2331L17.1601 61.403C17.8154 61.4965 18.3589 61.5176 18.3677 61.4497C18.3768 61.3821 18.1433 60.086 17.8489 58.5702C17.5542 57.054 17.204 55.2138 17.0703 54.4809L16.8272 53.148L15.814 53.0034C15.2568 52.9239 14.7418 52.9304 14.6698 53.0177ZM20.2532 53.7385C20.1908 53.7855 19.8822 55.5882 19.5674 57.7445L18.9948 61.6647L21.6089 62.0376L24.2233 62.4105L24.3092 61.4597L24.3951 60.5087L22.9785 60.2584L21.562 60.0081L21.9943 56.9772L22.4266 53.9467L21.3963 53.7997C20.8298 53.7189 20.3153 53.6915 20.2532 53.7385ZM26.5094 58.4844C25.4898 60.513 24.6217 62.2353 24.5803 62.3118C24.5389 62.3883 25.0206 62.5242 25.6507 62.6141L26.7964 62.7775L27.0851 62.149C27.3575 61.5553 27.4662 61.4912 28.0601 61.5759C29.5686 61.7911 29.5696 61.7918 29.5869 62.5058L29.6032 63.1779L30.8209 63.3516C31.7144 63.479 32.0321 63.4688 32.015 63.3128C32.0023 63.1958 31.6605 61.3004 31.2556 59.1007L30.5198 55.1011L29.4414 54.9484L28.3633 54.7957L26.5094 58.4844ZM33.2389 59.5927L32.6652 63.6147L33.6412 63.7539L34.6171 63.8931L34.8279 62.4157C35.0528 60.8385 35.099 60.7852 35.8063 61.2931C36.4349 61.7443 36.9303 62.645 37.0181 63.4961L37.0956 64.2466L38.1544 64.3976L39.2131 64.5487L39.2023 63.8618C39.1871 62.8665 38.8086 61.8912 38.0679 60.9377L37.4179 60.101L38.0887 59.5707C38.9032 58.9265 39.5191 58.0528 39.81 57.1293L40.0275 56.4398L39.0866 56.3561L38.1458 56.2727L37.8551 56.9145C37.4926 57.7146 36.8648 58.3679 36.1858 58.6518C35.4296 58.9679 35.3468 58.778 35.5668 57.235L35.7645 55.8492L34.7885 55.71L33.8126 55.5708L33.2389 59.5927ZM41.0621 56.7166C40.9941 56.7684 40.6871 58.5713 40.3802 60.7231L39.8221 64.6355L40.8792 64.7863L41.9366 64.9372L42.5103 60.9152L43.084 56.8932L42.1352 56.7579C41.6133 56.6835 41.1305 56.6648 41.0621 56.7166ZM44.3233 57.1747C44.2506 57.2295 43.9401 59.0354 43.6332 61.1871L43.0751 65.0995L44.1325 65.2504L45.1896 65.4012L45.4823 63.3492C45.8217 60.9698 45.8333 60.961 46.5973 62.5137C46.9158 63.1608 47.4339 64.1791 47.7486 64.7766L48.3208 65.8627L49.3229 65.9563L50.3252 66.0501L50.8872 62.1101L51.4492 58.1703L50.4393 57.9763L49.4297 57.7826L49.2204 59.1425C49.105 59.8906 48.9662 60.8206 48.9115 61.2096C48.7717 62.2035 48.6308 62.0504 47.4271 59.5985L46.37 57.4458L45.4126 57.2604C44.886 57.1582 44.3957 57.1196 44.3233 57.1747ZM29.2478 58.341C29.3811 59.6332 29.3123 59.7865 28.643 59.691C28.2404 59.6336 28.0901 59.5464 28.1636 59.4132C28.2224 59.3064 28.4247 58.8103 28.6126 58.3105C29.0048 57.2682 29.1379 57.2745 29.2478 58.341ZM15.6101 56.6522C15.7266 57.7803 15.6959 57.8442 15.0787 57.7562C14.4587 57.6678 14.4472 57.5939 14.8907 56.5488C15.3884 55.3751 15.4797 55.3881 15.6101 56.6522Z" fill="#E4DDCB"/>
</svg>
