<svg width="20" height="20" viewBox="0 0 20 20" fill="none" xmlns="http://www.w3.org/2000/svg">
<path d="M10 0C15.523 0 20 4.477 20 10C20 15.523 15.523 20 10 20C4.477 20 0 15.523 0 10C0 4.477 4.477 0 10 0ZM11.5 5H9C8.46957 5 7.96086 5.21071 7.58579 5.58579C7.21071 5.96086 7 6.46957 7 7V14C7 14.2652 7.10536 14.5196 7.29289 14.7071C7.48043 14.8946 7.73478 15 8 15C8.26522 15 8.51957 14.8946 8.70711 14.7071C8.89464 14.5196 9 14.2652 9 14V12H11.5C12.4283 12 13.3185 11.6313 13.9749 10.9749C14.6313 10.3185 15 9.42826 15 8.5C15 7.57174 14.6313 6.6815 13.9749 6.02513C13.3185 5.36875 12.4283 5 11.5 5ZM11.5 7C11.8978 7 12.2794 7.15804 12.5607 7.43934C12.842 7.72064 13 8.10218 13 8.5C13 8.89782 12.842 9.27936 12.5607 9.56066C12.2794 9.84196 11.8978 10 11.5 10H9V7H11.5Z" fill="black"/>
</svg>
