<svg width="47" height="45" viewBox="0 0 47 45" fill="none" xmlns="http://www.w3.org/2000/svg">
<path d="M41.0023 4.98826C41.5175 5.24747 41.9204 5.68829 42.1344 6.22704C42.3484 6.76579 42.3587 7.36497 42.1633 7.91086L42.0529 8.16665L36.7036 18.9476H40.0528C40.2141 18.1817 40.5614 17.4681 41.0634 16.8705L41.329 16.5792L42.9906 14.9047C43.4136 14.48 43.9811 14.2334 44.578 14.215C45.1748 14.1966 45.7562 14.4079 46.2041 14.8059C46.652 15.2038 46.9328 15.7587 46.9894 16.3577C47.046 16.9567 46.8743 17.555 46.509 18.031L46.3139 18.2537L44.6523 19.9305V35.5264C44.6529 37.9574 43.7261 40.2955 42.0637 42.0571C40.4013 43.8188 38.1306 44.869 35.7212 44.9905L35.2512 45H11.7483C9.33638 45 7.01669 44.0658 5.26906 42.3907C3.52143 40.7155 2.47956 38.4276 2.35896 36.0001L2.34721 35.5264V19.9305L0.685564 18.2537C0.264046 17.8274 0.0193215 17.2555 0.00109604 16.6541C-0.0171294 16.0526 0.192511 15.4667 0.587437 15.0154C0.982363 14.5641 1.53296 14.2811 2.1274 14.2241C2.72184 14.167 3.31555 14.3401 3.78794 14.7082L4.00886 14.9047L5.67051 16.5792C6.22153 17.1343 6.62697 17.8188 6.85035 18.571L6.94436 18.95H31.4484L37.8506 6.04693C38.1294 5.48559 38.618 5.05877 39.209 4.86026C39.8 4.66175 40.445 4.70779 41.0023 4.98826ZM35.5285 21.316H30.2733L27.923 26.0528H16.4489C15.8729 26.0529 15.317 26.2663 14.8867 26.6522C14.4565 27.0382 14.1819 27.5699 14.1151 28.1465L14.0986 28.4212V29.6054C14.0965 31.5902 14.8012 33.5099 16.0846 35.0155C17.368 36.5211 19.1449 37.5127 21.0923 37.8101C23.0397 38.1074 25.0283 37.6908 26.6967 36.6358C28.3651 35.5809 29.6025 33.9578 30.184 32.0614L30.2451 31.9572L35.5285 21.316ZM25.6503 30.7896C25.4173 31.4561 24.9925 32.0375 24.43 32.4594C23.8675 32.8813 23.1929 33.1246 22.4925 33.1581C21.792 33.1917 21.0976 33.014 20.4979 32.6478C19.8982 32.2816 19.4205 31.7435 19.1259 31.1022L18.999 30.7896H25.6503ZM17.7533 0.3983C18.0101 0.570891 18.2307 0.792775 18.4024 1.05128C18.5741 1.30978 18.6936 1.59984 18.7541 1.90489C18.8145 2.20994 18.8148 2.524 18.7548 2.82914C18.6947 3.13428 18.5757 3.42451 18.4043 3.68327L17.899 4.44826C17.6802 4.77843 17.5817 5.1748 17.6203 5.56992C17.6589 5.96503 17.8321 6.33446 18.1106 6.61535C19.1576 7.67056 19.8095 9.05882 19.9552 10.5438C20.1009 12.0289 19.7314 13.5189 18.9096 14.7603L18.4043 15.5253C18.0584 16.0479 17.5206 16.4106 16.9093 16.5336C16.2979 16.6567 15.6631 16.5299 15.1445 16.1813C14.6259 15.8327 14.2659 15.2908 14.1438 14.6747C14.0218 14.0586 14.1475 13.419 14.4935 12.8963L14.9988 12.1314C15.2176 11.8012 15.3161 11.4048 15.2775 11.0097C15.2389 10.6146 15.0657 10.2451 14.7873 9.96426C13.7408 8.9092 13.0893 7.5214 12.9436 6.0369C12.7979 4.55241 13.167 3.0629 13.9882 1.82171L14.4935 1.05435C14.6647 0.795545 14.8849 0.573279 15.1415 0.400241C15.398 0.227204 15.6858 0.106786 15.9885 0.0458639C16.2912 -0.0150578 16.6029 -0.0152893 16.9057 0.0451824C17.2085 0.105654 17.4965 0.225644 17.7533 0.3983ZM27.1544 0.3983C27.4113 0.570891 27.6318 0.792775 27.8035 1.05128C27.9753 1.30978 28.0947 1.59984 28.1552 1.90489C28.2157 2.20994 28.2159 2.524 28.1559 2.82914C28.0959 3.13428 27.9768 3.42451 27.8055 3.68327L27.2978 4.44826C27.0793 4.7787 26.9812 5.17522 27.0202 5.57034C27.0592 5.96547 27.2329 6.33476 27.5117 6.61535C28.5588 7.67056 29.2106 9.05882 29.3563 10.5438C29.502 12.0289 29.1325 13.5189 28.3108 14.7603L27.8055 15.5253C27.4595 16.0479 26.9217 16.4106 26.3104 16.5336C25.699 16.6567 25.0642 16.5299 24.5456 16.1813C24.027 15.8327 23.6671 15.2908 23.545 14.6747C23.4229 14.0586 23.5486 13.419 23.8946 12.8963L24.4023 12.1314C24.6208 11.8009 24.7189 11.4044 24.6799 11.0093C24.6409 10.6141 24.4672 10.2449 24.1884 9.96426C23.1419 8.9092 22.4904 7.5214 22.3447 6.0369C22.199 4.55241 22.5681 3.0629 23.3893 1.82171L23.8946 1.05435C24.0659 0.795545 24.2861 0.573279 24.5426 0.400241C24.7991 0.227204 25.0869 0.106786 25.3897 0.0458639C25.6924 -0.0150578 26.004 -0.0152893 26.3068 0.0451824C26.6096 0.105654 26.8977 0.225644 27.1544 0.3983Z" fill="#E4DDCB"/>
</svg>
