<svg width="21" height="21" viewBox="0 0 21 21" fill="none" xmlns="http://www.w3.org/2000/svg">
<path d="M13.7812 3.28125C13.7812 4.15149 13.4355 4.98609 12.8202 5.60144C12.2048 6.2168 11.3702 6.5625 10.5 6.5625C9.62976 6.5625 8.79516 6.2168 8.17981 5.60144C7.56445 4.98609 7.21875 4.15149 7.21875 3.28125C7.21875 2.41101 7.56445 1.57641 8.17981 0.961056C8.79516 0.345702 9.62976 0 10.5 0C11.3702 0 12.2048 0.345702 12.8202 0.961056C13.4355 1.57641 13.7812 2.41101 13.7812 3.28125ZM20.3438 3.9375C20.3438 4.63369 20.0672 5.30137 19.5749 5.79366C19.0826 6.28594 18.4149 6.5625 17.7188 6.5625C17.0226 6.5625 16.3549 6.28594 15.8626 5.79366C15.3703 5.30137 15.0938 4.63369 15.0938 3.9375C15.0938 3.24131 15.3703 2.57363 15.8626 2.08134C16.3549 1.58906 17.0226 1.3125 17.7188 1.3125C18.4149 1.3125 19.0826 1.58906 19.5749 2.08134C20.0672 2.57363 20.3438 3.24131 20.3438 3.9375ZM3.28125 6.5625C3.97744 6.5625 4.64512 6.28594 5.13741 5.79366C5.62969 5.30137 5.90625 4.63369 5.90625 3.9375C5.90625 3.24131 5.62969 2.57363 5.13741 2.08134C4.64512 1.58906 3.97744 1.3125 3.28125 1.3125C2.58506 1.3125 1.91738 1.58906 1.42509 2.08134C0.932812 2.57363 0.65625 3.24131 0.65625 3.9375C0.65625 4.63369 0.932812 5.30137 1.42509 5.79366C1.91738 6.28594 2.58506 6.5625 3.28125 6.5625ZM5.25 9.51562C5.25 8.61 5.985 7.875 6.89062 7.875H14.1094C15.015 7.875 15.75 8.61 15.75 9.51562V15.75C15.75 17.1424 15.1969 18.4777 14.2123 19.4623C13.2277 20.4469 11.8924 21 10.5 21C9.10761 21 7.77225 20.4469 6.78769 19.4623C5.80312 18.4777 5.25 17.1424 5.25 15.75V9.51562ZM3.9375 9.51562C3.9375 8.90794 4.12125 8.34488 4.43494 7.875H1.64062C0.735 7.875 2.34124e-08 8.61 2.34124e-08 9.51562V14.4375C-6.12489e-05 14.9994 0.120144 15.5548 0.35254 16.0664C0.584935 16.578 0.924137 17.0339 1.34735 17.4036C1.77057 17.7732 2.268 18.048 2.80621 18.2094C3.34443 18.3709 3.91096 18.4152 4.46775 18.3396C4.11719 17.5213 3.93678 16.6402 3.9375 15.75V9.51562ZM17.0625 15.75C17.0625 16.6688 16.8735 17.5455 16.5322 18.3396C16.7055 18.3632 16.8822 18.375 17.0625 18.375C18.1068 18.375 19.1083 17.9602 19.8467 17.2217C20.5852 16.4833 21 15.4818 21 14.4375V9.51562C21 8.61 20.265 7.875 19.3594 7.875H16.5651C16.8801 8.34488 17.0625 8.90794 17.0625 9.51562V15.75Z" fill="#1E1E1E"/>
</svg>
