<svg width="24" height="29" viewBox="0 0 24 29" fill="none" xmlns="http://www.w3.org/2000/svg">
<path d="M1.47929e-06 20.6052V6.10527C1.47929e-06 4.75702 0.344002 3.68199 1.032 2.88017C1.72 2.07834 2.626 1.46782 3.75 1.04859C4.874 0.629361 6.1555 0.349537 7.5945 0.209116C9.0335 0.0686952 10.502 -0.00100656 12 1.09807e-05C13.65 1.09807e-05 15.2065 0.0702214 16.6695 0.210642C18.1325 0.351063 19.4075 0.630887 20.4945 1.05011C21.5815 1.46934 22.4375 2.07987 23.0625 2.88169C23.6875 3.68352 24 4.75804 24 6.10527V20.6052C24 22.1061 23.494 23.3719 22.482 24.4027C21.47 25.4335 20.226 25.9484 18.75 25.9473L19.5 26.7105C19.925 27.143 20.025 27.6329 19.8 28.1803C19.575 28.7278 19.1625 29.001 18.5625 29C18.3875 29 18.219 28.9684 18.057 28.9053C17.895 28.8423 17.751 28.7466 17.625 28.6184L15 25.9473H9L6.375 28.6184C6.25 28.7456 6.106 28.8412 5.943 28.9053C5.78 28.9694 5.612 29.001 5.439 29C4.864 29 4.458 28.7268 4.221 28.1803C3.984 27.6339 4.077 27.144 4.5 26.7105L5.25 25.9473C3.775 25.9473 2.531 25.4325 1.518 24.4027C0.505002 23.373 -0.000998521 22.1071 1.47929e-06 20.6052ZM3 12.2105H10.5V7.63158H3V12.2105ZM13.5 12.2105H21V7.63158H13.5V12.2105ZM6.75 21.3684C7.4 21.3684 7.9375 21.1522 8.3625 20.7197C8.7875 20.2873 9 19.7403 9 19.0789C9 18.4175 8.7875 17.8706 8.3625 17.4381C7.9375 17.0057 7.4 16.7895 6.75 16.7895C6.1 16.7895 5.5625 17.0057 5.1375 17.4381C4.7125 17.8706 4.5 18.4175 4.5 19.0789C4.5 19.7403 4.7125 20.2873 5.1375 20.7197C5.5625 21.1522 6.1 21.3684 6.75 21.3684ZM17.25 21.3684C17.9 21.3684 18.4375 21.1522 18.8625 20.7197C19.2875 20.2873 19.5 19.7403 19.5 19.0789C19.5 18.4175 19.2875 17.8706 18.8625 17.4381C18.4375 17.0057 17.9 16.7895 17.25 16.7895C16.6 16.7895 16.0625 17.0057 15.6375 17.4381C15.2125 17.8706 15 18.4175 15 19.0789C15 19.7403 15.2125 20.2873 15.6375 20.7197C16.0625 21.1522 16.6 21.3684 17.25 21.3684Z" fill="black"/>
</svg>
