<svg width="744" height="221" viewBox="0 0 744 221" fill="none" xmlns="http://www.w3.org/2000/svg">
<path d="M562.445 171.29C563.814 171.457 565.411 171.504 567.233 171.431C569.107 171.355 570.935 171.36 572.716 171.447C574.546 171.478 576.205 171.678 577.692 172.046C579.231 172.41 580.325 173.145 580.975 174.249C582.178 174.271 583.048 174.394 583.585 174.618C584.174 174.839 584.587 175.15 584.824 175.551C585.056 175.9 585.163 176.311 585.143 176.783C585.123 177.254 585.13 177.723 585.162 178.191C583.85 178.855 582.164 179.415 580.107 179.869C578.102 180.32 575.883 180.707 573.452 181.03C571.02 181.354 568.479 181.606 565.829 181.788C563.182 182.022 560.611 182.224 558.116 182.395C555.622 182.566 553.309 182.724 551.178 182.87C549.047 183.016 547.282 183.164 545.882 183.312C541.587 183.867 538.252 184.357 535.88 184.781C533.507 185.205 531.888 185.577 531.023 185.897C529.46 185.952 528.226 185.853 527.321 185.602C526.364 185.355 525.584 185.017 524.981 184.588C524.582 184.305 524.216 183.996 523.882 183.662C523.76 183.691 523.637 183.722 523.513 183.749C521.507 184.2 519.289 184.586 516.857 184.91C514.426 185.233 511.884 185.486 509.234 185.668C506.587 185.901 504.016 186.104 501.522 186.275C499.027 186.446 496.714 186.605 494.583 186.751C492.453 186.897 490.687 187.044 489.288 187.192C484.992 187.748 481.658 188.238 479.285 188.661C476.913 189.085 475.294 189.456 474.428 189.777C472.865 189.832 471.631 189.734 470.726 189.483C469.77 189.235 468.99 188.896 468.386 188.468C467.987 188.185 467.62 187.876 467.286 187.543C467.165 187.571 467.042 187.601 466.918 187.629C464.913 188.08 462.694 188.467 460.263 188.79C457.831 189.114 455.29 189.366 452.64 189.548C449.993 189.782 447.422 189.984 444.928 190.155C442.433 190.326 440.12 190.484 437.989 190.63C435.858 190.776 434.093 190.924 432.693 191.072C428.398 191.627 425.063 192.117 422.691 192.541C420.318 192.964 418.699 193.337 417.834 193.657C416.271 193.712 415.037 193.613 414.132 193.362C413.175 193.115 412.395 192.777 411.792 192.348C411.393 192.065 411.027 191.756 410.693 191.422C410.571 191.451 410.448 191.482 410.324 191.509C408.318 191.96 406.1 192.346 403.668 192.67C401.237 192.993 398.695 193.246 396.045 193.428C393.398 193.661 390.827 193.864 388.333 194.035C385.839 194.206 383.525 194.365 381.394 194.511C379.264 194.657 377.498 194.804 376.099 194.952C371.803 195.508 368.469 195.998 366.096 196.421C363.724 196.845 362.105 197.216 361.239 197.537C359.676 197.592 358.442 197.494 357.537 197.243C356.581 196.995 355.801 196.656 355.197 196.228C354.798 195.945 354.431 195.636 354.097 195.303C353.976 195.331 353.853 195.361 353.729 195.389C351.724 195.84 349.506 196.227 347.074 196.55C344.642 196.874 342.101 197.126 339.451 197.308C336.804 197.542 334.233 197.744 331.739 197.915C329.244 198.086 326.931 198.244 324.8 198.39C322.669 198.536 320.904 198.684 319.504 198.832C315.209 199.387 311.874 199.877 309.502 200.301C307.129 200.724 305.51 201.097 304.645 201.417C303.082 201.472 301.848 201.373 300.943 201.122C299.986 200.875 299.206 200.537 298.603 200.108C298.204 199.825 297.838 199.516 297.504 199.182C297.382 199.211 297.259 199.242 297.135 199.269C295.129 199.72 292.911 200.107 290.479 200.431C288.048 200.754 285.506 201.006 282.856 201.188C280.209 201.421 277.638 201.624 275.144 201.795C272.65 201.966 270.336 202.125 268.206 202.271C266.075 202.417 264.309 202.564 262.91 202.712C258.614 203.268 255.28 203.757 252.907 204.181C250.535 204.605 248.916 204.976 248.05 205.297C246.487 205.352 245.253 205.254 244.348 205.003C243.392 204.755 242.612 204.416 242.008 203.988C241.609 203.705 241.243 203.396 240.909 203.063C240.788 203.091 240.665 203.121 240.54 203.149C238.535 203.6 236.317 203.987 233.885 204.31C231.453 204.633 228.912 204.886 226.262 205.068C223.615 205.302 221.044 205.504 218.55 205.675C216.055 205.846 213.742 206.004 211.611 206.15C209.481 206.296 207.716 206.444 206.316 206.592C202.021 207.147 198.686 207.637 196.313 208.061C193.94 208.484 192.321 208.857 191.456 209.177C189.893 209.232 188.659 209.133 187.754 208.882C186.797 208.634 186.017 208.297 185.414 207.868C185.015 207.585 184.649 207.276 184.315 206.942C184.193 206.971 184.07 207.002 183.946 207.029C181.94 207.48 179.722 207.867 177.29 208.191C174.859 208.514 172.317 208.766 169.667 208.948C167.02 209.181 164.45 209.384 161.955 209.555C159.461 209.726 157.147 209.885 155.017 210.031C152.886 210.177 151.121 210.324 149.722 210.472C145.426 211.028 142.091 211.517 139.718 211.941C137.346 212.365 135.727 212.736 134.861 213.057C133.299 213.111 132.064 213.014 131.159 212.763C130.203 212.515 129.423 212.176 128.819 211.748C128.42 211.465 128.054 211.156 127.72 210.823C127.599 210.851 127.477 210.881 127.352 210.909C125.347 211.36 123.128 211.747 120.696 212.07C118.264 212.393 115.723 212.646 113.073 212.828C110.426 213.062 107.855 213.264 105.361 213.435C102.866 213.606 100.553 213.764 98.4221 213.91C96.2917 214.056 94.5268 214.204 93.1273 214.352C88.8317 214.907 85.4966 215.397 83.1239 215.821C80.7513 216.244 79.1323 216.617 78.2667 216.937C76.7041 216.992 75.4698 216.893 74.565 216.642C73.6085 216.394 72.8284 216.057 72.2248 215.628C71.8257 215.345 71.459 215.037 71.125 214.703C71.0037 214.731 70.8817 214.762 70.7578 214.789C68.7523 215.24 66.5333 215.627 64.1015 215.951C61.6697 216.274 59.1286 216.526 56.4783 216.708C53.8315 216.941 51.2606 217.144 48.7662 217.315C46.2716 217.486 43.9583 217.645 41.8276 217.791C39.6972 217.937 37.9323 218.084 36.5329 218.232C32.2372 218.788 28.9022 219.277 26.5294 219.701C24.1571 220.125 22.5379 220.496 21.6722 220.817C20.1096 220.871 18.8753 220.774 17.9705 220.523C17.0139 220.275 16.2339 219.936 15.6303 219.508C15.0266 219.079 14.4971 218.594 14.0422 218.05C13.5837 217.455 13.0469 216.866 12.4325 216.282C12.7158 215.845 12.7531 215.241 12.5439 214.473C12.2826 213.708 11.7494 213.17 10.945 212.859C11.5615 212.713 12.0079 212.368 12.2841 211.827C12.56 211.286 12.5594 210.895 12.2821 210.653C13.567 210.356 14.961 210.129 16.4644 209.974C17.9159 209.822 19.3694 209.697 20.8244 209.597C22.276 209.445 23.6482 209.272 24.9403 209.079C26.2287 208.834 27.3557 208.522 28.3217 208.143C32.3232 207.868 36.507 207.582 40.8724 207.282C45.2341 206.931 49.3084 206.574 53.0949 206.21C54.4639 206.377 56.0603 206.424 57.8828 206.351C59.7571 206.275 61.5849 206.28 63.366 206.367C65.1956 206.398 66.8542 206.598 68.3414 206.966C68.5995 207.027 68.8447 207.1 69.0778 207.182C69.0633 207.016 68.9993 206.879 68.8766 206.772C70.1614 206.476 71.5556 206.25 73.0589 206.095C74.5104 205.943 75.9638 205.816 77.4189 205.717C78.8705 205.565 80.2427 205.393 81.5348 205.2C82.8231 204.955 83.9502 204.643 84.9161 204.263C88.9177 203.989 93.1015 203.702 97.4669 203.403C101.829 203.052 105.903 202.693 109.689 202.329C111.058 202.497 112.655 202.545 114.477 202.472C116.352 202.396 118.179 202.401 119.96 202.488C121.79 202.519 123.449 202.718 124.936 203.086C125.194 203.147 125.439 203.219 125.672 203.301C125.658 203.136 125.593 203 125.471 202.893C126.756 202.596 128.15 202.369 129.653 202.214C131.105 202.062 132.558 201.937 134.013 201.837C135.465 201.685 136.837 201.512 138.129 201.319C139.418 201.074 140.545 200.762 141.511 200.383C145.512 200.108 149.696 199.822 154.061 199.522C158.423 199.171 162.497 198.814 166.284 198.45C167.653 198.617 169.249 198.664 171.072 198.592C172.946 198.515 174.774 198.52 176.555 198.607C178.385 198.638 180.043 198.838 181.53 199.206C181.788 199.267 182.034 199.34 182.267 199.422C182.252 199.256 182.188 199.119 182.066 199.012C183.35 198.716 184.745 198.49 186.248 198.335C187.699 198.183 189.153 198.056 190.608 197.957C192.059 197.805 193.432 197.633 194.724 197.44C196.012 197.195 197.139 196.883 198.105 196.503C202.107 196.229 206.29 195.942 210.656 195.643C215.018 195.292 219.092 194.933 222.878 194.569C224.247 194.737 225.844 194.785 227.666 194.712C229.541 194.636 231.368 194.641 233.149 194.728C234.979 194.759 236.638 194.958 238.125 195.326C238.383 195.387 238.628 195.459 238.861 195.541C238.847 195.376 238.782 195.24 238.66 195.133C239.945 194.836 241.339 194.609 242.842 194.454C244.294 194.302 245.747 194.177 247.202 194.077C248.654 193.925 250.026 193.752 251.318 193.559C252.607 193.315 253.734 193.002 254.7 192.623C258.701 192.348 262.885 192.062 267.25 191.762C271.612 191.411 275.686 191.054 279.473 190.69C280.842 190.857 282.438 190.904 284.261 190.832C286.135 190.755 287.963 190.76 289.744 190.847C291.574 190.878 293.232 191.078 294.719 191.446C294.977 191.507 295.223 191.58 295.456 191.662C295.441 191.496 295.377 191.359 295.255 191.253C296.539 190.956 297.933 190.73 299.437 190.575C300.888 190.423 302.342 190.296 303.797 190.197C305.248 190.045 306.621 189.873 307.913 189.68C309.201 189.435 310.328 189.123 311.294 188.743C315.296 188.469 319.479 188.182 323.845 187.883C328.207 187.532 332.281 187.173 336.067 186.809C337.436 186.977 339.033 187.024 340.855 186.951C342.729 186.875 344.557 186.881 346.338 186.968C348.168 186.999 349.827 187.198 351.314 187.566C351.572 187.628 351.817 187.699 352.05 187.781C352.036 187.616 351.971 187.48 351.849 187.373C353.134 187.076 354.528 186.849 356.031 186.694C357.483 186.542 358.936 186.417 360.391 186.317C361.843 186.165 363.215 185.993 364.507 185.8C365.796 185.555 366.923 185.242 367.889 184.863C371.89 184.589 376.074 184.302 380.439 184.002C384.801 183.651 388.875 183.294 392.662 182.93C394.031 183.097 395.627 183.144 397.45 183.072C399.324 182.995 401.152 183 402.933 183.087C404.762 183.118 406.421 183.318 407.908 183.686C408.166 183.747 408.412 183.82 408.645 183.902C408.63 183.736 408.566 183.6 408.443 183.493C409.728 183.196 411.122 182.97 412.626 182.815C414.077 182.663 415.531 182.536 416.986 182.437C418.437 182.285 419.81 182.113 421.102 181.92C422.39 181.675 423.517 181.363 424.483 180.983C428.485 180.709 432.668 180.422 437.034 180.123C441.396 179.772 445.47 179.414 449.256 179.049C450.625 179.217 452.222 179.264 454.044 179.191C455.918 179.115 457.746 179.12 459.527 179.207C461.357 179.238 463.016 179.438 464.503 179.806C464.761 179.868 465.006 179.939 465.239 180.021C465.225 179.856 465.16 179.72 465.038 179.613C466.323 179.316 467.717 179.09 469.22 178.934C470.672 178.783 472.125 178.657 473.58 178.557C475.032 178.406 476.404 178.233 477.696 178.04C478.985 177.795 480.112 177.482 481.078 177.103C485.079 176.829 489.263 176.542 493.628 176.242C497.99 175.891 502.064 175.534 505.851 175.17C507.22 175.337 508.816 175.384 510.639 175.312C512.513 175.235 514.341 175.241 516.122 175.327C517.951 175.358 519.61 175.558 521.097 175.926C521.355 175.987 521.601 176.06 521.834 176.142C521.819 175.976 521.755 175.84 521.632 175.733C522.917 175.436 524.311 175.21 525.815 175.055C527.266 174.903 528.72 174.777 530.175 174.677C531.626 174.525 532.998 174.353 534.291 174.16C535.579 173.915 536.706 173.603 537.672 173.223C541.674 172.949 545.857 172.662 550.223 172.363C554.584 172.012 558.659 171.654 562.445 171.29Z" fill="white"/>
<path d="M721.284 0C722.653 0.167199 724.248 0.215309 726.071 0.1426C727.945 0.0663045 729.774 0.0714888 731.555 0.158227C733.384 0.189451 735.042 0.38907 736.529 0.75695C738.068 1.12135 739.164 1.8553 739.814 2.95943C741.016 2.98144 741.886 3.10443 742.424 3.32863C743.013 3.54928 743.426 3.86091 743.662 4.26236C743.895 4.6118 744.001 5.02191 743.981 5.49302C743.962 5.96424 743.968 6.43377 744 6.90143C742.688 7.56573 741.003 8.12509 738.946 8.57942C736.94 9.03018 734.721 9.41737 732.289 9.74073C729.858 10.0641 727.316 10.317 724.666 10.4987C722.019 10.7323 719.448 10.9342 716.954 11.1052C714.46 11.2762 712.147 11.4348 710.016 11.5808C707.886 11.7269 706.12 11.8742 704.721 12.0223C700.425 12.5779 697.091 13.0676 694.718 13.4913C692.346 13.915 690.727 14.2873 689.861 14.6077C688.298 14.6626 687.064 14.564 686.159 14.3127C685.202 14.065 684.422 13.7274 683.818 13.2989C683.419 13.0156 683.053 12.7063 682.719 12.373C682.598 12.4012 682.475 12.4324 682.351 12.4599C680.346 12.9106 678.127 13.2978 675.695 13.6212C673.263 13.9445 670.722 14.1965 668.072 14.3781C665.425 14.6118 662.854 14.8146 660.359 14.9857C657.865 15.1567 655.553 15.3152 653.422 15.4613C651.291 15.6074 649.526 15.7546 648.126 15.9028C643.831 16.4583 640.496 16.948 638.124 17.3718C635.751 17.7954 634.132 18.1668 633.266 18.4872C631.704 18.5421 630.47 18.4444 629.565 18.1932C628.608 17.9455 627.827 17.6069 627.224 17.1784C626.825 16.8952 626.459 16.5866 626.125 16.2534C626.003 16.2816 625.881 16.3119 625.757 16.3394C623.751 16.7901 621.533 17.1773 619.101 17.5007C616.669 17.8241 614.127 18.0769 611.477 18.2586C608.83 18.4923 606.259 18.6941 603.765 18.8652C601.271 19.0362 598.958 19.1947 596.827 19.3408C594.697 19.4869 592.931 19.6341 591.532 19.7823C587.236 20.3378 583.902 20.8275 581.529 21.2513C579.157 21.6749 577.538 22.0473 576.672 22.3676C575.109 22.4226 573.875 22.3239 572.97 22.0727C572.014 21.825 571.233 21.4873 570.629 21.0588C570.23 20.7756 569.864 20.4663 569.53 20.1329C569.409 20.1611 569.286 20.1924 569.162 20.2198C567.157 20.6706 564.938 21.0578 562.507 21.3812C560.075 21.7045 557.533 21.9564 554.883 22.1381C552.236 22.3718 549.665 22.5746 547.17 22.7456C544.676 22.9166 542.364 23.0752 540.233 23.2213C538.102 23.3674 536.337 23.5146 534.937 23.6628C530.642 24.2183 527.307 24.708 524.935 25.1317C522.562 25.5554 520.943 25.9277 520.078 26.2481C518.515 26.303 517.281 26.2044 516.376 25.9531C515.419 25.7055 514.638 25.3678 514.035 24.9393C513.636 24.6561 513.27 24.3467 512.936 24.0134C512.814 24.0416 512.692 24.0719 512.568 24.0993C510.562 24.5501 508.344 24.9373 505.912 25.2606C503.48 25.584 500.939 25.8369 498.288 26.0186C495.641 26.2522 493.07 26.4541 490.576 26.6251C488.082 26.7961 485.769 26.9547 483.638 27.1008C481.508 27.2468 479.742 27.3941 478.343 27.5422C474.047 28.0978 470.713 28.5875 468.34 29.0112C465.968 29.4349 464.349 29.8072 463.483 30.1276C461.92 30.1825 460.686 30.0849 459.781 29.8336C458.825 29.5859 458.044 29.2473 457.44 28.8188C457.041 28.5355 456.675 28.2263 456.341 27.8929C456.22 27.9211 456.097 27.9524 455.973 27.9798C453.968 28.4305 451.749 28.8178 449.318 29.1411C446.886 29.4645 444.344 29.7164 441.694 29.8981C439.047 30.1317 436.476 30.3346 433.982 30.5056C431.487 30.6766 429.175 30.8352 427.044 30.9812C424.913 31.1273 423.148 31.2745 421.748 31.4227C417.453 31.9783 414.118 32.468 411.746 32.8917C409.373 33.3154 407.754 33.6877 406.889 34.0081C405.326 34.063 404.092 33.9643 403.187 33.7131C402.23 33.4654 401.449 33.1278 400.846 32.6993C400.447 32.416 400.081 32.1067 399.747 31.7734C399.625 31.8016 399.503 31.8319 399.379 31.8593C397.373 32.31 395.155 32.6973 392.723 33.0206C390.291 33.344 387.75 33.5968 385.099 33.7785C382.452 34.0122 379.881 34.2141 377.387 34.3851C374.893 34.5561 372.58 34.7147 370.449 34.8607C368.319 35.0068 366.553 35.154 365.154 35.3022C360.858 35.8578 357.524 36.3474 355.151 36.7712C352.779 37.1949 351.16 37.5672 350.294 37.8876C348.731 37.9425 347.497 37.8448 346.592 37.5936C345.636 37.3459 344.856 37.0072 344.252 36.5788C343.853 36.2954 343.487 35.9863 343.152 35.6528C343.031 35.6811 342.908 35.7123 342.784 35.7398C340.779 36.1905 338.56 36.5777 336.129 36.9011C333.697 37.2244 331.155 37.4763 328.505 37.658C325.858 37.8917 323.287 38.0945 320.793 38.2655C318.298 38.4365 315.986 38.5951 313.855 38.7412C311.724 38.8873 309.959 39.0345 308.559 39.1827C304.264 39.7382 300.929 40.2279 298.557 40.6516C296.184 41.0753 294.565 41.4476 293.7 41.768C292.137 41.8229 290.903 41.7243 289.998 41.4731C289.041 41.2254 288.261 40.8876 287.658 40.4592C287.259 40.1759 286.892 39.8667 286.558 39.5333C286.436 39.5615 286.314 39.5918 286.19 39.6193C284.184 40.07 281.966 40.4572 279.534 40.7806C277.103 41.1039 274.561 41.3568 271.91 41.5385C269.263 41.7722 266.692 41.974 264.198 42.145C261.704 42.316 259.391 42.4746 257.261 42.6207C255.13 42.7668 253.364 42.914 251.965 43.0622C247.669 43.6177 244.335 44.1074 241.962 44.5311C239.59 44.9548 237.971 45.3271 237.105 45.6475C235.542 45.7024 234.308 45.6048 233.403 45.3535C232.447 45.1059 231.667 44.7672 231.063 44.3387C230.664 44.0554 230.298 43.7463 229.963 43.4128C229.842 43.441 229.719 43.4723 229.595 43.4997C227.59 43.9505 225.372 44.3377 222.94 44.661C220.508 44.9844 217.966 45.2363 215.316 45.418C212.669 45.6517 210.098 45.8545 207.604 46.0255C205.109 46.1965 202.797 46.3551 200.666 46.5012C198.535 46.6472 196.77 46.7945 195.37 46.9426C191.075 47.4982 187.741 47.9879 185.368 48.4116C182.995 48.8353 181.376 49.2076 180.511 49.528C178.948 49.5829 177.714 49.4843 176.809 49.233C175.852 48.9854 175.072 48.6475 174.469 48.2192C174.07 47.9359 173.703 47.6267 173.369 47.2933C173.247 47.3215 173.125 47.3518 173.001 47.3792C170.995 47.83 168.777 48.2172 166.345 48.5405C163.914 48.8639 161.372 49.1168 158.721 49.2985C156.074 49.5321 153.504 49.734 151.009 49.905C148.515 50.076 146.202 50.2346 144.072 50.3807C141.941 50.5267 140.175 50.674 138.776 50.8221C134.48 51.3777 131.146 51.8674 128.773 52.2911C126.401 52.7148 124.782 53.0871 123.916 53.4075C122.354 53.4624 121.119 53.3647 120.214 53.1135C119.258 52.8658 118.478 52.5271 117.874 52.0987C117.475 51.8153 117.109 51.5063 116.774 51.1728C116.653 51.201 116.531 51.2323 116.406 51.2597C114.401 51.7104 112.183 52.0977 109.751 52.421C107.319 52.7444 104.777 52.9962 102.127 53.1779C99.48 53.4116 96.909 53.6145 94.4146 53.7855C91.9203 53.9565 89.6077 54.115 87.4771 54.2611C85.3464 54.4072 83.5809 54.5544 82.1814 54.7026C77.8859 55.2581 74.5516 55.7478 72.1789 56.1716C69.8063 56.5953 68.1873 56.9675 67.3217 57.2879C65.759 57.3429 64.5248 57.2442 63.62 56.993C62.6635 56.7454 61.8834 56.4075 61.2798 55.9792C60.8806 55.6958 60.5141 55.3866 60.18 55.0532C60.0585 55.0814 59.936 55.1118 59.8118 55.1392C57.8065 55.5899 55.5881 55.9771 53.1565 56.3005C50.7246 56.6239 48.1827 56.8767 45.5323 57.0584C42.8855 57.2921 40.3145 57.4939 37.8202 57.665C35.3258 57.836 33.0132 57.9945 30.8826 58.1406C28.7519 58.2867 26.9865 58.4339 25.5869 58.5821C21.2914 59.1376 17.9571 59.6273 15.5844 60.0511C13.212 60.4747 11.5929 60.8471 10.7272 61.1674C9.16457 61.2224 7.93033 61.1247 7.02547 60.8734C6.06882 60.6258 5.28895 60.2871 4.68528 59.8586C4.08163 59.4302 3.55205 58.9445 3.09715 58.4014C2.63864 57.8063 2.10195 57.216 1.48753 56.6316C1.7707 56.1945 1.80819 55.5914 1.59887 54.8227C1.33756 54.0575 0.804386 53.5195 0 53.2092C0.616341 53.0625 1.06293 52.7188 1.33907 52.1778C1.61517 51.6368 1.61377 51.2448 1.33614 51.0028C2.62112 50.7059 4.01584 50.4803 5.51939 50.325C6.97095 50.1732 8.4243 50.0477 9.87942 49.948C11.331 49.7962 12.7032 49.6233 13.9953 49.4303C15.2836 49.1854 16.4107 48.8731 17.3766 48.4936C21.3783 48.2193 25.562 47.9325 29.9274 47.6332C34.2891 47.2819 38.3634 46.9248 42.1499 46.5607C43.5189 46.728 45.1153 46.7751 46.9377 46.7024C48.8121 46.6261 50.6399 46.6313 52.421 46.718C54.2505 46.7492 55.9092 46.9488 57.3964 47.3167C57.6545 47.3778 57.8997 47.4506 58.1328 47.5326C58.1184 47.367 58.0535 47.2304 57.9306 47.1233C59.2156 46.8264 60.6103 46.5998 62.1139 46.4445C63.5654 46.2928 65.0188 46.1673 66.4739 46.0675C67.9255 45.9158 69.2977 45.7438 70.5898 45.5508C71.8781 45.3059 73.0052 44.9936 73.9711 44.6142C77.9728 44.3398 82.1564 44.053 86.5218 43.7537C90.8836 43.4024 94.9578 43.0443 98.7444 42.6803C100.113 42.8475 101.71 42.8946 103.532 42.8219C105.407 42.7456 107.234 42.7508 109.015 42.8375C110.845 42.8687 112.504 43.0683 113.991 43.4362C114.249 43.4974 114.494 43.5702 114.727 43.6521C114.713 43.4867 114.648 43.3498 114.525 43.2429C115.81 42.9459 117.205 42.7203 118.708 42.565C120.16 42.4133 121.613 42.2878 123.068 42.188C124.52 42.0363 125.892 41.8634 127.184 41.6704C128.473 41.4254 129.6 41.1131 130.566 40.7337C134.567 40.4593 138.751 40.1725 143.116 39.8732C147.478 39.522 151.552 39.1648 155.339 38.8008C156.708 38.968 158.304 39.0151 160.127 38.9424C162.001 38.8661 163.829 38.8713 165.61 38.958C167.439 38.9892 169.098 39.1888 170.585 39.5568C170.843 39.6179 171.089 39.6907 171.322 39.7726C171.307 39.607 171.242 39.4704 171.12 39.3634C172.405 39.0664 173.799 38.8398 175.303 38.6846C176.754 38.5328 178.208 38.4073 179.663 38.3075C181.114 38.1558 182.487 37.9839 183.779 37.7909C185.067 37.5459 186.194 37.2336 187.16 36.8542C191.162 36.5799 195.345 36.293 199.711 35.9937C204.073 35.6425 208.147 35.2843 211.933 34.9203C213.302 35.0875 214.899 35.1347 216.721 35.0619C218.595 34.9857 220.423 34.9908 222.204 35.0776C224.034 35.1088 225.693 35.3083 227.18 35.6763C227.438 35.7374 227.683 35.8102 227.916 35.8921C227.902 35.7267 227.837 35.5899 227.714 35.4829C228.999 35.1859 230.394 34.9604 231.897 34.8051C233.349 34.6533 234.802 34.5278 236.257 34.428C237.709 34.2763 239.081 34.1034 240.373 33.9104C241.662 33.6654 242.789 33.3532 243.755 32.9737C247.756 32.6994 251.94 32.4125 256.305 32.1132C260.667 31.762 264.741 31.4048 268.528 31.0408C269.897 31.208 271.493 31.2552 273.316 31.1824C275.19 31.1062 277.018 31.1113 278.799 31.1981C280.628 31.2293 282.287 31.4288 283.774 31.7968C284.032 31.8579 284.278 31.9307 284.511 32.0126C284.496 31.847 284.431 31.7105 284.309 31.6034C285.594 31.3065 286.988 31.0799 288.492 30.9246C289.943 30.7729 291.397 30.6473 292.852 30.5476C294.303 30.3959 295.676 30.2239 296.968 30.0309C298.256 29.7859 299.383 29.4737 300.349 29.0942C304.351 28.8199 308.534 28.533 312.9 28.2338C317.262 27.8825 321.336 27.5244 325.122 27.1603C326.491 27.3275 328.087 27.3747 329.909 27.302C331.784 27.2257 333.612 27.2309 335.393 27.3176C337.223 27.3488 338.882 27.5484 340.369 27.9163C340.627 27.9774 340.872 28.0502 341.105 28.1322C341.091 27.9668 341.026 27.8299 340.903 27.7229C342.188 27.426 343.583 27.2004 345.086 27.0451C346.538 26.8934 347.991 26.7678 349.446 26.6681C350.898 26.5164 352.27 26.3434 353.562 26.1504C354.85 25.9055 355.978 25.5932 356.944 25.2138C360.945 24.9394 365.129 24.6526 369.494 24.3533C373.856 24.002 377.93 23.6449 381.717 23.2809C383.086 23.4481 384.681 23.4952 386.504 23.4225C388.378 23.3462 390.207 23.3514 391.988 23.4381C393.817 23.4693 395.476 23.6689 396.963 24.0368C397.221 24.098 397.467 24.1707 397.7 24.2527C397.685 24.087 397.62 23.9505 397.498 23.8434C398.782 23.5465 400.177 23.3199 401.681 23.1646C403.132 23.0129 404.586 22.8874 406.041 22.7876C407.492 22.6359 408.865 22.4639 410.157 22.2709C411.445 22.026 412.572 21.7128 413.538 21.3333C417.54 21.059 421.723 20.7731 426.089 20.4738C430.451 20.1225 434.525 19.7644 438.311 19.4004C439.68 19.5676 441.276 19.6147 443.098 19.542C444.973 19.4657 446.801 19.4709 448.582 19.5576C450.412 19.5889 452.071 19.7884 453.558 20.1564C453.816 20.2175 454.061 20.2903 454.294 20.3722C454.28 20.2068 454.215 20.07 454.092 19.963C455.377 19.666 456.772 19.4404 458.275 19.2851C459.727 19.1334 461.18 19.0069 462.635 18.9072C464.087 18.7554 465.459 18.5835 466.751 18.3905C468.039 18.1455 469.167 17.8333 470.132 17.4538C474.134 17.1795 478.318 16.8926 482.683 16.5933C487.045 16.2421 491.119 15.8849 494.906 15.5209C496.275 15.6881 497.87 15.7352 499.693 15.6625C501.567 15.5862 503.396 15.5914 505.177 15.6781C507.006 15.7094 508.665 15.9089 510.152 16.2769C510.41 16.338 510.656 16.4099 510.889 16.4917C510.874 16.3265 510.809 16.1904 510.686 16.0835C511.971 15.7865 513.366 15.56 514.87 15.4047C516.321 15.2529 517.775 15.1274 519.23 15.0277C520.681 14.8759 522.054 14.704 523.346 14.511C524.634 14.266 525.761 13.9528 526.727 13.5733C530.729 13.299 534.912 13.0131 539.278 12.7138C543.639 12.3626 547.714 12.0045 551.5 11.6404C552.869 11.8076 554.465 11.8548 556.287 11.7821C558.162 11.7058 559.99 11.7109 561.771 11.7977C563.601 11.8289 565.26 12.0285 566.747 12.3964C567.005 12.4575 567.25 12.5303 567.483 12.6123C567.469 12.4468 567.404 12.31 567.281 12.203C568.566 11.9061 569.961 11.6805 571.464 11.5252C572.916 11.3735 574.369 11.2469 575.824 11.1472C577.276 10.9955 578.647 10.8235 579.939 10.6305C581.228 10.3855 582.355 10.0734 583.321 9.69385C587.323 9.4195 591.507 9.13265 595.872 8.83336C600.234 8.48212 604.308 8.12399 608.095 7.75996C609.464 7.92716 611.059 7.97527 612.882 7.90256C614.756 7.82627 616.585 7.83145 618.366 7.91819C620.195 7.94941 621.854 8.14897 623.341 8.51691C623.599 8.57802 623.845 8.64989 624.078 8.73179C624.063 8.56655 623.998 8.43042 623.875 8.32352C625.16 8.02657 626.555 7.8 628.059 7.64471C629.51 7.49299 630.964 7.36745 632.419 7.2677C633.87 7.11599 635.242 6.94302 636.534 6.75004C637.822 6.50506 638.95 6.19289 639.916 5.81338C643.918 5.53904 648.101 5.25218 652.467 4.9529C656.828 4.60165 660.903 4.24449 664.689 3.88047C666.058 4.04767 667.654 4.0948 669.476 4.02209C671.35 3.9458 673.179 3.95098 674.96 4.03772C676.79 4.06894 678.449 4.2685 679.936 4.63644C680.194 4.69757 680.439 4.77036 680.672 4.85229C680.658 4.68683 680.593 4.55006 680.47 4.44305C681.755 4.1461 683.15 3.92051 684.653 3.76522C686.105 3.6135 687.558 3.48699 689.013 3.38723C690.465 3.23552 691.836 3.06352 693.128 2.87055C694.417 2.62557 695.544 2.31339 696.51 1.93389C700.512 1.65954 704.696 1.37269 709.061 1.0734C713.423 0.722156 717.497 0.364025 721.284 0Z" fill="white"/>
</svg>
