<svg width="750" height="228" viewBox="0 0 750 228" fill="none" xmlns="http://www.w3.org/2000/svg">
<path d="M539.868 172.45C542.095 172.722 544.691 172.799 547.656 172.681C550.705 172.557 553.678 172.565 556.576 172.706C559.552 172.757 562.25 173.082 564.669 173.68C567.173 174.273 568.954 175.468 570.012 177.264C571.968 177.3 573.383 177.501 574.257 177.865C575.216 178.224 575.888 178.73 576.273 179.383C576.651 179.951 576.824 180.62 576.792 181.386C576.76 182.153 576.77 182.917 576.822 183.677C574.688 184.758 571.947 185.668 568.6 186.407C565.338 187.141 561.728 187.77 557.772 188.296C553.816 188.822 549.682 189.233 545.371 189.528C541.065 189.909 536.883 190.238 532.824 190.516C528.766 190.794 525.004 191.052 521.538 191.289C518.072 191.527 515.199 191.767 512.923 192.008C505.935 192.912 500.511 193.709 496.651 194.398C492.791 195.087 490.157 195.692 488.749 196.214C486.207 196.303 484.199 196.143 482.727 195.734C481.171 195.332 479.901 194.781 478.919 194.084C478.27 193.623 477.675 193.121 477.131 192.579C476.934 192.625 476.734 192.674 476.532 192.719C473.27 193.452 469.66 194.082 465.704 194.608C461.748 195.134 457.614 195.544 453.303 195.84C448.997 196.22 444.815 196.549 440.757 196.828C436.699 197.106 432.936 197.364 429.47 197.602C426.004 197.84 423.131 198.079 420.855 198.32C413.867 199.224 408.443 200.02 404.583 200.709C400.723 201.399 398.089 202.004 396.681 202.525C394.139 202.615 392.131 202.455 390.659 202.046C389.103 201.643 387.833 201.094 386.851 200.397C386.202 199.936 385.607 199.433 385.063 198.891C384.866 198.937 384.666 198.986 384.464 199.031C381.202 199.764 377.592 200.394 373.636 200.92C369.68 201.446 365.546 201.857 361.235 202.153C356.929 202.533 352.747 202.862 348.689 203.14C344.631 203.418 340.868 203.676 337.402 203.914C333.936 204.151 331.063 204.39 328.787 204.631C321.799 205.535 316.375 206.332 312.515 207.021C308.655 207.71 306.021 208.317 304.613 208.838C302.071 208.927 300.063 208.767 298.591 208.359C297.035 207.956 295.765 207.405 294.783 206.708C294.134 206.248 293.539 205.745 292.995 205.203C292.798 205.249 292.598 205.299 292.396 205.343C289.134 206.077 285.524 206.706 281.568 207.232C277.612 207.758 273.478 208.169 269.167 208.464C264.861 208.845 260.679 209.174 256.621 209.452C252.563 209.73 248.8 209.988 245.334 210.225C241.868 210.463 238.996 210.703 236.719 210.944C229.731 211.848 224.307 212.644 220.447 213.334C216.587 214.023 213.953 214.628 212.545 215.15C210.003 215.239 207.995 215.079 206.523 214.67C204.967 214.267 203.697 213.717 202.715 213.02C202.066 212.559 201.471 212.057 200.928 211.515C200.73 211.561 200.53 211.61 200.328 211.655C197.066 212.388 193.456 213.018 189.5 213.544C185.544 214.07 181.41 214.48 177.099 214.776C172.793 215.156 168.611 215.485 164.553 215.764C160.495 216.042 156.732 216.3 153.266 216.538C149.8 216.776 146.928 217.015 144.652 217.256C137.664 218.159 132.239 218.956 128.379 219.645C124.519 220.335 121.885 220.94 120.477 221.461C117.935 221.551 115.927 221.391 114.455 220.982C112.899 220.579 111.629 220.03 110.647 219.333C109.998 218.872 109.403 218.369 108.86 217.827C108.662 217.873 108.463 217.922 108.26 217.967C104.998 218.7 101.388 219.33 97.4321 219.856C93.4761 220.382 89.3423 220.793 85.0308 221.089C80.7249 221.469 76.5428 221.798 72.4847 222.076C68.4267 222.354 64.6643 222.612 61.1981 222.85C57.732 223.087 54.8605 223.326 52.5837 223.567C45.5958 224.471 40.1713 225.268 36.3113 225.957C32.4513 226.646 29.817 227.253 28.4088 227.774C25.8668 227.863 23.8595 227.703 22.3875 227.295C20.831 226.892 19.5612 226.341 18.579 225.644C17.597 224.947 16.7357 224.157 15.9957 223.273C15.2498 222.305 14.3776 221.345 13.3782 220.394C13.8388 219.683 13.8985 218.703 13.5581 217.452C13.133 216.207 12.2659 215.332 10.9571 214.827C11.96 214.588 12.6864 214.029 13.1357 213.149C13.5848 212.269 13.584 211.632 13.1327 211.238C15.223 210.755 17.4913 210.387 19.9372 210.134C22.2985 209.888 24.663 209.683 27.0301 209.52C29.3914 209.274 31.6231 208.993 33.725 208.679C35.8211 208.281 37.6546 207.772 39.2261 207.155C45.7358 206.709 52.5419 206.243 59.6434 205.756C66.7392 205.184 73.3677 204.603 79.5278 204.011C81.7549 204.283 84.3511 204.36 87.3159 204.241C90.3652 204.117 93.3387 204.126 96.2363 204.267C99.2125 204.317 101.91 204.642 104.329 205.241C104.752 205.341 105.153 205.459 105.534 205.594C105.511 205.323 105.401 205.1 105.201 204.926C107.291 204.443 109.559 204.075 112.005 203.823C114.366 203.576 116.731 203.371 119.098 203.209C121.459 202.962 123.691 202.682 125.793 202.368C127.889 201.969 129.723 201.461 131.294 200.843C137.804 200.397 144.61 199.931 151.711 199.444C158.807 198.873 165.436 198.291 171.596 197.699C173.823 197.971 176.419 198.047 179.384 197.929C182.433 197.805 185.407 197.813 188.304 197.954C191.28 198.005 193.978 198.33 196.397 198.929C196.82 199.029 197.221 199.147 197.602 199.281C197.579 199.011 197.469 198.789 197.269 198.614C199.359 198.131 201.627 197.763 204.073 197.51C206.434 197.263 208.799 197.059 211.166 196.897C213.527 196.65 215.759 196.369 217.861 196.055C219.957 195.657 221.791 195.149 223.362 194.532C229.872 194.086 236.678 193.618 243.779 193.132C250.875 192.56 257.504 191.978 263.664 191.386C265.891 191.658 268.487 191.735 271.452 191.617C274.501 191.493 277.475 191.501 280.372 191.642C283.348 191.693 286.046 192.018 288.465 192.616C288.888 192.716 289.289 192.835 289.67 192.969C289.647 192.699 289.536 192.477 289.336 192.302C291.426 191.819 293.695 191.451 296.141 191.198C298.502 190.952 300.867 190.747 303.234 190.584C305.595 190.338 307.827 190.058 309.929 189.744C312.025 189.345 313.858 188.837 315.43 188.219C321.94 187.773 328.746 187.307 335.847 186.82C342.943 186.249 349.572 185.667 355.732 185.075C357.959 185.347 360.555 185.424 363.52 185.305C366.569 185.181 369.543 185.19 372.44 185.331C375.416 185.382 378.114 185.706 380.533 186.305C380.956 186.405 381.357 186.523 381.738 186.658C381.715 186.387 381.604 186.164 381.404 185.99C383.494 185.507 385.763 185.139 388.209 184.887C390.57 184.64 392.935 184.435 395.302 184.273C397.663 184.026 399.895 183.746 401.997 183.432C404.093 183.033 405.926 182.525 407.498 181.908C414.008 181.461 420.814 180.995 427.915 180.508C435.011 179.937 441.639 179.354 447.8 178.762C450.027 179.034 452.623 179.111 455.588 178.993C458.637 178.869 461.611 178.877 464.508 179.018C467.484 179.069 470.182 179.394 472.601 179.993C473.023 180.093 473.425 180.211 473.806 180.345C473.783 180.075 473.672 179.853 473.472 179.678C475.562 179.195 477.831 178.827 480.277 178.574C482.638 178.327 485.003 178.123 487.37 177.961C489.731 177.714 491.963 177.433 494.065 177.119C496.161 176.721 497.994 176.213 499.566 175.596C506.076 175.15 512.882 174.683 519.983 174.196C527.079 173.624 533.707 173.043 539.868 172.45Z" fill="#1E1E1E"/>
<path d="M713.046 0C715.273 0.271972 717.869 0.349052 720.833 0.230759C723.883 0.106642 726.857 0.115076 729.755 0.256182C732.731 0.306972 735.429 0.631508 737.848 1.23006C740.352 1.82287 742.133 3.01747 743.191 4.81367C745.146 4.84947 746.562 5.05029 747.436 5.41501C748.395 5.77396 749.067 6.27948 749.451 6.93255C749.83 7.50117 750.003 8.16936 749.971 8.93604C749.938 9.70259 749.948 10.4663 750 11.227C747.866 12.3076 745.125 13.2179 741.779 13.957C738.516 14.6903 734.907 15.3201 730.951 15.8461C726.995 16.3722 722.86 16.7825 718.548 17.0781C714.243 17.4583 710.06 17.7875 706.002 18.0657C701.945 18.3439 698.183 18.6015 694.717 18.8391C691.25 19.0768 688.378 19.3168 686.101 19.5578C679.113 20.4616 673.689 21.2582 669.829 21.9475C665.969 22.6368 663.335 23.2421 661.926 23.7633C659.384 23.8526 657.377 23.6929 655.905 23.2842C654.349 22.8812 653.08 22.3307 652.098 21.6337C651.449 21.173 650.853 20.6709 650.31 20.1288C650.112 20.1748 649.913 20.224 649.711 20.2687C646.448 21.002 642.839 21.6317 638.883 22.1578C634.927 22.6838 630.792 23.0942 626.48 23.3898C622.175 23.7699 617.992 24.0991 613.934 24.3773C609.877 24.6555 606.115 24.9141 602.649 25.1518C599.182 25.3894 596.31 25.6284 594.033 25.8695C587.045 26.7732 581.621 27.5698 577.761 28.2592C573.901 28.9485 571.267 29.5537 569.858 30.0749C567.317 30.1642 565.31 30.0044 563.838 29.5958C562.282 29.1929 561.012 28.6434 560.03 27.9463C559.381 27.4856 558.786 26.9826 558.242 26.4405C558.044 26.4864 557.845 26.5356 557.643 26.5803C554.38 27.3136 550.771 27.9434 546.815 28.4694C542.859 28.9955 538.724 29.4068 534.412 29.7024C530.107 30.0825 525.925 30.4118 521.867 30.69C517.809 30.9682 514.047 31.2258 510.581 31.4634C507.114 31.701 504.242 31.9401 501.965 32.1811C494.977 33.0849 489.553 33.8815 485.693 34.5708C481.833 35.2601 479.199 35.8663 477.79 36.3876C475.249 36.4769 473.242 36.317 471.77 35.9084C470.214 35.5055 468.944 34.9551 467.962 34.2579C467.313 33.7973 466.718 33.2951 466.174 32.7531C465.976 32.799 465.777 32.8483 465.575 32.8929C462.312 33.6262 458.703 34.256 454.747 34.782C450.791 35.3081 446.656 35.7184 442.344 36.014C438.039 36.3942 433.857 36.7234 429.799 37.0016C425.741 37.2798 421.979 37.5374 418.513 37.7751C415.046 38.0127 412.174 38.2527 409.897 38.4937C402.909 39.3975 397.485 40.1941 393.625 40.8835C389.766 41.5727 387.132 42.178 385.723 42.6992C383.182 42.7885 381.174 42.6287 379.702 42.2201C378.146 41.8172 376.876 41.2667 375.894 40.5696C375.245 40.109 374.65 39.6068 374.106 39.0648C373.908 39.1107 373.709 39.1599 373.507 39.2046C370.244 39.9379 366.635 40.5676 362.679 41.0937C358.723 41.6197 354.589 42.0301 350.277 42.3257C345.972 42.7058 341.789 43.0351 337.731 43.3133C333.673 43.5915 329.911 43.85 326.445 44.0877C322.979 44.3253 320.106 44.5643 317.829 44.8054C310.841 45.7092 305.417 46.5058 301.557 47.1951C297.698 47.8843 295.064 48.4897 293.655 49.0109C291.114 49.1002 289.106 48.9404 287.634 48.5317C286.078 48.1288 284.808 47.5793 283.826 46.8822C283.177 46.4215 282.582 45.9186 282.038 45.3764C281.84 45.4223 281.641 45.4716 281.439 45.5162C278.177 46.2495 274.567 46.8793 270.611 47.4053C266.655 47.9314 262.521 48.3427 258.21 48.6383C253.904 49.0185 249.721 49.3477 245.663 49.6259C241.606 49.9041 237.843 50.1617 234.377 50.3993C230.911 50.637 228.038 50.876 225.762 51.117C218.773 52.0208 213.349 52.8174 209.489 53.5068C205.629 54.196 202.996 54.8023 201.588 55.3235C199.046 55.4128 197.038 55.253 195.566 54.8444C194.01 54.4414 192.74 53.891 191.758 53.1939C191.109 52.7332 190.514 52.2311 189.97 51.689C189.773 51.735 189.573 51.7842 189.371 51.8289C186.109 52.5622 182.499 53.1919 178.543 53.718C174.587 54.244 170.453 54.6544 166.142 54.95C161.836 55.3301 157.653 55.6593 153.596 55.9375C149.538 56.2158 145.775 56.4743 142.309 56.712C138.843 56.9496 135.97 57.1886 133.694 57.4297C126.706 58.3334 121.281 59.1301 117.421 59.8194C113.562 60.5086 110.928 61.1139 109.52 61.6351C106.978 61.7245 104.97 61.5647 103.498 61.156C101.942 60.7531 100.672 60.2026 99.6898 59.5055C99.0409 59.0449 98.4457 58.5427 97.9024 58.0007C97.7046 58.0466 97.5054 58.0958 97.3031 58.1405C94.0406 58.8738 90.4311 59.5036 86.475 60.0296C82.519 60.5556 78.3852 60.967 74.0736 61.2626C69.7679 61.6427 65.5856 61.971 61.5276 62.2492C57.4696 62.5274 53.7071 62.786 50.2409 63.0236C46.7746 63.2612 43.9025 63.5003 41.6256 63.7413C34.6379 64.645 29.2141 65.4417 25.3542 66.131C21.4945 66.8203 18.86 67.4256 17.4516 67.9468C14.9097 68.0361 12.9024 67.8764 11.4304 67.4677C9.87385 67.0647 8.60403 66.5153 7.62189 65.8181C6.63978 65.121 5.77865 64.3306 5.03856 63.447C4.29266 62.4788 3.41957 61.5191 2.42004 60.5684C2.88093 59.8572 2.9415 58.876 2.60093 57.6252C2.17577 56.3804 1.30861 55.5056 0 55.0008C1.00281 54.7622 1.72921 54.203 2.17852 53.3229C2.62782 52.4427 2.62631 51.8051 2.17461 51.4113C4.26488 50.9283 6.53328 50.561 8.97907 50.3084C11.3405 50.0616 13.7057 49.8566 16.073 49.6943C18.4342 49.4475 20.666 49.1674 22.7679 48.8534C24.8639 48.4549 26.6975 47.9464 28.269 47.3291C34.7787 46.8828 41.5847 46.4167 48.6862 45.9298C55.7821 45.3584 62.4105 44.7767 68.5706 44.1845C70.7977 44.4565 73.394 44.5326 76.3587 44.4143C79.408 44.2902 82.3816 44.2986 85.2791 44.4397C88.2554 44.4905 90.953 44.816 93.3723 45.4145C93.7945 45.5145 94.1959 45.6324 94.577 45.7666C94.5538 45.4965 94.4428 45.2742 94.2426 45.0997C96.3329 44.6166 98.6012 44.2484 101.047 43.9958C103.408 43.749 105.773 43.545 108.14 43.3827C110.501 43.1359 112.734 42.8548 114.836 42.5408C116.932 42.1423 118.766 41.6347 120.337 41.0174C126.847 40.5711 133.653 40.1041 140.754 39.6172C147.85 39.0458 154.478 38.4641 160.639 37.8719C162.866 38.1439 165.462 38.2209 168.427 38.1026C171.476 37.9785 174.45 37.9869 177.347 38.128C180.323 38.1788 183.021 38.5034 185.44 39.1019C185.863 39.2019 186.264 39.3207 186.645 39.4549C186.622 39.1847 186.511 38.9626 186.311 38.788C188.401 38.305 190.669 37.9367 193.115 37.6841C195.476 37.4373 197.841 37.2324 200.208 37.0701C202.569 36.8232 204.802 36.5432 206.904 36.2292C209 35.8306 210.833 35.3221 212.405 34.7048C218.915 34.2585 225.721 33.7924 232.822 33.3056C239.918 32.7341 246.546 32.1524 252.707 31.5602C254.934 31.8322 257.53 31.9093 260.495 31.791C263.544 31.6669 266.518 31.6753 269.415 31.8164C272.391 31.8672 275.089 32.1917 277.508 32.7903C277.931 32.8902 278.332 33.0091 278.713 33.1433C278.69 32.8729 278.579 32.6501 278.378 32.4754C280.469 31.9924 282.737 31.6251 285.183 31.3725C287.544 31.1256 289.909 30.9207 292.276 30.7584C294.637 30.5116 296.87 30.2315 298.972 29.9175C301.068 29.519 302.901 29.0105 304.473 28.3931C310.983 27.9468 317.789 27.4808 324.89 26.9939C331.986 26.4225 338.614 25.8408 344.774 25.2486C347.001 25.5205 349.597 25.5966 352.562 25.4783C355.611 25.3542 358.585 25.3627 361.483 25.5038C364.459 25.5545 367.157 25.88 369.576 26.4786C369.998 26.5786 370.4 26.6965 370.781 26.8306C370.758 26.5606 370.647 26.3383 370.446 26.1638C372.537 25.6807 374.805 25.3125 377.251 25.0598C379.612 24.813 381.977 24.6091 384.344 24.4468C386.705 24.1999 388.938 23.9189 391.04 23.6049C393.136 23.2064 394.969 22.6988 396.541 22.0815C403.051 21.6352 409.856 21.1682 416.958 20.6813C424.054 20.1099 430.682 19.5281 436.842 18.9359C439.069 19.2079 441.665 19.285 444.63 19.1667C447.679 19.0426 450.653 19.051 453.551 19.1921C456.527 19.2429 459.225 19.5674 461.644 20.166C462.066 20.266 462.468 20.3848 462.849 20.519C462.826 20.2488 462.715 20.0267 462.514 19.8521C464.605 19.3691 466.873 19.0008 469.319 18.7482C471.68 18.5014 474.045 18.2964 476.412 18.1341C478.773 17.8873 481.006 17.6072 483.108 17.2932C485.204 16.8947 487.037 16.3862 488.609 15.7689C495.119 15.3226 501.924 14.8565 509.026 14.3696C516.122 13.7982 522.75 13.2165 528.91 12.6243C531.137 12.8962 533.733 12.9733 536.698 12.855C539.747 12.7309 542.721 12.7394 545.619 12.8805C548.595 12.9312 551.293 13.2558 553.712 13.8543C554.134 13.9543 554.536 14.0731 554.917 14.2073C554.894 13.937 554.783 13.7141 554.582 13.5395C556.673 13.0564 558.941 12.6892 561.387 12.4365C563.748 12.1897 566.113 11.9848 568.48 11.8225C570.841 11.5757 573.074 11.2956 575.176 10.9816C577.272 10.5831 579.105 10.0745 580.677 9.45721C587.187 9.01091 593.992 8.54486 601.094 8.05799C608.19 7.48657 614.818 6.90385 620.978 6.31165C623.205 6.58363 625.801 6.6607 628.765 6.54241C631.815 6.41829 634.789 6.42673 637.687 6.56783C640.663 6.61862 643.361 6.94412 645.78 7.54269C646.202 7.64265 646.604 7.76052 646.985 7.8947C646.961 7.62461 646.85 7.40236 646.65 7.22784C648.741 6.74478 651.009 6.37654 653.455 6.12391C655.816 5.87709 658.181 5.67313 660.548 5.51084C662.909 5.264 665.142 4.98295 667.244 4.66896C669.339 4.27045 671.173 3.76287 672.745 3.14556C679.254 2.69926 686.06 2.23223 693.162 1.74536C700.258 1.17394 706.886 0.592204 713.046 0Z" fill="#1E1E1E"/>
</svg>
