<svg width="20" height="20" viewBox="0 0 20 20" fill="none" xmlns="http://www.w3.org/2000/svg">
<path fill-rule="evenodd" clip-rule="evenodd" d="M1.464 1.464C0 2.93 0 5.286 0 10C0 14.714 0 17.071 1.464 18.535C2.93 20 5.286 20 10 20C14.714 20 17.071 20 18.535 18.535C20 17.072 20 14.714 20 10C20 5.286 20 2.929 18.535 1.464C17.072 0 14.714 0 10 0C5.286 0 2.929 0 1.464 1.464ZM11.75 8C11.75 8.414 12.086 8.75 12.5 8.75H13.19L11.177 10.763C11.1538 10.7863 11.1262 10.8048 11.0958 10.8174C11.0654 10.83 11.0329 10.8364 11 10.8364C10.9671 10.8364 10.9346 10.83 10.9042 10.8174C10.8738 10.8048 10.8462 10.7863 10.823 10.763L9.237 9.177C8.90885 8.84908 8.46391 8.66487 8 8.66487C7.53609 8.66487 7.09115 8.84908 6.763 9.177L4.47 11.47C4.39631 11.5387 4.33721 11.6215 4.29622 11.7135C4.25523 11.8055 4.23319 11.9048 4.23141 12.0055C4.22963 12.1062 4.24816 12.2062 4.28588 12.2996C4.3236 12.393 4.37974 12.4778 4.45096 12.549C4.52218 12.6203 4.60701 12.6764 4.7004 12.7141C4.79379 12.7518 4.89382 12.7704 4.99452 12.7686C5.09523 12.7668 5.19454 12.7448 5.28654 12.7038C5.37854 12.6628 5.46134 12.6037 5.53 12.53L7.823 10.237C7.84622 10.2137 7.87381 10.1952 7.90418 10.1826C7.93456 10.17 7.96712 10.1636 8 10.1636C8.03288 10.1636 8.06544 10.17 8.09582 10.1826C8.12619 10.1952 8.15378 10.2137 8.177 10.237L9.763 11.823C10.0912 12.1509 10.5361 12.3351 11 12.3351C11.4639 12.3351 11.9088 12.1509 12.237 11.823L14.25 9.811V10.5C14.25 10.6989 14.329 10.8897 14.4697 11.0303C14.6103 11.171 14.8011 11.25 15 11.25C15.1989 11.25 15.3897 11.171 15.5303 11.0303C15.671 10.8897 15.75 10.6989 15.75 10.5V8C15.75 7.80109 15.671 7.61032 15.5303 7.46967C15.3897 7.32902 15.1989 7.25 15 7.25H12.5C12.3011 7.25 12.1103 7.32902 11.9697 7.46967C11.829 7.61032 11.75 7.80109 11.75 8Z" fill="black"/>
</svg>
