<svg width="19" height="31" viewBox="0 0 19 31" fill="none" xmlns="http://www.w3.org/2000/svg">
<path d="M10.6337 1.41715e-06C11.7276 -0.000860934 12.7854 0.391865 13.6137 1.10644C14.442 1.82101 14.9856 2.80973 15.1452 3.89198C15.3048 4.97423 15.0697 6.07777 14.4829 7.00101C13.896 7.92425 12.9967 8.60557 11.949 8.92049L11.6908 8.99036L15.3772 13.2053L18.1476 14.589C18.498 14.7601 18.7691 15.0594 18.9049 15.4248C19.0407 15.7903 19.0307 16.1939 18.8771 16.5523C18.7235 16.9106 18.438 17.1961 18.0797 17.3498C17.7214 17.5035 17.3177 17.5135 16.9523 17.3777L16.7897 17.3063L14.0193 15.9211C13.755 15.7891 13.5115 15.6192 13.2963 15.4168L13.0912 15.2042L11.545 13.4377L10.5425 17.4446C10.4518 17.8091 10.2942 18.1536 10.0777 18.4607L9.91066 18.6764L12.8391 21.3542C13.2161 21.6983 13.5002 22.1319 13.6654 22.6149L13.7368 22.8579L14.8577 27.3402H15.1904C15.5775 27.3406 15.9499 27.4888 16.2314 27.7546C16.5129 28.0204 16.6823 28.3836 16.705 28.7701C16.7276 29.1565 16.6019 29.5371 16.3534 29.834C16.1049 30.1308 15.7525 30.3216 15.3681 30.3673L15.1904 30.378H13.7899C13.4498 30.378 13.1177 30.2741 12.8381 30.0803C12.5586 29.8865 12.3448 29.612 12.2255 29.2935L12.1693 29.1112L10.7901 23.5961L6.21822 19.4161C5.6439 19.1239 5.17736 18.6567 4.88603 18.082C4.59471 17.5072 4.49368 16.8547 4.59755 16.2188L4.64919 15.9712L5.42839 12.8544L4.93778 13.2038L2.82196 16.7307C2.62272 17.0633 2.3038 17.3072 1.93056 17.4123C1.55732 17.5174 1.15802 17.4757 0.81449 17.2959C0.470956 17.1161 0.209204 16.8117 0.0828737 16.4451C-0.0434564 16.0785 -0.0247984 15.6775 0.135025 15.3242L0.217046 15.1662L2.33287 11.6408C2.50412 11.3552 2.72118 11.0996 2.97537 10.8844L3.17282 10.7325L7.36802 7.73272C6.74381 7.09053 6.32268 6.27865 6.15723 5.3985C5.99179 4.51834 6.08937 3.60896 6.43778 2.78394C6.78619 1.95893 7.36999 1.25488 8.11624 0.759748C8.86249 0.264618 9.73809 0.000363566 10.6337 1.41715e-06ZM6.55693 20.5826C6.74625 20.6456 6.9213 20.7453 7.07209 20.8759C7.22287 21.0066 7.34644 21.1657 7.43573 21.3441C7.52501 21.5225 7.57827 21.7168 7.59245 21.9158C7.60664 22.1149 7.58147 22.3147 7.51839 22.504L6.87134 24.4421C6.72233 24.8896 6.47115 25.2963 6.13771 25.6299L3.6209 28.1467C3.7911 28.468 3.84041 28.8397 3.75986 29.1943C3.6793 29.5488 3.47424 29.8627 3.18191 30.0789C2.88959 30.2951 2.5294 30.3993 2.1668 30.3725C1.80419 30.3457 1.46323 30.1898 1.20585 29.9329L0.457032 29.1841C0.1695 28.8964 0.00797724 28.5064 0.00797724 28.0996C0.00797724 27.6929 0.1695 27.3028 0.457032 27.0151L3.98999 23.4822L4.63552 21.5441C4.69851 21.3547 4.79819 21.1797 4.92885 21.0289C5.05951 20.8781 5.2186 20.7546 5.39704 20.6653C5.57547 20.576 5.76974 20.5227 5.96876 20.5085C6.16778 20.4944 6.36764 20.5195 6.55693 20.5826Z" fill="black"/>
</svg>
