<svg width="41" height="43" viewBox="0 0 41 43" fill="none" xmlns="http://www.w3.org/2000/svg">
<path fill-rule="evenodd" clip-rule="evenodd" d="M39.198 38.4874C39.1325 39.7068 38.6186 40.8539 37.7618 41.6932C36.9049 42.5324 35.7703 43 34.5908 43H6.408C5.22857 43 4.09389 42.5324 3.23706 41.6932C2.38023 40.8539 1.8663 39.7068 1.80084 38.4874L0.00711205 5.04294C-0.0277095 4.39427 0.0655962 3.74506 0.281325 3.135C0.497054 2.52494 0.830673 1.96684 1.26179 1.49483C1.6929 1.02282 2.21246 0.646809 2.78868 0.389788C3.36491 0.132768 3.98571 0.000135582 4.61312 4.07768e-09H36.3857C37.0132 -2.684e-05 37.6342 0.132485 38.2105 0.389434C38.7869 0.646383 39.3066 1.02237 39.7378 1.4944C40.169 1.96642 40.5028 2.52458 40.7186 3.13472C40.9344 3.74486 41.0277 4.39417 40.9929 5.04294L39.198 38.4874ZM32.3161 14.0694C33.262 13.4244 33.4996 12.1451 32.7233 11.3126C31.4068 9.9051 29.8678 8.74089 28.1726 7.87019C25.8194 6.66139 23.2345 6.01368 20.6079 5.97461C17.9789 5.92977 15.3734 6.49375 12.9819 7.62533C11.2577 8.44091 9.67987 9.55407 8.31593 10.9172C7.51192 11.7247 7.70456 13.0099 8.62853 13.6859L13.6025 17.3242C14.5253 18.0003 15.8265 17.7817 16.7828 17.151C17.0302 16.9902 17.2872 16.8458 17.5522 16.7186C18.4015 16.3174 19.3225 16.1046 20.256 16.0939L24.1699 11.4344C24.3706 11.1952 24.6548 11.0484 24.9601 11.0262C25.1112 11.0153 25.263 11.0352 25.4067 11.085C25.5504 11.1347 25.6832 11.2133 25.7975 11.3162C25.9119 11.4191 26.0056 11.5443 26.0732 11.6847C26.1409 11.8251 26.1811 11.9779 26.1917 12.1344C26.2023 12.2909 26.1831 12.448 26.135 12.5968C26.087 12.7456 26.0111 12.8831 25.9117 13.0015L22.8757 16.6147C23.2867 16.7913 23.6794 17.0106 24.0477 17.2693C24.982 17.9298 26.274 18.189 27.2198 17.544L32.3161 14.0694Z" fill="#1E1E1E"/>
</svg>
