<svg width="32" height="12" viewBox="0 0 32 12" fill="none" xmlns="http://www.w3.org/2000/svg">
<path d="M29.8733 3.03012C29.8759 3.05251 29.8866 3.05811 29.9666 3.05671H30.9333C31.0929 3.05723 31.2506 3.01998 31.3947 2.94773C31.5388 2.87548 31.6654 2.77008 31.7654 2.63938C31.8653 2.50868 31.9359 2.35602 31.9719 2.19275C32.0079 2.02948 32.0084 1.8598 31.9733 1.69631C31.9167 1.42283 31.7639 1.18185 31.5454 1.02151C31.3268 0.861159 31.0587 0.793253 30.7946 0.831357C30.5381 0.866527 30.3028 0.998922 30.1328 1.2036C29.9629 1.40829 29.8701 1.67113 29.8719 1.94263C29.8719 2.08399 29.8693 2.87476 29.8733 3.03012ZM14.5278 9.75936C14.2571 9.76076 12.7238 9.76496 12.2811 9.76356C11.934 9.76095 11.5894 9.70146 11.2598 9.58721C11.252 9.58479 11.2436 9.58545 11.2363 9.58906C11.2289 9.59267 11.223 9.59898 11.2198 9.6068L10.2664 11.7748C10.263 11.7826 10.2624 11.7916 10.2649 11.7999C10.2674 11.8081 10.2727 11.8152 10.2798 11.8196C10.4278 11.9035 10.7278 11.9931 10.9398 11.9931C11.8198 12.0071 12.6998 11.9959 13.5811 11.9931C13.5963 11.9931 13.6065 11.9861 13.6118 11.9721L14.5612 9.80974C14.5637 9.80424 14.5649 9.79812 14.5645 9.792C14.5641 9.78588 14.5622 9.77997 14.559 9.77487C14.5557 9.76977 14.5513 9.76565 14.546 9.76292C14.5408 9.7602 14.535 9.75897 14.5292 9.75936H14.5278ZM0.635704 3.0735C0.541037 3.0735 0.53437 3.0763 0.53437 3.0875L0.521036 3.19947C0.485036 3.75511 0.470369 3.89227 0.209034 7.48222C0.193034 7.81812 0.1637 8.02666 0.0290324 8.33177C-0.00563459 8.41155 -0.014968 8.39056 0.0330324 8.48853C0.0943662 8.61729 0.94104 10.6201 1.08237 10.9238C1.09304 10.9448 1.09704 10.9518 1.10504 10.9518C1.11571 10.9518 1.14904 10.9154 1.16771 10.8902C1.36238 10.6271 1.52727 10.3444 1.66238 10.0421C2.07038 9.15333 2.24905 8.18762 2.31038 7.65437C2.32905 7.50042 2.33838 7.34646 2.35038 7.19251L2.62239 3.53117L2.65172 3.12109C2.65572 3.0805 2.65172 3.0749 2.61172 3.0735H0.635704ZM10.2398 8.33177C10.1199 8.06633 10.0584 7.77599 10.0598 7.48222C10.0544 7.36466 10.0184 6.93638 9.74645 3.19947C9.74579 3.16083 9.74132 3.12237 9.73311 3.0847C9.72778 3.06931 9.66378 3.0735 9.63178 3.0735H7.65843C7.61843 3.0749 7.6131 3.0805 7.61843 3.12109L7.64643 3.53117C7.74776 4.90557 7.85132 6.27997 7.9571 7.65437C8.02376 8.21421 8.2051 9.17293 8.60644 10.0421C8.74377 10.343 8.90377 10.6285 9.09977 10.8902C9.11977 10.9154 9.14911 10.9616 9.16377 10.9588C9.19044 10.9546 10.1531 8.66068 10.2358 8.48853C10.2838 8.39056 10.2758 8.41155 10.2398 8.33177ZM15.3878 7.05395H14.2251C14.1969 7.05424 14.1691 7.04705 14.1442 7.03306C14.1193 7.01907 14.0982 6.99872 14.0828 6.97389C14.0673 6.94906 14.0581 6.92055 14.056 6.891C14.0538 6.86145 14.0588 6.83181 14.0705 6.80482L15.6412 3.13089C15.6434 3.12555 15.6443 3.11972 15.6438 3.11392C15.6434 3.10812 15.6415 3.10254 15.6385 3.09768C15.6354 3.09281 15.6313 3.08882 15.6264 3.08607C15.6215 3.08331 15.616 3.08188 15.6105 3.0819L13.8531 3.0777C13.82 3.07785 13.7873 3.06921 13.7581 3.05258C13.729 3.03595 13.7043 3.01188 13.6863 2.98258C13.6684 2.95328 13.6578 2.91971 13.6555 2.88496C13.6532 2.85021 13.6592 2.81542 13.6731 2.78379L14.8412 0.0489857C14.8434 0.0436515 14.8443 0.0378209 14.8438 0.0320217C14.8433 0.0262225 14.8415 0.0206376 14.8385 0.0157737C14.8354 0.0109097 14.8313 0.00692032 14.8264 0.00416598C14.8215 0.00141165 14.816 -2.00851e-05 14.8105 2.12852e-07H12.7305C12.7154 2.12852e-07 12.7047 0.00699799 12.6985 0.0209939L11.4638 2.91535C11.3505 3.15188 11.0451 3.80269 10.9318 4.22817C10.9065 4.31463 10.8975 4.40541 10.9051 4.49549C10.9097 4.60363 10.9403 4.70879 10.9939 4.80126C11.0475 4.89373 11.1224 4.97052 11.2118 5.02454C11.4005 5.13097 11.6109 5.1881 11.8251 5.19109H12.6118C12.6665 5.19109 11.6945 7.26529 11.4998 7.95109C11.4763 8.02884 11.4659 8.11031 11.4691 8.19182C11.4705 8.30446 11.4995 8.41484 11.5532 8.51237C11.6069 8.60991 11.6835 8.69134 11.7758 8.74885C11.9758 8.87762 12.2318 8.9168 12.4091 8.9168L14.6225 8.9154C14.6376 8.9154 14.6478 8.90841 14.6532 8.89441L15.4198 7.10293C15.4221 7.09749 15.423 7.09153 15.4225 7.08561C15.4219 7.07969 15.42 7.07402 15.4168 7.06911C15.4136 7.06421 15.4092 7.06025 15.4042 7.05759C15.3991 7.05494 15.3935 7.05368 15.3878 7.05395ZM6.14775 0.144158H4.13307C4.12713 0.143764 4.12118 0.144678 4.1156 0.146841C4.11002 0.149004 4.10493 0.152368 4.10066 0.156717C4.09639 0.161067 4.09303 0.166305 4.09081 0.172096C4.08858 0.177887 4.08753 0.184103 4.08773 0.190344C4.08773 1.65712 4.0744 4.10221 4.0744 9.74816C4.0744 10.1512 3.71573 10.1149 3.70106 10.1149H2.71439C2.66105 10.1163 2.65572 10.1205 2.66105 10.1806C2.66239 10.2324 3.28106 11.6698 3.40106 11.9483C3.41439 11.9763 3.44106 11.9945 3.46906 11.9945C3.6784 11.9987 4.49174 12.0071 4.71974 11.9749C4.92374 11.9469 5.11974 11.8909 5.30374 11.7902C5.70375 11.5718 5.95708 11.2037 6.09708 10.7195C6.16642 10.4787 6.19708 10.2254 6.19708 9.9735C6.19975 6.71245 6.19664 3.45093 6.18775 0.188945C6.18814 0.182957 6.18731 0.176949 6.18531 0.171327C6.1833 0.165706 6.18017 0.1606 6.17613 0.156355C6.17209 0.152111 6.16722 0.148826 6.16187 0.146722C6.15651 0.144618 6.15079 0.143743 6.14508 0.144158H6.14775ZM21.8599 9.79575C21.8581 9.77709 21.8474 9.76682 21.8279 9.76496H19.8745C19.8105 9.76356 19.8092 9.76216 19.8079 9.69638V3.17428C19.8079 3.07351 19.8012 3.0763 19.9012 3.0763H21.0519C21.1585 3.0763 21.1519 3.0819 21.1519 2.97273V0.950323C21.1519 0.835556 21.1599 0.843955 21.0452 0.843955H16.3785C16.2932 0.843955 16.2785 0.835557 16.2785 0.946125V2.96854C16.2785 3.0847 16.2705 3.0763 16.3852 3.0763H17.5238C17.6238 3.0763 17.6172 3.07071 17.6172 3.17428V9.64599C17.6172 9.77895 17.6278 9.76356 17.5038 9.76356C17.0105 9.76356 16.0238 9.76076 15.7652 9.76356C15.7012 9.76496 15.6852 9.80555 15.6852 9.80555L14.7558 11.9315C14.7558 11.9315 14.7372 11.9665 14.7452 11.9819C14.7532 11.9973 14.7625 11.9931 14.8225 11.9931C17.1532 11.9959 19.4834 11.9968 21.8132 11.9959C21.8532 11.9945 21.8585 11.9875 21.8599 11.9497V9.79575ZM27.4293 4.99515C27.4293 5.01474 27.4204 5.02594 27.4026 5.02874C26.9413 5.03713 26.4799 5.03433 26.0199 5.03433C26.0012 5.03153 25.9915 5.02034 25.9906 5.00074C25.9852 4.39332 25.9808 3.78543 25.9772 3.17708C25.9772 3.0763 25.9692 3.0777 26.0706 3.0791L27.0479 3.07491C27.1026 3.07491 27.1559 3.0777 27.2079 3.0959C27.3319 3.13089 27.4213 3.24566 27.4279 3.38142C27.4359 3.98464 27.4306 4.99515 27.4293 4.99515ZM30.9893 5.33665C30.6257 5.13701 30.2223 5.03054 29.8119 5.02594H29.5719C29.5186 5.02454 29.5186 5.02174 29.5159 4.96995V3.49338C29.5168 3.30864 29.5057 3.12482 29.4826 2.94194C29.4513 2.68515 29.3825 2.43495 29.2786 2.20016C29.0898 1.7739 28.7726 1.4247 28.3759 1.20645C27.9651 0.976736 27.508 0.852961 27.0426 0.845354C26.8386 0.841155 26.2866 0.845354 26.0826 0.845354C25.9892 0.845354 25.9919 0.850953 25.9919 0.754381V0.0643815C25.9919 0.0209941 25.9786 0.00699813 25.9306 0.00979732H23.9066C23.9066 0.00979732 23.8852 0.00979727 23.8759 0.0195944C23.8688 0.0270589 23.8652 0.0377888 23.8652 0.0517847V0.815962C23.8546 0.866348 23.7892 0.836957 23.7559 0.846754H22.4892C22.4599 0.849553 22.4519 0.85795 22.4492 0.89154V2.96434C22.4492 3.0903 22.4439 3.0791 22.5586 3.0791H23.7759C23.8852 3.0791 23.8719 3.25825 23.8719 3.25825V4.86498C23.8719 4.86498 23.8759 5.02874 23.7919 5.02874H21.8159C21.7252 5.02874 21.7359 5.1435 21.7359 5.1435V7.16591C21.7359 7.16591 21.7225 7.26109 21.8212 7.26109H23.7639C23.8732 7.26109 23.8652 7.25269 23.8652 7.37165V11.8853C23.8652 12.0085 23.8559 11.9987 23.9746 11.9987H25.8812C26.0012 11.9987 25.9906 12.0085 25.9906 11.8867V7.31007C25.9906 7.26948 25.9986 7.26109 26.0346 7.26109L29.1319 7.25689C29.2607 7.25802 29.3878 7.28708 29.5053 7.34226C29.6112 7.39134 29.7017 7.47088 29.7663 7.57168C29.831 7.67248 29.8671 7.79043 29.8706 7.9119C29.8813 8.46473 29.8746 9.01757 29.8746 9.57041C29.8746 9.93291 29.7319 10.0841 29.4346 10.0841H27.8106C27.7799 10.0869 27.7719 10.0953 27.7733 10.1302C28.0186 10.7414 28.2719 11.3493 28.5333 11.9539C28.5386 11.9642 28.5462 11.9729 28.5555 11.9792C28.5648 11.9856 28.5755 11.9894 28.5866 11.9903C28.8133 11.9973 29.0399 11.9931 29.2666 11.9945C29.4666 11.9917 29.9559 12.0001 30.1546 11.9805C30.3389 11.9654 30.5212 11.9302 30.6986 11.8755C31.4853 11.6236 31.9986 10.8986 32 10.0379V7.26528C32.0009 7.08707 31.9857 6.90979 31.9546 6.73344C31.9546 6.84261 31.916 5.8363 30.9893 5.33665Z" fill="#E4DDCB"/>
</svg>
