<svg width="22" height="23" viewBox="0 0 22 23" fill="none" xmlns="http://www.w3.org/2000/svg">
<path fill-rule="evenodd" clip-rule="evenodd" d="M0.529974 1.388C0.668974 0.569 1.38397 1.4009e-07 2.20197 1.4009e-07H2.34797C2.3818 -3.56624e-05 2.41527 0.00679136 2.44638 0.020068C2.47748 0.0333447 2.50557 0.0527948 2.52894 0.0772414C2.55232 0.101688 2.57048 0.130623 2.58235 0.162294C2.59421 0.193965 2.59953 0.227715 2.59797 0.2615L2.37547 5.1465C2.37176 5.22851 2.38424 5.31045 2.4122 5.38764C2.44016 5.46482 2.48304 5.53575 2.53841 5.59636C2.59378 5.65698 2.66054 5.70609 2.73489 5.7409C2.80924 5.77571 2.88971 5.79554 2.97172 5.79925C3.05373 5.80296 3.13567 5.79048 3.21286 5.76252C3.29005 5.73457 3.36097 5.69168 3.42159 5.63631C3.4822 5.58095 3.53131 5.51418 3.56613 5.43984C3.60094 5.36549 3.62076 5.28501 3.62447 5.203L3.84997 0.239C3.85281 0.174621 3.8804 0.113823 3.92698 0.0692924C3.97356 0.0247617 4.03553 -6.22682e-05 4.09997 1.4009e-07H5.39997C5.46442 -6.22682e-05 5.52639 0.0247617 5.57297 0.0692924C5.61955 0.113823 5.64714 0.174621 5.64997 0.239L5.87547 5.203C5.88303 5.36863 5.95608 5.52447 6.07854 5.63624C6.201 5.74801 6.36285 5.80656 6.52847 5.799C6.6941 5.79144 6.84994 5.7184 6.96171 5.59594C7.07349 5.47347 7.13203 5.31163 7.12447 5.146L6.90247 0.2615C6.90092 0.227715 6.90623 0.193965 6.9181 0.162294C6.92996 0.130623 6.94813 0.101688 6.9715 0.0772414C6.99488 0.0527948 7.02296 0.0333447 7.05407 0.020068C7.08518 0.00679136 7.11865 -3.56624e-05 7.15247 1.4009e-07H7.29747C8.11547 1.4009e-07 8.83047 0.5685 8.96947 1.3875C9.20097 2.7545 9.52497 5.1445 9.49897 7.7005C9.48447 9.1205 8.53397 10.397 7.04247 10.731C6.82447 10.7803 6.59647 10.8247 6.35847 10.864L7.27947 19.636C7.41747 20.95 6.59947 22.2705 5.23747 22.46C5.07611 22.4847 4.91321 22.4981 4.74997 22.5C4.58691 22.498 4.42418 22.4847 4.26297 22.46C2.90097 22.27 2.08297 20.95 2.22097 19.636L3.14197 10.8645C2.9129 10.8268 2.68497 10.7824 2.45847 10.7315C0.966474 10.3975 0.0159742 9.121 0.00147423 7.701C-0.0245258 5.145 0.298974 2.755 0.529974 1.388ZM21.25 0.4245C15.313 0.4245 10.5 5.2375 10.5 11.1745C10.5 17.1115 15.313 21.9245 21.25 21.9245C21.4489 21.9245 21.6397 21.8455 21.7803 21.7048C21.921 21.5642 22 21.3734 22 21.1745V17.8835C21.7509 17.9106 21.5005 17.9243 21.25 17.9245C17.522 17.9245 14.5 14.9025 14.5 11.1745C14.5 7.4465 17.522 4.4245 21.25 4.4245C21.5036 4.4245 21.7536 4.43817 22 4.4655V1.1745C22 0.975588 21.921 0.784822 21.7803 0.64417C21.6397 0.503518 21.4489 0.4245 21.25 0.4245ZM21.25 16.4245C21.505 16.4245 21.755 16.4068 22 16.3715V5.9775C21.7515 5.94275 21.5009 5.92504 21.25 5.9245C18.3505 5.9245 16 8.275 16 11.1745C16 14.074 18.3505 16.4245 21.25 16.4245Z" fill="black"/>
</svg>
